<svg width="181" height="127" viewBox="0 0 181 127" fill="none" xmlns="http://www.w3.org/2000/svg">
<g clip-path="url(#clip0_39_483)">
<mask id="mask0_39_483" style="mask-type:luminance" maskUnits="userSpaceOnUse" x="0" y="0" width="181" height="127">
<path d="M181 0H0V127H181V0Z" fill="white"/>
</mask>
<g mask="url(#mask0_39_483)">
<path d="M147.836 79.6481H31.2614C30.4656 79.6472 29.7027 79.3305 29.14 78.7674C28.5773 78.2044 28.2607 77.4409 28.2598 76.6446V4.71414C28.2605 4.13075 28.4924 3.57145 28.9046 3.15892C29.3168 2.7464 29.8758 2.51434 30.4588 2.51367H148.6C149.193 2.51435 149.762 2.75041 150.181 3.17006C150.601 3.58972 150.837 4.1587 150.837 4.75218V76.6446C150.836 77.4409 150.52 78.2044 149.957 78.7674C149.395 79.3305 148.632 79.6472 147.836 79.6481Z" fill="#F2F2F2"/>
<path d="M143.583 75.3947H34.9391C33.3465 75.3947 32.0508 74.1805 32.0508 72.6882V10.0502C32.0508 8.94344 33.0109 8.04297 34.1911 8.04297H144.296C145.495 8.04297 146.472 8.95828 146.472 10.0833V72.6882C146.472 74.1805 145.176 75.3947 143.583 75.3947Z" fill="white"/>
<path d="M150.795 4.54172H28.2168V3.01259C28.218 2.21363 28.5358 1.44776 29.1005 0.882982C29.6653 0.318209 30.4308 0.000660072 31.2293 0H147.782C148.581 0.000656225 149.346 0.318204 149.911 0.882978C150.476 1.44775 150.793 2.21363 150.795 3.01259V4.54172Z" fill="#CCCCCC"/>
<path d="M33.6913 3.05552C34.1216 3.05552 34.4705 2.70643 34.4705 2.2758C34.4705 1.84518 34.1216 1.49609 33.6913 1.49609C33.2609 1.49609 32.9121 1.84518 32.9121 2.2758C32.9121 2.70643 33.2609 3.05552 33.6913 3.05552Z" fill="white"/>
<path d="M36.6503 3.05552C37.0806 3.05552 37.4295 2.70643 37.4295 2.2758C37.4295 1.84518 37.0806 1.49609 36.6503 1.49609C36.22 1.49609 35.8711 1.84518 35.8711 2.2758C35.8711 2.70643 36.22 3.05552 36.6503 3.05552Z" fill="white"/>
<path d="M39.6073 3.05552C40.0377 3.05552 40.3865 2.70643 40.3865 2.2758C40.3865 1.84518 40.0377 1.49609 39.6073 1.49609C39.177 1.49609 38.8281 1.84518 38.8281 2.2758C38.8281 2.70643 39.177 3.05552 39.6073 3.05552Z" fill="white"/>
<path d="M131.624 64.8883H47.4295C46.5855 64.8874 45.7763 64.5514 45.1795 63.9542C44.5827 63.357 44.247 62.5473 44.2461 61.7028V21.0817C44.2468 20.4501 44.4978 19.8445 44.9442 19.3979C45.3905 18.9512 45.9957 18.7 46.6269 18.6992H132.389C133.031 18.7 133.644 18.9552 134.098 19.409C134.551 19.8628 134.806 20.478 134.807 21.1198V61.7028C134.806 62.5473 134.471 63.357 133.874 63.9542C133.277 64.5514 132.468 64.8874 131.624 64.8883ZM46.6269 19.0633C46.0921 19.0639 45.5794 19.2768 45.2013 19.6552C44.8232 20.0336 44.6105 20.5466 44.6099 21.0817V61.7028C44.6107 62.4508 44.9081 63.168 45.4367 63.6969C45.9653 64.2259 46.682 64.5234 47.4295 64.5243H131.624C132.371 64.5234 133.088 64.2259 133.617 63.6969C134.145 63.168 134.443 62.4508 134.443 61.7028V21.1198C134.443 20.5745 134.226 20.0518 133.841 19.6663C133.456 19.2808 132.934 19.0639 132.389 19.0633H46.6269Z" fill="#CCCCCC"/>
<path d="M50.3402 61.7025H128.714C129.486 61.7025 130.226 61.3956 130.772 60.8494C131.318 60.3032 131.625 59.5624 131.625 58.79V24.8324C131.625 24.0599 131.318 23.3191 130.772 22.7729C130.226 22.2267 129.486 21.9199 128.714 21.9199H50.3402C49.5683 21.9199 48.828 22.2267 48.2821 22.7729C47.7363 23.3191 47.4297 24.0599 47.4297 24.8324V58.79C47.4297 59.5624 47.7363 60.3032 48.2821 60.8494C48.828 61.3956 49.5683 61.7025 50.3402 61.7025Z" fill="#F2F2F2"/>
<path d="M59.2388 31.8C60.143 31.8 60.876 31.0665 60.876 30.1617C60.876 29.2569 60.143 28.5234 59.2388 28.5234C58.3346 28.5234 57.6016 29.2569 57.6016 30.1617C57.6016 31.0665 58.3346 31.8 59.2388 31.8Z" fill="#CCCCCC"/>
<path d="M59.2388 37.9895C60.143 37.9895 60.876 37.256 60.876 36.3512C60.876 35.4464 60.143 34.7129 59.2388 34.7129C58.3346 34.7129 57.6016 35.4464 57.6016 36.3512C57.6016 37.256 58.3346 37.9895 59.2388 37.9895Z" fill="#CCCCCC"/>
<path d="M59.2388 44.1789C60.143 44.1789 60.876 43.4454 60.876 42.5406C60.876 41.6358 60.143 40.9023 59.2388 40.9023C58.3346 40.9023 57.6016 41.6358 57.6016 42.5406C57.6016 43.4454 58.3346 44.1789 59.2388 44.1789Z" fill="#CCCCCC"/>
<path d="M59.2388 50.3664C60.143 50.3664 60.876 49.6329 60.876 48.7281C60.876 47.8233 60.143 47.0898 59.2388 47.0898C58.3346 47.0898 57.6016 47.8233 57.6016 48.7281C57.6016 49.6329 58.3346 50.3664 59.2388 50.3664Z" fill="#CCCCCC"/>
<path d="M121.272 30.3446H67.426C67.3778 30.3446 67.3315 30.3254 67.2974 30.2913C67.2633 30.2571 67.2441 30.2108 67.2441 30.1626C67.2441 30.1143 67.2633 30.068 67.2974 30.0339C67.3315 29.9997 67.3778 29.9805 67.426 29.9805H121.272C121.32 29.9805 121.366 29.9997 121.4 30.0339C121.434 30.068 121.454 30.1143 121.454 30.1626C121.454 30.2108 121.434 30.2571 121.4 30.2913C121.366 30.3254 121.32 30.3446 121.272 30.3446Z" fill="#CCCCCC"/>
<path d="M121.272 36.5321H67.426C67.3778 36.5321 67.3315 36.5129 67.2974 36.4788C67.2633 36.4446 67.2441 36.3983 67.2441 36.3501C67.2441 36.3018 67.2633 36.2555 67.2974 36.2213C67.3315 36.1872 67.3778 36.168 67.426 36.168H121.272C121.32 36.168 121.366 36.1872 121.4 36.2213C121.434 36.2555 121.454 36.3018 121.454 36.3501C121.454 36.3983 121.434 36.4446 121.4 36.4788C121.366 36.5129 121.32 36.5321 121.272 36.5321Z" fill="#CCCCCC"/>
<path d="M121.272 42.7215H67.426C67.3778 42.7215 67.3315 42.7023 67.2974 42.6682C67.2633 42.634 67.2441 42.5877 67.2441 42.5394C67.2441 42.4912 67.2633 42.4449 67.2974 42.4107C67.3315 42.3766 67.3778 42.3574 67.426 42.3574H121.272C121.32 42.3574 121.366 42.3766 121.4 42.4107C121.434 42.4449 121.454 42.4912 121.454 42.5394C121.454 42.5877 121.434 42.634 121.4 42.6682C121.366 42.7023 121.32 42.7215 121.272 42.7215Z" fill="#CCCCCC"/>
<path d="M121.272 48.911H67.426C67.3778 48.911 67.3315 48.8918 67.2974 48.8577C67.2633 48.8235 67.2441 48.7772 67.2441 48.729C67.2441 48.6807 67.2633 48.6344 67.2974 48.6003C67.3315 48.5661 67.3778 48.5469 67.426 48.5469H121.272C121.32 48.5469 121.366 48.5661 121.4 48.6003C121.434 48.6344 121.454 48.6807 121.454 48.729C121.454 48.7772 121.434 48.8235 121.4 48.8577C121.366 48.8918 121.32 48.911 121.272 48.911Z" fill="#CCCCCC"/>
<path d="M77.6126 55.1004H72.3372C72.0961 55.1001 71.8649 55.0041 71.6944 54.8335C71.5239 54.6629 71.428 54.4315 71.4277 54.1902V49.2754C71.428 49.0341 71.5239 48.8027 71.6944 48.6321C71.8649 48.4615 72.0961 48.3655 72.3372 48.3652H77.6126C77.8538 48.3655 78.0849 48.4615 78.2555 48.6321C78.426 48.8027 78.5219 49.0341 78.5222 49.2754V54.1902C78.5219 54.4315 78.426 54.6629 78.2555 54.8335C78.0849 55.0041 77.8538 55.1001 77.6126 55.1004Z" fill="#0046EA"/>
<path d="M89.4369 55.1001H84.1615C83.9204 55.0998 83.6892 55.0038 83.5187 54.8332C83.3482 54.6626 83.2523 54.4312 83.252 54.1899V43.086C83.2523 42.8447 83.3482 42.6134 83.5187 42.4427C83.6892 42.2721 83.9204 42.1761 84.1615 42.1758H89.4369C89.6781 42.1761 89.9092 42.2721 90.0797 42.4427C90.2503 42.6134 90.3462 42.8447 90.3465 43.086V54.1899C90.3462 54.4312 90.2503 54.6626 90.0797 54.8332C89.9092 55.0038 89.6781 55.0998 89.4369 55.1001Z" fill="#0046EA"/>
<path d="M101.442 55.0996H96.1673C95.9262 55.0993 95.695 55.0033 95.5245 54.8327C95.354 54.6621 95.258 54.4307 95.2578 54.1894V36.8964C95.258 36.6551 95.354 36.4238 95.5245 36.2531C95.695 36.0825 95.9262 35.9865 96.1673 35.9863H101.442C101.684 35.9865 101.915 36.0825 102.085 36.2531C102.256 36.4238 102.352 36.6551 102.352 36.8964V54.1894C102.352 54.4307 102.256 54.6621 102.085 54.8327C101.915 55.0033 101.684 55.0993 101.442 55.0996Z" fill="#0046EA"/>
<path d="M113.812 55.1009H108.537C108.296 55.1006 108.065 55.0046 107.894 54.834C107.724 54.6634 107.628 54.432 107.627 54.1907V30.8907C107.628 30.6494 107.724 30.4181 107.894 30.2474C108.065 30.0768 108.296 29.9808 108.537 29.9805H113.812C114.054 29.9808 114.285 30.0768 114.455 30.2474C114.626 30.4181 114.722 30.6494 114.722 30.8907V54.1907C114.722 54.432 114.626 54.6634 114.455 54.834C114.285 55.0046 114.054 55.1006 113.812 55.1009Z" fill="#0046EA"/>
<path d="M121.272 55.1004H67.426C67.3778 55.1004 67.3315 55.0812 67.2974 55.0471C67.2633 55.0129 67.2441 54.9666 67.2441 54.9184C67.2441 54.8701 67.2633 54.8238 67.2974 54.7896C67.3315 54.7555 67.3778 54.7363 67.426 54.7363H121.272C121.32 54.7363 121.366 54.7555 121.4 54.7896C121.434 54.8238 121.454 54.8701 121.454 54.9184C121.454 54.9666 121.434 55.0129 121.4 55.0471C121.366 55.0812 121.32 55.1004 121.272 55.1004Z" fill="#3F3D56"/>
<path d="M144.927 89.0584C145.074 88.8351 145.269 88.6469 145.496 88.507C145.724 88.3671 145.98 88.2789 146.246 88.2486C146.512 88.2184 146.781 88.2468 147.034 88.3319C147.288 88.4169 147.52 88.5566 147.714 88.741L153.49 85.7578L153.131 89.1189L147.7 91.4365C147.369 91.7417 146.938 91.9148 146.487 91.9228C146.037 91.9309 145.6 91.7735 145.258 91.4803C144.916 91.1872 144.693 90.7787 144.632 90.3323C144.571 89.886 144.676 89.4327 144.927 89.0584Z" fill="#FFB8B8"/>
<path d="M149.898 90.3109C149.767 90.208 149.67 90.0677 149.621 89.9084L149.161 88.4231C149.112 88.2622 149.113 88.09 149.165 87.9298C149.216 87.7695 149.316 87.629 149.45 87.5272L154.132 83.9885L159.203 74.5753C159.415 74.3015 159.679 74.0723 159.98 73.9008C160.281 73.7292 160.613 73.6187 160.956 73.5754C161.3 73.5321 161.649 73.557 161.983 73.6486C162.317 73.7402 162.629 73.8968 162.903 74.1093C163.176 74.3218 163.405 74.5862 163.577 74.8873C163.748 75.1884 163.859 75.5204 163.902 75.8642C163.945 76.2081 163.92 76.5571 163.829 76.8913C163.737 77.2255 163.581 77.5384 163.368 77.8121L160.484 83.9048C159.608 85.7541 158.091 87.2223 156.215 88.0362L150.728 90.4177C150.623 90.4634 150.509 90.4864 150.394 90.4852C150.279 90.484 150.166 90.4585 150.061 90.4106C150.003 90.3839 149.948 90.3505 149.898 90.3109Z" fill="#3F3D56"/>
<path d="M163.495 70.6468C165.962 70.6468 167.963 68.6452 167.963 66.176C167.963 63.7068 165.962 61.7051 163.495 61.7051C161.027 61.7051 159.027 63.7068 159.027 66.176C159.027 68.6452 161.027 70.6468 163.495 70.6468Z" fill="#FFB8B8"/>
<path d="M161.683 124.827H159.453L158.393 116.219H161.684L161.683 124.827Z" fill="#FFB8B8"/>
<path d="M157.86 124.188H162.161V126.897H155.152C155.152 126.541 155.222 126.189 155.358 125.86C155.494 125.531 155.694 125.232 155.945 124.981C156.197 124.729 156.495 124.529 156.824 124.393C157.153 124.257 157.505 124.188 157.86 124.188Z" fill="#2F2E41"/>
<path d="M168.961 124.827H166.731L165.67 116.219H168.962L168.961 124.827Z" fill="#FFB8B8"/>
<path d="M165.138 124.188H169.439V126.897H162.43C162.43 126.541 162.5 126.189 162.636 125.86C162.772 125.531 162.971 125.233 163.223 124.981C163.474 124.729 163.773 124.53 164.101 124.394C164.43 124.257 164.782 124.188 165.138 124.188Z" fill="#2F2E41"/>
<path d="M169.123 122.642H166.509C166.329 122.642 166.155 122.582 166.012 122.473C165.869 122.363 165.766 122.21 165.719 122.036L161.957 108.074C161.951 108.052 161.938 108.033 161.919 108.021C161.9 108.009 161.877 108.004 161.855 108.008C161.833 108.011 161.812 108.023 161.798 108.041C161.784 108.058 161.777 108.08 161.779 108.103L162.538 121.344C162.545 121.461 162.527 121.578 162.484 121.688C162.442 121.797 162.376 121.896 162.293 121.978C162.209 122.06 162.108 122.123 161.998 122.162C161.887 122.202 161.77 122.217 161.653 122.207L158.716 121.962C158.528 121.946 158.351 121.866 158.215 121.734C158.079 121.603 157.993 121.428 157.971 121.241L155.295 93.4367L156.33 94.0584L166.031 92.4102L169.934 121.715C169.95 121.83 169.94 121.948 169.906 122.06C169.873 122.171 169.816 122.275 169.739 122.362C169.662 122.45 169.567 122.52 169.461 122.569C169.355 122.617 169.239 122.642 169.123 122.642Z" fill="#2F2E41"/>
<path d="M158.54 96.3704C157.47 96.3618 156.421 96.0665 155.504 95.5152C155.362 95.4314 155.25 95.3068 155.18 95.1577C155.111 95.0086 155.088 94.8421 155.115 94.6798C155.456 92.589 157.24 81.8634 158.864 76.0163C159.525 73.6348 160.987 72.3521 163.209 72.2039C166.459 71.9906 169.349 74.5353 169.649 77.8833C170.18 83.7899 168.024 92.1819 167.073 95.5159C167.036 95.6446 166.968 95.7624 166.875 95.8588C166.782 95.9551 166.667 96.0272 166.54 96.0687C166.412 96.1101 166.277 96.1197 166.145 96.0965C166.013 96.0733 165.889 96.0181 165.784 95.9357L163.844 94.426C163.725 94.3348 163.577 94.2882 163.427 94.2945C163.277 94.3008 163.134 94.3594 163.023 94.4603C161.388 95.9193 159.835 96.3704 158.54 96.3704Z" fill="#3F3D56"/>
<path opacity="0.2" d="M164.953 80.7734L166.59 87.6907L164.225 93.5156L165.863 87.8728L164.953 80.7734Z" fill="black"/>
<path d="M166.046 69.8529C166.444 69.8603 166.839 69.7888 167.208 69.6425C167.371 69.5798 167.54 69.5283 167.702 69.4655C169.136 68.9113 170.08 67.3834 170.114 65.8457C170.148 64.308 169.353 62.8154 168.171 61.8318C166.989 60.8482 165.459 60.3431 163.926 60.2263C162.275 60.1004 160.416 60.5193 159.494 61.895C159.248 62.2612 159.076 62.7055 159.222 63.1477C159.265 63.2811 159.343 63.4007 159.448 63.4946C159.86 63.8614 160.27 63.5856 160.69 63.5613C161.268 63.5278 161.786 63.9954 161.972 64.5431C162.159 65.0909 162.077 65.6939 161.926 66.2525C161.811 66.5887 161.739 66.9379 161.711 67.2919C161.699 67.4695 161.732 67.6472 161.808 67.8082C161.884 67.9693 161.999 68.1083 162.144 68.2121C162.504 68.4303 162.978 68.304 163.339 68.0862C163.7 67.8684 164.012 67.5656 164.402 67.4053C164.791 67.245 165.315 67.2806 165.542 67.636C165.614 67.7653 165.663 67.9064 165.686 68.0526C165.89 68.9801 165.843 68.9254 166.046 69.8529Z" fill="#2F2E41"/>
<path d="M159.121 118.581L131.144 108.831C130.664 108.663 130.27 108.312 130.049 107.854C129.828 107.396 129.797 106.868 129.964 106.387L137.234 85.498C137.357 85.1461 137.614 84.8573 137.95 84.695C138.285 84.5328 138.671 84.5103 139.023 84.6325L167.946 94.7118C168.304 94.837 168.597 95.099 168.762 95.4405C168.927 95.782 168.95 96.1749 168.826 96.5332L161.563 117.4C161.396 117.88 161.044 118.274 160.586 118.496C160.129 118.717 159.602 118.748 159.121 118.581Z" fill="#E6E6E6"/>
<path d="M133.53 107.632L157.994 116.157C158.459 116.32 158.971 116.29 159.415 116.075C159.859 115.861 160.2 115.478 160.362 115.012L166.232 98.1433C166.395 97.6772 166.365 97.1656 166.15 96.7212C165.936 96.2767 165.553 95.9359 165.088 95.7735L140.624 87.248C140.158 87.0857 139.647 87.1152 139.202 87.33C138.758 87.5448 138.418 87.9274 138.255 88.3936L132.385 105.262C132.304 105.493 132.27 105.737 132.284 105.981C132.298 106.225 132.36 106.464 132.467 106.684C132.573 106.904 132.722 107.101 132.904 107.264C133.086 107.426 133.299 107.552 133.53 107.632Z" fill="white"/>
<path d="M139.675 95.7799L138.463 95.3577C138.397 95.3348 138.344 95.2866 138.313 95.224C138.283 95.1613 138.279 95.0892 138.302 95.0234L138.724 93.811C138.747 93.7453 138.795 93.6913 138.857 93.661C138.92 93.6307 138.992 93.6265 139.058 93.6494L140.269 94.0716C140.335 94.0946 140.389 94.1427 140.419 94.2053C140.449 94.268 140.454 94.3402 140.431 94.4059L140.009 95.6183C139.986 95.6841 139.938 95.738 139.875 95.7683C139.813 95.7986 139.74 95.8028 139.675 95.7799Z" fill="#0046EA"/>
<path d="M138.581 98.9205L137.369 98.4983C137.303 98.4753 137.249 98.4272 137.219 98.3645C137.189 98.3019 137.185 98.2297 137.208 98.1639L137.629 96.9516C137.652 96.8858 137.7 96.8319 137.763 96.8016C137.826 96.7713 137.898 96.7671 137.964 96.7899L139.175 97.2122C139.241 97.2351 139.295 97.2832 139.325 97.3459C139.355 97.4086 139.359 97.4807 139.337 97.5465L138.915 98.7589C138.892 98.8246 138.844 98.8785 138.781 98.9088C138.718 98.9391 138.646 98.9433 138.581 98.9205Z" fill="#3F3D56"/>
<path d="M137.487 102.061L136.276 101.639C136.21 101.616 136.156 101.567 136.126 101.505C136.096 101.442 136.091 101.37 136.114 101.304L136.536 100.092C136.559 100.026 136.607 99.9725 136.67 99.9422C136.732 99.9119 136.805 99.9077 136.87 99.9305L138.082 100.352C138.148 100.375 138.201 100.424 138.232 100.486C138.262 100.549 138.266 100.621 138.243 100.687L137.821 101.899C137.799 101.965 137.75 102.019 137.688 102.049C137.625 102.079 137.553 102.084 137.487 102.061Z" fill="#CCCCCC"/>
<path d="M147.815 97.9378L141.977 95.9034C141.945 95.8922 141.915 95.8746 141.889 95.8516C141.863 95.8287 141.842 95.8009 141.827 95.7698C141.812 95.7387 141.803 95.705 141.801 95.6705C141.799 95.636 141.804 95.6015 141.815 95.5689C141.827 95.5362 141.844 95.5062 141.867 95.4804C141.89 95.4546 141.918 95.4336 141.949 95.4186C141.98 95.4037 142.014 95.3949 142.048 95.393C142.083 95.3911 142.117 95.396 142.15 95.4075L147.988 97.4418C148.02 97.4531 148.05 97.4707 148.076 97.4936C148.102 97.5165 148.123 97.5443 148.138 97.5754C148.153 97.6065 148.162 97.6403 148.164 97.6747C148.166 97.7092 148.161 97.7438 148.15 97.7764C148.138 97.809 148.121 97.8391 148.098 97.8648C148.075 97.8906 148.047 97.9116 148.016 97.9266C147.985 97.9416 147.951 97.9503 147.917 97.9522C147.882 97.9541 147.848 97.9492 147.815 97.9378Z" fill="#CCCCCC"/>
<path d="M146.723 101.078L140.885 99.0438C140.82 99.0209 140.766 98.9728 140.735 98.9101C140.705 98.8474 140.701 98.7752 140.724 98.7095C140.747 98.6437 140.795 98.5897 140.857 98.5594C140.92 98.5291 140.992 98.5249 141.058 98.5479L146.895 100.582C146.928 100.593 146.958 100.611 146.984 100.634C147.01 100.657 147.031 100.685 147.046 100.716C147.061 100.747 147.07 100.781 147.072 100.815C147.074 100.849 147.069 100.884 147.057 100.917C147.046 100.949 147.028 100.979 147.005 101.005C146.982 101.031 146.955 101.052 146.924 101.067C146.893 101.082 146.859 101.091 146.824 101.092C146.79 101.094 146.755 101.089 146.723 101.078Z" fill="#CCCCCC"/>
<path d="M145.629 104.219L139.791 102.185C139.725 102.162 139.671 102.114 139.641 102.051C139.611 101.988 139.607 101.916 139.63 101.851C139.652 101.785 139.701 101.731 139.763 101.7C139.826 101.67 139.898 101.666 139.964 101.689L145.801 103.723C145.867 103.746 145.921 103.794 145.951 103.857C145.982 103.92 145.986 103.992 145.963 104.058C145.94 104.123 145.892 104.177 145.829 104.208C145.767 104.238 145.694 104.242 145.629 104.219Z" fill="#CCCCCC"/>
<path d="M161.163 105.922C161.206 105.82 161.246 105.716 161.283 105.61C161.763 104.232 161.675 102.719 161.041 101.405C160.406 100.09 159.275 99.0817 157.897 98.6016L155.979 104.115L161.163 105.922Z" fill="#0046EA"/>
<path d="M155.421 104.451L157.339 98.9371C156.325 98.5837 155.23 98.535 154.189 98.797C153.147 99.0589 152.205 99.6202 151.479 100.412C150.753 101.203 150.274 102.19 150.101 103.25C149.928 104.311 150.069 105.399 150.507 106.38C150.945 107.361 151.66 108.192 152.564 108.771C153.469 109.351 154.523 109.652 155.596 109.639C156.67 109.626 157.717 109.299 158.607 108.698C159.497 108.097 160.192 107.249 160.605 106.258L155.421 104.451Z" fill="#3F3D56"/>
<path d="M162.289 96.5416C162.267 96.2749 162.304 96.0067 162.397 95.7559C162.49 95.505 162.637 95.2775 162.828 95.0896C163.018 94.9017 163.247 94.758 163.499 94.6684C163.751 94.5786 164.02 94.5454 164.286 94.5708L166.992 88.6562L168.782 91.5229L165.938 96.7001C165.866 97.1447 165.633 97.5473 165.283 97.8316C164.934 98.116 164.493 98.2624 164.043 98.2428C163.593 98.2233 163.166 98.0393 162.843 97.7257C162.52 97.4122 162.322 96.9909 162.289 96.5416Z" fill="#FFB8B8"/>
<path d="M166.975 94.4584C166.808 94.4584 166.645 94.4076 166.508 94.3128L165.231 93.4278C165.093 93.3317 164.988 93.1954 164.929 93.0374C164.871 92.8795 164.863 92.7075 164.906 92.5446L166.407 86.8688L164.592 76.3305C164.59 75.9837 164.656 75.6399 164.787 75.3187C164.918 74.9976 165.11 74.7054 165.354 74.4588C165.598 74.2123 165.888 74.0162 166.207 73.8818C166.527 73.7475 166.87 73.6775 167.216 73.6758C167.563 73.6741 167.906 73.7408 168.227 73.8721C168.548 74.0033 168.84 74.1966 169.086 74.4408C169.332 74.6849 169.527 74.9753 169.661 75.2951C169.795 75.615 169.865 75.9582 169.866 76.305L171.353 82.8806C171.805 84.8762 171.517 86.9682 170.543 88.7672L167.694 94.0295C167.639 94.1306 167.564 94.2191 167.473 94.2891C167.381 94.3592 167.276 94.4092 167.165 94.436C167.102 94.4509 167.039 94.4584 166.975 94.4584Z" fill="#3F3D56"/>
<path d="M180.817 127.001H146.254C146.206 127.001 146.16 126.982 146.126 126.948C146.092 126.914 146.072 126.867 146.072 126.819C146.072 126.771 146.092 126.724 146.126 126.69C146.16 126.656 146.206 126.637 146.254 126.637H180.817C180.865 126.637 180.912 126.656 180.946 126.69C180.98 126.724 180.999 126.771 180.999 126.819C180.999 126.867 180.98 126.914 180.946 126.948C180.912 126.982 180.865 127.001 180.817 127.001Z" fill="#CCCCCC"/>
<path d="M89.2347 124.735H91.4649L92.5258 116.127H89.2344L89.2347 124.735Z" fill="#A0616A"/>
<path d="M88.666 124.007L93.058 124.006C93.4256 124.006 93.7897 124.079 94.1293 124.22C94.4689 124.36 94.7774 124.567 95.0373 124.827C95.2972 125.087 95.5034 125.396 95.6441 125.735C95.7847 126.075 95.8571 126.439 95.8571 126.807V126.898H88.6661L88.666 124.007Z" fill="#2F2E41"/>
<path d="M80.3206 124.735H82.5508L83.6117 116.127H80.3202L80.3206 124.735Z" fill="#A0616A"/>
<path d="M79.752 124.007L84.144 124.006C84.5115 124.006 84.8756 124.079 85.2152 124.22C85.5548 124.36 85.8634 124.567 86.1233 124.827C86.3832 125.087 86.5893 125.396 86.73 125.735C86.8706 126.075 86.9431 126.439 86.9431 126.807V126.898H79.7521L79.752 124.007Z" fill="#2F2E41"/>
<path d="M89.6788 65.141C92.1464 65.141 94.1467 63.1393 94.1467 60.6701C94.1467 58.2009 92.1464 56.1992 89.6788 56.1992C87.2113 56.1992 85.2109 58.2009 85.2109 60.6701C85.2109 63.1393 87.2113 65.141 89.6788 65.141Z" fill="#A0616A"/>
<path d="M92.6838 122.877H88.5452C88.4369 122.877 88.3296 122.856 88.2297 122.814C88.1297 122.772 88.039 122.711 87.9629 122.634C87.8868 122.557 87.8267 122.465 87.7861 122.365C87.7456 122.264 87.7254 122.157 87.7267 122.048L87.9672 102.383C87.9681 102.313 87.9421 102.246 87.8948 102.194C87.8474 102.143 87.7822 102.112 87.7126 102.107C87.6429 102.103 87.5741 102.125 87.5203 102.169C87.4666 102.214 87.4319 102.277 87.4234 102.347L85.0148 122.157C84.9905 122.356 84.8945 122.539 84.7448 122.671C84.5951 122.804 84.4022 122.877 84.2022 122.877H80.0239C79.911 122.877 79.7994 122.854 79.696 122.809C79.5925 122.764 79.4996 122.697 79.4229 122.614C79.3463 122.532 79.2876 122.434 79.2506 122.327C79.2136 122.22 79.199 122.107 79.2078 121.994L81.9669 86.6667L82.0419 86.6585L95.2538 85.2307L93.5015 122.097C93.4917 122.308 93.4013 122.506 93.249 122.651C93.0967 122.797 92.8942 122.878 92.6838 122.877Z" fill="#2F2E41"/>
<path d="M82.1277 88.8349C81.9154 88.8344 81.7117 88.7514 81.5595 88.6033C81.4073 88.4553 81.3185 88.2538 81.312 88.0415C81.2399 85.8077 81.1163 78.0785 82.553 72.4041C82.9451 70.8539 83.8252 69.4712 85.0633 68.4603C86.3013 67.4493 87.8316 66.8639 89.4279 66.7904C90.999 66.7046 92.5573 67.116 93.8816 67.9663C95.2059 68.8165 96.2291 70.0626 96.8059 71.5275C99.2208 77.6625 101.502 85.2247 98.6579 86.4107C94.9296 87.9651 85.1013 88.658 82.1779 88.8333C82.1611 88.8344 82.1443 88.8349 82.1277 88.8349Z" fill="#3F3D56"/>
<path d="M99.203 56.1522C99.2732 56.2244 99.349 56.291 99.4297 56.3512L98.9607 65.3666L97.0098 66.366L98.1323 69.5093L101.758 68.0758C102.05 67.96 102.298 67.7523 102.463 67.4837C102.628 67.2152 102.701 66.9005 102.672 66.5867L101.722 56.3602C102.033 56.1282 102.266 55.807 102.39 55.4393C102.513 55.0716 102.523 54.6749 102.416 54.3019C102.309 53.9289 102.091 53.5973 101.791 53.3513C101.491 53.1052 101.124 52.9563 100.737 52.9244C100.351 52.8925 99.9639 52.9791 99.6278 53.1726C99.2917 53.3662 99.0225 53.6576 98.8559 54.008C98.6894 54.3584 98.6334 54.7512 98.6954 55.1343C98.7574 55.5173 98.9344 55.8724 99.203 56.1522Z" fill="#A0616A"/>
<path d="M98.9985 65.7017L100.371 69.6043C100.41 69.7153 100.425 69.8335 100.414 69.9507C100.403 70.0679 100.367 70.1814 100.309 70.2836C100.25 70.3857 100.171 70.474 100.075 70.5425C99.9792 70.6109 99.8698 70.658 99.7544 70.6804L95.7077 71.4645C95.1388 71.6613 94.5152 71.6243 93.9736 71.3616C93.4319 71.0989 93.0165 70.632 92.8183 70.0632C92.6202 69.4945 92.6556 68.8704 92.9166 68.3277C93.1777 67.785 93.6432 67.368 94.211 67.1683L97.8444 65.2491C97.9485 65.1942 98.0631 65.1623 98.1806 65.1558C98.298 65.1492 98.4155 65.168 98.525 65.211C98.6346 65.2539 98.7335 65.32 98.8152 65.4047C98.8969 65.4894 98.9595 65.5907 98.9985 65.7017Z" fill="#3F3D56"/>
<path d="M79.8502 56.1522C79.78 56.2244 79.7042 56.291 79.6235 56.3512L80.0925 65.3666L82.0434 66.366L80.9208 69.5093L77.2954 68.0758C77.0025 67.96 76.7551 67.7523 76.5903 67.4837C76.4254 67.2152 76.3521 66.9005 76.3812 66.5867L77.331 56.3602C77.0202 56.1282 76.7873 55.807 76.6634 55.4393C76.5395 55.0716 76.5305 54.6749 76.6374 54.3019C76.7443 53.9289 76.9621 53.5973 77.262 53.3513C77.5618 53.1052 77.9294 52.9563 78.3158 52.9244C78.7023 52.8925 79.0893 52.9791 79.4254 53.1726C79.7615 53.3662 80.0307 53.6576 80.1972 54.008C80.3638 54.3584 80.4198 54.7512 80.3578 55.1343C80.2958 55.5173 80.1188 55.8724 79.8502 56.1522Z" fill="#A0616A"/>
<path d="M80.529 65.2109C80.6385 65.1679 80.756 65.149 80.8734 65.1556C80.9909 65.1622 81.1055 65.194 81.2095 65.249L84.8429 67.1682C85.4108 67.3679 85.8762 67.7849 86.1373 68.3276C86.3984 68.8703 86.4337 69.4944 86.2356 70.0632C86.0375 70.6319 85.622 71.0988 85.0804 71.3615C84.5388 71.6242 83.9151 71.6612 83.3462 71.4644L79.2996 70.6803C79.1841 70.6579 79.0748 70.6109 78.9791 70.5424C78.8834 70.4739 78.8036 70.3856 78.7451 70.2835C78.6866 70.1814 78.6508 70.0678 78.6401 69.9506C78.6294 69.8334 78.644 69.7152 78.6831 69.6042L80.0555 65.7016C80.0944 65.5906 80.1569 65.4892 80.2387 65.4045C80.3204 65.3198 80.4194 65.2538 80.529 65.2109Z" fill="#3F3D56"/>
<path d="M91.414 61.4322C91.3905 60.8618 91.5336 60.297 91.8256 59.8067C92.1177 59.3164 92.5461 58.9218 93.0586 58.6712C94.4167 57.9696 95.2699 56.4731 94.896 55.1066C94.4175 53.3575 92.0385 52.2231 90.1109 52.8249C89.5892 53.0102 89.0861 53.2442 88.6081 53.5237L87.3488 54.1993C86.8108 54.4688 86.2921 54.7752 85.7963 55.1163C85.0538 55.6639 84.4718 56.4009 84.1112 57.2504C83.7506 58.0999 83.6245 59.0307 83.7462 59.9456C83.9942 61.7238 85.1579 63.3546 86.7509 64.4711C87.3601 64.9267 88.0637 65.2397 88.8099 65.3869C89.5735 65.5129 90.4235 65.3697 90.9818 64.8946C91.8543 64.152 91.7641 62.9085 91.4819 61.8699C91.4446 61.7266 91.4219 61.58 91.414 61.4322Z" fill="#2F2E41"/>
<path d="M106.598 127.001H72.0355C71.9872 127.001 71.9409 126.982 71.9068 126.948C71.8727 126.914 71.8535 126.867 71.8535 126.819C71.8535 126.771 71.8727 126.724 71.9068 126.69C71.9409 126.656 71.9872 126.637 72.0355 126.637H106.598C106.646 126.637 106.692 126.656 106.727 126.69C106.761 126.724 106.78 126.771 106.78 126.819C106.78 126.867 106.761 126.914 106.727 126.948C106.692 126.982 106.646 127.001 106.598 127.001Z" fill="#CCCCCC"/>
<path d="M50.191 93.7922L21.6717 105.5C21.1819 105.701 20.6327 105.698 20.1445 105.494C19.6563 105.29 19.269 104.9 19.0677 104.41L10.3375 83.1157C10.1907 82.7566 10.1923 82.354 10.3419 81.9961C10.4914 81.6382 10.7768 81.3543 11.1352 81.2066L40.6186 69.103C40.9837 68.9537 41.393 68.9553 41.7568 69.1076C42.1207 69.2598 42.4093 69.5503 42.5594 69.9152L51.28 91.1864C51.4803 91.6765 51.4781 92.2261 51.2739 92.7147C51.0698 93.2032 50.6803 93.5907 50.191 93.7922Z" fill="#E6E6E6"/>
<path d="M22.7039 102.917L47.642 92.6796C48.1169 92.4846 48.4949 92.1089 48.693 91.635C48.891 91.1611 48.8928 90.628 48.698 90.1528L41.6484 72.9575C41.552 72.7222 41.4101 72.5082 41.231 72.3278C41.0519 72.1473 40.8391 72.004 40.6046 71.9058C40.3701 71.8077 40.1186 71.7568 39.8644 71.7559C39.6103 71.755 39.3584 71.8043 39.1233 71.9008L14.1852 82.1384C13.95 82.235 13.7362 82.3769 13.5559 82.5561C13.3755 82.7354 13.2323 82.9484 13.1342 83.183C13.0361 83.4176 12.9852 83.6693 12.9844 83.9237C12.9835 84.178 13.0327 84.43 13.1292 84.6653L20.1788 101.861C20.2752 102.096 20.4171 102.31 20.5962 102.49C20.7753 102.671 20.9881 102.814 21.2226 102.912C21.4571 103.01 21.7086 103.061 21.9628 103.062C22.2169 103.063 22.4688 103.014 22.7039 102.917Z" fill="white"/>
<path d="M41.5112 77.6465L41.1445 77.797L41.1696 77.8582L41.5362 77.7077L41.5112 77.6465Z" fill="#E6E6E6"/>
<path d="M40.4299 78.1628L39.6892 78.4668L39.6641 78.4057L40.4048 78.1016L40.4299 78.1628ZM38.9485 78.7709L38.2078 79.075L38.1828 79.0138L38.9234 78.7098L38.9485 78.7709ZM37.4671 79.3791L36.7264 79.6831L36.7014 79.622L37.4421 79.3179L37.4671 79.3791ZM35.9857 79.9872L35.2451 80.2913L35.22 80.2301L35.9607 79.9261L35.9857 79.9872ZM34.5044 80.5953L33.7637 80.8994L33.7386 80.8383L34.4793 80.5342L34.5044 80.5953ZM33.023 81.2035L32.2823 81.5076L32.2572 81.4464L32.9979 81.1423L33.023 81.2035ZM31.5416 81.8116L30.8009 82.1157L30.7758 82.0545L31.5165 81.7505L31.5416 81.8116ZM30.0602 82.4198L29.3195 82.7238L29.2945 82.6627L30.0351 82.3586L30.0602 82.4198ZM28.5788 83.0279L27.8381 83.332L27.8131 83.2708L28.5538 82.9668L28.5788 83.0279ZM27.0974 83.636L26.3568 83.9401L26.3317 83.879L27.0724 83.5749L27.0974 83.636ZM25.6161 84.2442L24.8754 84.5483L24.8503 84.4871L25.591 84.183L25.6161 84.2442ZM24.1347 84.8523L23.394 85.1564L23.3689 85.0952L24.1096 84.7912L24.1347 84.8523ZM22.6533 85.4605L21.9126 85.7645L21.8875 85.7034L22.6282 85.3993L22.6533 85.4605ZM21.1719 86.0686L20.4312 86.3727L20.4061 86.3115L21.1468 86.0075L21.1719 86.0686ZM19.6905 86.6768L18.9498 86.9808L18.9248 86.9197L19.6655 86.6156L19.6905 86.6768ZM18.2092 87.2849L17.4685 87.589L17.4434 87.5278L18.1841 87.2237L18.2092 87.2849Z" fill="#E6E6E6"/>
<path d="M16.7025 87.832L16.3359 87.9826L16.361 88.0437L16.7276 87.8932L16.7025 87.832Z" fill="#E6E6E6"/>
<path d="M31.8041 88.2754L31.4375 88.4259L31.4625 88.4871L31.8292 88.3365L31.8041 88.2754Z" fill="#E6E6E6"/>
<path d="M30.7341 88.7877L30.0044 89.0873L29.9794 89.0261L30.7091 88.7266L30.7341 88.7877ZM29.2748 89.3868L28.5451 89.6864L28.52 89.6252L29.2497 89.3257L29.2748 89.3868ZM27.8154 89.9859L27.0857 90.2855L27.0606 90.2243L27.7903 89.9248L27.8154 89.9859ZM26.356 90.585L25.6263 90.8846L25.6012 90.8234L26.3309 90.5239L26.356 90.585ZM24.8966 91.1842L24.1669 91.4837L24.1418 91.4226L24.8716 91.123L24.8966 91.1842ZM23.4372 91.7833L22.7075 92.0828L22.6825 92.0217L23.4122 91.7221L23.4372 91.7833ZM21.9779 92.3824L21.2482 92.6819L21.2231 92.6208L21.9528 92.3212L21.9779 92.3824ZM20.5185 92.9815L19.7888 93.281L19.7637 93.2199L20.4934 92.9203L20.5185 92.9815Z" fill="#E6E6E6"/>
<path d="M19.0326 93.5195L18.666 93.67L18.6911 93.7311L19.0577 93.5806L19.0326 93.5195Z" fill="#E6E6E6"/>
<path d="M25.7572 93.9004L25.3906 94.051L25.4156 94.1121L25.7823 93.9616L25.7572 93.9004Z" fill="#E6E6E6"/>
<path d="M24.6655 94.4205L23.9148 94.7287L23.8897 94.6676L24.6405 94.3594L24.6655 94.4205ZM23.164 95.0369L22.4133 95.3451L22.3882 95.284L23.139 94.9758L23.164 95.0369ZM21.6626 95.6533L20.9118 95.9615L20.8867 95.9004L21.6375 95.5922L21.6626 95.6533Z" fill="#E6E6E6"/>
<path d="M20.1362 96.2092L19.7695 96.3597L19.7946 96.4208L20.1612 96.2703L20.1362 96.2092Z" fill="#E6E6E6"/>
<path d="M27.64 98.4922L27.2734 98.6427L27.2985 98.7038L27.6651 98.5533L27.64 98.4922Z" fill="#E6E6E6"/>
<path d="M26.5481 99.0126L25.7973 99.3208L25.7723 99.2596L26.523 98.9514L26.5481 99.0126ZM25.0466 99.629L24.2958 99.9372L24.2708 99.876L25.0215 99.5678L25.0466 99.629ZM23.5451 100.245L22.7944 100.554L22.7693 100.492L23.52 100.184L23.5451 100.245Z" fill="#E6E6E6"/>
<path d="M22.0189 100.801L21.6523 100.951L21.6773 101.012L22.044 100.862L22.0189 100.801Z" fill="#E6E6E6"/>
<path d="M23.7637 100.211L44.8971 91.5353C45.4085 91.3246 45.8156 90.9196 46.029 90.4089C46.2424 89.8983 46.2446 89.3239 46.0353 88.8116L41.7654 78.3965L41.7241 78.4149L36.538 90.8234L32.6916 89.2143C32.6206 89.1844 32.5437 89.1713 32.4668 89.1761C32.39 89.1809 32.3152 89.2034 32.2485 89.2419C32.1484 89.3023 32.0709 89.3939 32.0281 89.5028L29.3101 96.0052L26.4978 94.8289C26.4371 94.8035 26.372 94.7903 26.3063 94.79C26.2405 94.7898 26.1753 94.8025 26.1144 94.8275C26.0536 94.8525 25.9982 94.8892 25.9516 94.9356C25.9049 94.982 25.8678 95.0372 25.8425 95.0979C25.8245 95.1421 24.0904 99.3994 23.7637 100.211Z" fill="#0046EA"/>
<path d="M23.6977 100.31L23.6367 100.284L25.8114 95.0804C25.869 94.9431 25.9786 94.8342 26.1163 94.7777C26.254 94.7211 26.4085 94.7216 26.5459 94.7789L29.3027 95.9325L32.0051 89.4659C32.0627 89.3285 32.1724 89.2196 32.3101 89.1631C32.4478 89.1066 32.6023 89.107 32.7397 89.1643L36.5305 90.7507L41.7433 78.2773L41.8042 78.3028L36.566 90.8372L32.7142 89.2253C32.6542 89.2002 32.5898 89.1871 32.5248 89.1869C32.4597 89.1867 32.3953 89.1993 32.3351 89.224C32.2749 89.2487 32.2202 89.285 32.174 89.3309C32.1278 89.3768 32.0912 89.4313 32.0661 89.4914L29.3381 96.019L26.5204 94.8399C26.3992 94.7893 26.2629 94.7889 26.1414 94.8388C26.0199 94.8887 25.9231 94.9848 25.8723 95.1059L23.6977 100.31Z" fill="#3F3D56"/>
<path d="M25.771 94.3941C26.0263 94.3941 26.2333 94.187 26.2333 93.9314C26.2333 93.6759 26.0263 93.4688 25.771 93.4688C25.5156 93.4688 25.3086 93.6759 25.3086 93.9314C25.3086 94.187 25.5156 94.3941 25.771 94.3941Z" fill="#3F3D56"/>
<path d="M31.8179 88.7691C32.0732 88.7691 32.2802 88.5619 32.2802 88.3064C32.2802 88.0509 32.0732 87.8438 31.8179 87.8438C31.5625 87.8438 31.3555 88.0509 31.3555 88.3064C31.3555 88.5619 31.5625 88.7691 31.8179 88.7691Z" fill="#3F3D56"/>
<path d="M41.2318 78.1245C41.4871 78.1245 41.6941 77.9174 41.6941 77.6619C41.6941 77.4063 41.4871 77.1992 41.2318 77.1992C40.9765 77.1992 40.7695 77.4063 40.7695 77.6619C40.7695 77.9174 40.9765 78.1245 41.2318 78.1245Z" fill="#3F3D56"/>
<path d="M15.3534 93.4072C15.5937 93.2875 15.8049 93.1165 15.9721 92.9063C16.1393 92.6961 16.2584 92.4518 16.321 92.1906C16.3836 91.9293 16.3882 91.6575 16.3345 91.3943C16.2808 91.1311 16.17 90.8829 16.0101 90.6671L17.3832 77.2324H14.4157L13.3244 90.3507C12.98 90.6436 12.755 91.0528 12.6919 91.5007C12.6288 91.9485 12.7321 92.404 12.9822 92.7808C13.2323 93.1575 13.6118 93.4294 14.0489 93.5448C14.4859 93.6603 14.95 93.6113 15.3534 93.4072Z" fill="#FFB8B8"/>
<path d="M18.0774 69.8186C20.3962 69.8186 22.2759 67.9376 22.2759 65.6173C22.2759 63.297 20.3962 61.416 18.0774 61.416C15.7587 61.416 13.8789 63.297 13.8789 65.6173C13.8789 67.9376 15.7587 69.8186 18.0774 69.8186Z" fill="#FFB8B8"/>
<path d="M18.8687 85.0566C18.7006 85.0566 18.5372 85.0014 18.4035 84.8994C18.2698 84.7975 18.1733 84.6545 18.1286 84.4924C17.7923 83.2694 16.9171 81.2017 15.5276 78.3464C15.214 77.7009 15.0404 76.9965 15.0181 76.2791C14.9957 75.5618 15.1252 74.8479 15.3981 74.1842C15.6709 73.5205 16.0808 72.922 16.601 72.428C17.1213 71.9339 17.74 71.5556 18.4166 71.3177C19.0578 71.0911 19.7379 70.9955 20.4167 71.0366C21.0955 71.0777 21.7591 71.2546 22.3684 71.5568C22.9776 71.8591 23.5201 72.2805 23.9637 72.7962C24.4073 73.3119 24.7431 73.9114 24.9511 74.5593C26.0282 77.9383 25.9762 81.5578 25.9038 82.957C25.8948 83.1256 25.8309 83.2865 25.7218 83.4152C25.6127 83.5438 25.4644 83.6332 25.2997 83.6695L19.0336 85.0388C18.9795 85.0507 18.9241 85.0567 18.8687 85.0566Z" fill="#FF6584"/>
<path d="M24.9358 124.95H27.0314L28.0285 116.861H24.9355L24.9358 124.95Z" fill="#FFB8B8"/>
<path d="M31.0749 126.898H24.4884L24.4883 124.352H28.53C28.8642 124.352 29.1951 124.418 29.5038 124.546C29.8126 124.674 30.0931 124.861 30.3294 125.098C30.5658 125.334 30.7532 125.615 30.8811 125.924C31.009 126.233 31.0749 126.564 31.0749 126.898Z" fill="#2F2E41"/>
<path d="M3.98047 122.233L5.81703 123.244L10.5853 116.636L7.87497 115.145L3.98047 122.233Z" fill="#FFB8B8"/>
<path d="M8.4221 126.898L2.65039 123.723L3.87637 121.492L7.41811 123.44C8.00954 123.766 8.44758 124.313 8.63586 124.961C8.82415 125.61 8.74726 126.307 8.4221 126.898Z" fill="#2F2E41"/>
<path d="M24.8379 120.46C24.6511 120.46 24.4708 120.392 24.3306 120.269C24.1903 120.145 24.0998 119.975 24.0758 119.79L21.4548 99.5799C21.4433 99.4905 21.4037 99.4071 21.3419 99.3415C21.2801 99.2759 21.1992 99.2316 21.1107 99.2148C21.0222 99.198 20.9306 99.2096 20.8491 99.248C20.7676 99.2863 20.7003 99.3495 20.6568 99.4284L9.73388 119.259C9.64375 119.421 9.49855 119.545 9.32468 119.609C9.15081 119.673 8.95981 119.672 8.78641 119.607L6.40554 118.699C6.30978 118.663 6.22227 118.607 6.14815 118.536C6.07404 118.466 6.01481 118.381 5.97395 118.287C5.93309 118.193 5.91142 118.091 5.91021 117.989C5.909 117.886 5.92829 117.785 5.96692 117.69L13.5335 99.0897C13.5527 99.0424 13.5657 98.9929 13.5722 98.9423C14.597 91.0048 17.2046 86.9683 17.9793 85.9202C18.0359 85.8432 18.0731 85.7537 18.0879 85.6592C18.1026 85.5647 18.0945 85.4681 18.0641 85.3775L17.9576 85.0578C17.915 84.9309 17.9063 84.7951 17.9323 84.6637C17.9582 84.5324 18.018 84.4102 18.1056 84.3091C20.8973 81.1272 25.7631 82.8634 25.8119 82.8813L25.8363 82.8903L25.8516 82.9112C31.3076 90.3987 29.2903 114.718 28.8305 119.517C28.8134 119.697 28.733 119.866 28.6037 119.992C28.4744 120.119 28.3044 120.196 28.1239 120.21L24.8976 120.458C24.8775 120.46 24.8576 120.46 24.8379 120.46Z" fill="#2F2E41"/>
<path d="M34.3998 70.4969C34.3788 70.5892 34.3652 70.683 34.3589 70.7774L27.0157 75.0165L25.2309 73.9883L23.3281 76.481L26.3111 78.6085C26.5521 78.7804 26.8423 78.8694 27.1381 78.8622C27.4339 78.855 27.7195 78.7519 27.9518 78.5685L35.5239 72.5908C35.8656 72.7174 36.2377 72.7369 36.5908 72.6466C36.9439 72.5564 37.2611 72.3608 37.5003 72.0857C37.7395 71.8107 37.8894 71.4693 37.93 71.1069C37.9706 70.7445 37.9 70.3784 37.7275 70.0572C37.5551 69.736 37.289 69.4749 36.9647 69.3087C36.6404 69.1425 36.2732 69.079 35.9119 69.1268C35.5507 69.1745 35.2125 69.3311 34.9424 69.5759C34.6723 69.8206 34.483 70.1419 34.3998 70.4969Z" fill="#FFB8B8"/>
<path d="M26.7713 75.2171L24.398 78.2951C24.3305 78.3827 24.2449 78.4546 24.1471 78.5061C24.0492 78.5576 23.9415 78.5874 23.8311 78.5934C23.7207 78.5995 23.6103 78.5817 23.5075 78.5412C23.4046 78.5007 23.3117 78.4385 23.235 78.3588L20.5482 75.567C20.1024 75.2187 19.8128 74.7078 19.7429 74.1462C19.673 73.5846 19.8285 73.0181 20.1753 72.5711C20.5221 72.124 21.0319 71.8328 21.593 71.7613C22.154 71.6898 22.7205 71.8438 23.1682 72.1896L26.538 74.0752C26.6344 74.1292 26.7181 74.2034 26.7833 74.2927C26.8486 74.382 26.8938 74.4843 26.9159 74.5927C26.9381 74.701 26.9366 74.8129 26.9117 74.9207C26.8867 75.0284 26.8389 75.1295 26.7713 75.2171Z" fill="#FF6584"/>
<path d="M17.573 80.564L13.7498 79.8731C13.641 79.8535 13.5377 79.8106 13.447 79.7474C13.3563 79.6842 13.2802 79.6022 13.224 79.5069C13.1678 79.4117 13.1328 79.3054 13.1214 79.1954C13.1099 79.0854 13.1223 78.9742 13.1577 78.8694L14.3971 75.1973C14.5007 74.6409 14.8206 74.1483 15.2866 73.8276C15.7526 73.5068 16.3266 73.3841 16.8829 73.4863C17.4392 73.5885 17.9324 73.9073 18.2542 74.3728C18.5759 74.8382 18.7001 75.4124 18.5995 75.9693L18.4785 79.8308C18.475 79.9414 18.4478 80.0499 18.3986 80.1489C18.3493 80.248 18.2795 80.3353 18.1935 80.4049C18.1076 80.4744 18.0077 80.5247 17.9006 80.5521C17.7935 80.5796 17.6818 80.5836 17.573 80.564Z" fill="#FF6584"/>
<path d="M18.7424 64.6507C19.8215 65.3898 21.2384 66.1495 22.3405 65.3624C22.6853 65.0997 22.9357 64.7322 23.0544 64.3152C23.1731 63.8981 23.1535 63.454 22.9988 63.0489C22.471 61.5388 21.0211 60.8739 19.6346 60.3643C17.8321 59.7018 15.8695 59.1747 14.0087 59.6492C12.148 60.1236 10.5035 61.9263 10.8394 63.8182C11.1095 65.3396 12.5436 66.6056 12.3401 68.1374C12.1352 69.679 10.4026 70.4903 8.87308 70.7658C7.34355 71.0413 5.63197 71.1299 4.53276 72.2292C3.13052 73.6317 3.48068 76.1384 4.80014 77.6191C6.11959 79.0998 8.11072 79.771 10.0402 80.2273C12.5965 80.8319 15.3614 81.1496 17.7893 80.1463C20.2172 79.1429 22.1065 76.4423 21.4032 73.9097C21.1061 72.84 20.4063 71.9359 19.7299 71.0556C19.0536 70.1755 18.3687 69.2551 18.1107 68.1752C17.8957 67.2754 18.0548 66.2306 18.6512 65.5556C18.7596 65.4374 18.8279 65.2879 18.8462 65.1285C18.8644 64.9691 18.8317 64.8081 18.7528 64.6685L18.7424 64.6507Z" fill="#2F2E41"/>
<path d="M34.7447 127.001H0.18191C0.133664 127.001 0.0873946 126.982 0.0532799 126.948C0.0191653 126.914 0 126.867 0 126.819C0 126.771 0.0191653 126.724 0.0532799 126.69C0.0873946 126.656 0.133664 126.637 0.18191 126.637H34.7447C34.793 126.637 34.8392 126.656 34.8734 126.69C34.9075 126.724 34.9266 126.771 34.9266 126.819C34.9266 126.867 34.9075 126.914 34.8734 126.948C34.8392 126.982 34.793 127.001 34.7447 127.001Z" fill="#CCCCCC"/>
</g>
</g>
<defs>
<clipPath id="clip0_39_483">
<rect width="181" height="127" fill="white"/>
</clipPath>
</defs>
</svg>
