<svg width="158" height="83" viewBox="0 0 158 83" fill="none" xmlns="http://www.w3.org/2000/svg">
<g id="img" clip-path="url(#clip0_39_429)">
<g id="Clip path group">
<mask id="mask0_39_429" style="mask-type:luminance" maskUnits="userSpaceOnUse" x="0" y="0" width="158" height="83">
<g id="clip0_15_1544">
<path id="Vector" d="M158 0H0V83H158V0Z" fill="white"/>
</g>
</mask>
<g mask="url(#mask0_39_429)">
<g id="Group">
<path id="Vector_2" d="M153.539 44.5118C153.296 44.3711 153.087 44.1788 152.927 43.9483C152.766 43.7178 152.658 43.4548 152.61 43.1779C152.562 42.9009 152.575 42.6167 152.648 42.3452C152.721 42.0737 152.852 41.8216 153.033 41.6067L151.035 26.9473L155.196 27.1524L155.85 41.4511C156.189 41.7795 156.397 42.2216 156.434 42.6937C156.471 43.1657 156.334 43.6349 156.049 44.0123C155.764 44.3896 155.351 44.6489 154.888 44.741C154.426 44.833 153.945 44.7515 153.539 44.5118Z" fill="#A0616A"/>
<path id="Vector_3" d="M155.768 27.3477C155.683 27.4485 155.574 27.526 155.451 27.5732L151.711 29.0061C151.523 29.078 151.315 29.075 151.129 28.9975C150.944 28.9201 150.795 28.7743 150.713 28.5898L147.4 21.1157C147.082 20.4224 147.028 19.6362 147.248 18.9056C147.411 18.3841 147.71 17.9164 148.116 17.5516C148.521 17.1868 149.017 16.9386 149.551 16.833C149.962 16.7481 150.386 16.754 150.794 16.8505C151.283 16.96 151.737 17.1903 152.116 17.5203C152.494 17.8504 152.784 18.2699 152.96 18.7409L155.906 26.5578C155.955 26.6898 155.968 26.8326 155.944 26.9715C155.92 27.1104 155.859 27.2403 155.768 27.3477Z" fill="#CCCCCC"/>
<path id="Vector_4" d="M136.28 80.2932H133.693L132.754 70.2266L136.28 70.274V80.2932Z" fill="#A0616A"/>
<path id="Vector_5" d="M131.843 79.5508H136.833V82.705H128.701C128.701 81.8685 129.032 81.0662 129.621 80.4746C130.21 79.8831 131.01 79.5508 131.843 79.5508Z" fill="#2F2E41"/>
<path id="Vector_6" d="M148.31 80.293H145.723L144.492 70.2737H148.311L148.31 80.293Z" fill="#A0616A"/>
<path id="Vector_7" d="M143.875 79.5508H148.864V82.705H140.732C140.732 81.8685 141.063 81.0662 141.652 80.4746C142.242 79.8831 143.041 79.5508 143.874 79.5508H143.875Z" fill="#2F2E41"/>
<path id="Vector_8" d="M148.635 76.7285L144.571 76.4264C144.34 76.4093 144.123 76.3078 143.961 76.1412C143.799 75.9746 143.703 75.7543 143.692 75.5218L142.786 56.7217C142.777 56.5413 142.703 56.3704 142.578 56.2408C142.452 56.1113 142.284 56.0321 142.105 56.0181C141.926 56.0042 141.747 56.0564 141.604 56.1649C141.46 56.2735 141.36 56.431 141.324 56.6079L137.544 75.1277C137.497 75.3556 137.369 75.5584 137.184 75.6982C136.999 75.8379 136.769 75.9049 136.538 75.8866L132.864 75.5916C132.74 75.5816 132.619 75.5472 132.508 75.4902C132.397 75.4332 132.298 75.3549 132.217 75.2596C132.136 75.1643 132.075 75.0539 132.036 74.9348C131.998 74.8157 131.983 74.6901 131.993 74.5653C131.994 74.559 131.994 74.5528 131.995 74.5466L135.403 40.3331C135.416 40.1994 135.458 40.07 135.524 39.9535C135.591 39.8369 135.682 39.7358 135.79 39.6568C135.898 39.5778 136.022 39.5227 136.153 39.495C136.284 39.4674 136.419 39.4679 136.55 39.4964L149.51 42.3247C149.725 42.372 149.916 42.4923 150.053 42.6652C150.189 42.8381 150.261 43.0529 150.258 43.2734L149.654 75.7956C149.65 76.0449 149.548 76.2825 149.371 76.4574C149.194 76.6323 148.955 76.7306 148.707 76.7313C148.683 76.7311 148.659 76.7302 148.635 76.7285Z" fill="#2F2E41"/>
<path id="Vector_9" d="M145.079 11.7263C147.942 11.7263 150.263 9.39636 150.263 6.5223C150.263 3.64825 147.942 1.31836 145.079 1.31836C142.217 1.31836 139.896 3.64825 139.896 6.5223C139.896 9.39636 142.217 11.7263 145.079 11.7263Z" fill="#A0616A"/>
<path id="Vector_10" d="M137.037 42.9715C136.538 42.5228 136.143 41.971 135.877 41.3541C135.611 40.7372 135.482 40.0698 135.497 39.3979C135.497 31.9183 141.946 15.2072 142.148 14.6868C142.167 14.5612 142.337 14.5069 143.231 13.9015C144.125 13.296 145.412 13.2025 147.059 13.6248C147.227 13.6679 147.379 13.7562 147.5 13.8801C147.621 14.0041 147.706 14.159 147.745 14.328L148.052 14.7723C148.078 14.8851 148.131 14.99 148.206 15.0785C148.28 15.1671 148.374 15.2368 148.481 15.2821C149.809 15.8439 154.031 18.4345 152.592 28.1838C151.256 37.2403 150.713 42.5654 150.542 44.436C150.522 44.6579 150.425 44.8656 150.268 45.023C150.111 45.1804 149.904 45.2775 149.683 45.2974C149.032 45.3558 147.914 45.4338 146.584 45.4338C143.496 45.4329 139.263 45.0154 137.037 42.9715Z" fill="#CCCCCC"/>
<path id="Vector_11" d="M130.844 40.2004C130.721 39.9479 130.654 39.6714 130.649 39.3902C130.644 39.1091 130.7 38.8302 130.814 38.5732C130.927 38.3162 131.096 38.0874 131.307 37.9028C131.518 37.7182 131.767 37.5824 132.037 37.5049L138.515 24.2148L141.856 26.713L134.463 38.9516C134.563 39.4144 134.49 39.8979 134.258 40.3105C134.027 40.7231 133.652 41.036 133.206 41.1899C132.76 41.3439 132.274 41.3282 131.838 41.1458C131.403 40.9635 131.048 40.6271 130.844 40.2004Z" fill="#A0616A"/>
<path id="Vector_12" d="M142.221 27.1947C142.094 27.2308 141.961 27.2341 141.832 27.2044L137.931 26.3022C137.736 26.257 137.564 26.138 137.453 25.9699C137.342 25.8017 137.299 25.5972 137.334 25.3983L138.732 17.339C138.853 16.5853 139.244 15.9022 139.833 15.4185C140.257 15.0765 140.766 14.8558 141.305 14.7796C141.844 14.7035 142.393 14.7747 142.895 14.9857C143.283 15.145 143.632 15.3873 143.918 15.6957C144.263 16.0602 144.512 16.5054 144.643 16.991C144.774 17.4767 144.782 17.9874 144.667 18.477L142.774 26.6149C142.742 26.7523 142.673 26.8785 142.576 26.9805C142.479 27.0824 142.357 27.1564 142.221 27.1947Z" fill="#CCCCCC"/>
<path id="Vector_13" d="M143.867 11.2244C143.614 10.966 143.428 10.6502 143.324 10.3039C143.22 9.95758 143.2 9.59107 143.267 9.23563C143.448 8.28697 143.554 7.66561 143.575 7.43964C143.643 6.66686 142.865 6.04113 142.095 5.94076C142.065 5.93677 142.04 5.93431 142.02 5.9326C142.038 5.95157 142.06 5.97169 142.079 5.98952C142.225 6.12746 142.407 6.29916 142.364 6.47637C142.338 6.583 142.24 6.6587 142.067 6.70746C140.863 7.04575 139.935 6.73517 139.148 5.7294C138.926 5.44359 138.774 5.11006 138.703 4.75513C138.421 3.3663 139.173 2.18238 139.853 1.43389C140.413 0.816698 141.322 0.067828 142.469 0.00331943C143.36 -0.0465798 144.42 0.468349 144.737 1.39632C144.886 1.17395 145.085 0.989601 145.318 0.857876C145.551 0.726151 145.811 0.650667 146.078 0.637399C146.687 0.624153 147.286 0.791391 147.8 1.11818C150.314 2.56355 151.394 6.00679 150.159 8.63722C149.382 10.2919 147.699 11.5236 145.767 11.8518C145.646 11.8725 145.524 11.8829 145.401 11.8829C145.114 11.8824 144.83 11.8239 144.567 11.7109C144.303 11.5979 144.064 11.4327 143.865 11.2251L143.867 11.2244Z" fill="#2F2E41"/>
<path id="Vector_14" d="M68.7303 37.1049C68.6213 36.8451 68.4387 36.623 68.2053 36.4662C67.9718 36.3093 67.6977 36.2247 67.4168 36.2227H41.1985C40.8217 36.2229 40.4603 36.3733 40.1938 36.6408C39.9273 36.9083 39.7775 37.2711 39.7773 37.6495V70.9472C39.7775 71.3256 39.9273 71.6884 40.1938 71.9559C40.4603 72.2234 40.8217 72.3738 41.1985 72.374H67.4177C67.7945 72.3735 68.1557 72.223 68.4221 71.9556C68.6885 71.6881 68.8384 71.3255 68.8389 70.9472V37.6495C68.8396 37.4626 68.802 37.2774 68.7303 37.1049ZM68.5224 70.9472C68.522 71.2415 68.4054 71.5236 68.1982 71.7317C67.9909 71.9398 67.7099 72.0568 67.4168 72.0572H41.1985C40.9054 72.0571 40.6242 71.9402 40.4169 71.7321C40.2096 71.524 40.093 71.2418 40.0929 70.9474V37.6497C40.0933 37.3554 40.2099 37.0733 40.4172 36.8653C40.6245 36.6572 40.9054 36.5401 41.1985 36.5397H67.4177C67.6385 36.5406 67.8541 36.6074 68.0368 36.7318C68.2196 36.8562 68.3614 37.0324 68.4439 37.2379C68.46 37.2789 68.4739 37.3207 68.4855 37.3632C68.5106 37.4566 68.5233 37.5529 68.5233 37.6497L68.5224 70.9472Z" fill="#3F3D56"/>
<path id="Vector_15" d="M63.2576 44.0849H55.3603C55.1927 44.0849 55.032 44.0181 54.9136 43.8992C54.7951 43.7802 54.7285 43.6189 54.7285 43.4507C54.7285 43.2824 54.7951 43.1211 54.9136 43.0022C55.032 42.8832 55.1927 42.8164 55.3603 42.8164H63.2576C63.4252 42.8164 63.5859 42.8832 63.7044 43.0022C63.8229 43.1211 63.8894 43.2824 63.8894 43.4507C63.8894 43.6189 63.8229 43.7802 63.7044 43.8992C63.5859 44.0181 63.4252 44.0849 63.2576 44.0849Z" fill="#3F3D56"/>
<path id="Vector_16" d="M63.2576 47.4151H55.3603C55.1927 47.4151 55.032 47.3482 54.9136 47.2293C54.7951 47.1103 54.7285 46.949 54.7285 46.7808C54.7285 46.6126 54.7951 46.4512 54.9136 46.3323C55.032 46.2133 55.1927 46.1465 55.3603 46.1465H63.2576C63.4252 46.1465 63.5859 46.2133 63.7044 46.3323C63.8229 46.4512 63.8894 46.6126 63.8894 46.7808C63.8894 46.949 63.8229 47.1103 63.7044 47.2293C63.5859 47.3482 63.4252 47.4151 63.2576 47.4151Z" fill="#3F3D56"/>
<path id="Vector_17" d="M51.3083 49.3112H45.537C45.3485 49.311 45.1678 49.2357 45.0346 49.1019C44.9013 48.9682 44.8264 48.7868 44.8262 48.5976V41.7604C44.8264 41.5712 44.9013 41.3899 45.0346 41.2561C45.1678 41.1223 45.3485 41.0471 45.537 41.0469H51.3083C51.4967 41.0471 51.6774 41.1223 51.8107 41.2561C51.9439 41.3899 52.0189 41.5712 52.0191 41.7604V48.5976C52.0189 48.7868 51.9439 48.9682 51.8107 49.1019C51.6774 49.2357 51.4967 49.311 51.3083 49.3112Z" fill="#0046EA"/>
<path id="Vector_18" d="M63.2024 54.2334H45.3545C45.187 54.2334 45.0263 54.1665 44.9078 54.0476C44.7893 53.9287 44.7227 53.7673 44.7227 53.5991C44.7227 53.4309 44.7893 53.2696 44.9078 53.1506C45.0263 53.0317 45.187 52.9648 45.3545 52.9648H63.2024C63.2854 52.9648 63.3675 52.9812 63.4442 53.0131C63.5208 53.045 63.5905 53.0917 63.6492 53.1506C63.7078 53.2095 63.7544 53.2794 63.7861 53.3564C63.8179 53.4333 63.8342 53.5158 63.8342 53.5991C63.8342 53.6824 63.8179 53.7649 63.7861 53.8418C63.7544 53.9188 63.7078 53.9887 63.6492 54.0476C63.5905 54.1065 63.5208 54.1532 63.4442 54.1851C63.3675 54.217 63.2854 54.2334 63.2024 54.2334Z" fill="#CCCCCC"/>
<path id="Vector_19" d="M63.2024 57.5634H45.3545C45.187 57.5634 45.0263 57.4966 44.9078 57.3776C44.7893 57.2587 44.7227 57.0974 44.7227 56.9291C44.7227 56.7609 44.7893 56.5996 44.9078 56.4806C45.0263 56.3617 45.187 56.2949 45.3545 56.2949H63.2024C63.37 56.2949 63.5307 56.3617 63.6492 56.4806C63.7676 56.5996 63.8342 56.7609 63.8342 56.9291C63.8342 57.0974 63.7676 57.2587 63.6492 57.3776C63.5307 57.4966 63.37 57.5634 63.2024 57.5634Z" fill="#CCCCCC"/>
<path id="Vector_20" d="M63.2024 60.8915H45.3545C45.187 60.8915 45.0263 60.8247 44.9078 60.7057C44.7893 60.5868 44.7227 60.4255 44.7227 60.2573C44.7227 60.089 44.7893 59.9278 44.9078 59.8088C45.0263 59.6899 45.187 59.623 45.3545 59.623H63.2024C63.37 59.623 63.5307 59.6899 63.6492 59.8088C63.7676 59.9278 63.8342 60.089 63.8342 60.2573C63.8342 60.4255 63.7676 60.5868 63.6492 60.7057C63.5307 60.8247 63.37 60.8915 63.2024 60.8915Z" fill="#CCCCCC"/>
<path id="Vector_21" d="M63.2024 64.2216H45.3545C45.187 64.2216 45.0263 64.1548 44.9078 64.0359C44.7893 63.9169 44.7227 63.7556 44.7227 63.5874C44.7227 63.4192 44.7893 63.2578 44.9078 63.1389C45.0263 63.0199 45.187 62.9531 45.3545 62.9531H63.2024C63.37 62.9531 63.5307 63.0199 63.6492 63.1389C63.7676 63.2578 63.8342 63.4192 63.8342 63.5874C63.8342 63.7556 63.7676 63.9169 63.6492 64.0359C63.5307 64.1548 63.37 64.2216 63.2024 64.2216Z" fill="#CCCCCC"/>
<path id="Vector_22" d="M63.2024 67.5518H45.3545C45.187 67.5518 45.0263 67.4849 44.9078 67.366C44.7893 67.247 44.7227 67.0857 44.7227 66.9175C44.7227 66.7493 44.7893 66.5879 44.9078 66.469C45.0263 66.35 45.187 66.2832 45.3545 66.2832H63.2024C63.37 66.2832 63.5307 66.35 63.6492 66.469C63.7676 66.5879 63.8342 66.7493 63.8342 66.9175C63.8342 67.0857 63.7676 67.247 63.6492 67.366C63.5307 67.4849 63.37 67.5518 63.2024 67.5518Z" fill="#CCCCCC"/>
<path id="Vector_23" d="M120.957 83.0006H157.811C157.861 83.0006 157.909 82.9806 157.945 82.945C157.98 82.9094 158 82.8612 158 82.8108C158 82.7605 157.98 82.7123 157.945 82.6767C157.909 82.6411 157.861 82.6211 157.811 82.6211H120.957C120.907 82.6211 120.859 82.6411 120.824 82.6767C120.788 82.7123 120.768 82.7605 120.768 82.8108C120.768 82.8612 120.788 82.9094 120.824 82.945C120.859 82.9806 120.907 83.0006 120.957 83.0006Z" fill="#3F3D56"/>
<path id="Vector_24" d="M54.7516 28.2012C58.1191 28.2012 60.8489 25.4607 60.8489 22.0801C60.8489 18.6995 58.1191 15.959 54.7516 15.959C51.3841 15.959 48.6543 18.6995 48.6543 22.0801C48.6543 25.4607 51.3841 28.2012 54.7516 28.2012Z" fill="#0046EA"/>
<path id="Vector_25" d="M54.1463 24.4152C54.0091 24.4155 53.8756 24.3709 53.7658 24.2883L53.759 24.2832L52.3261 23.1827C52.2596 23.1317 52.2038 23.068 52.1619 22.9953C52.1199 22.9226 52.0927 22.8423 52.0817 22.759C52.0707 22.6758 52.0761 22.5911 52.0977 22.51C52.1193 22.4288 52.1567 22.3527 52.2076 22.286C52.2585 22.2194 52.322 22.1634 52.3945 22.1214C52.4669 22.0794 52.5469 22.0521 52.6299 22.0412C52.7129 22.0302 52.7972 22.0358 52.878 22.0575C52.9588 22.0793 53.0346 22.1169 53.1009 22.1681L54.0291 22.8826L56.2224 20.0101C56.3251 19.8756 56.4768 19.7875 56.6442 19.7653C56.8115 19.7431 56.9808 19.7886 57.1148 19.8917C57.2486 19.9949 57.3368 20.1475 57.3588 20.3155C57.3809 20.4835 57.3357 20.6534 57.2331 20.788L54.6533 24.1652C54.5936 24.243 54.5169 24.3059 54.4291 24.3492C54.3412 24.3924 54.2442 24.4155 54.1463 24.4152Z" fill="white"/>
<path id="Vector_26" d="M14.6084 19.2841C16.8903 19.2841 18.7402 17.427 18.7402 15.1362C18.7402 12.8454 16.8903 10.9883 14.6084 10.9883C12.3265 10.9883 10.4766 12.8454 10.4766 15.1362C10.4766 17.427 12.3265 19.2841 14.6084 19.2841Z" fill="#CCCCCC"/>
<path id="Vector_27" d="M14.1982 16.717C14.1052 16.7172 14.0148 16.687 13.9404 16.6311L13.9359 16.6277L12.9648 15.8813C12.8766 15.8105 12.8195 15.7079 12.8059 15.5954C12.7922 15.4829 12.823 15.3695 12.8916 15.2795C12.9603 15.1895 13.0613 15.1301 13.1731 15.1141C13.2849 15.098 13.3984 15.1266 13.4895 15.1937L14.1184 15.6779L15.6047 13.732C15.6743 13.6409 15.7771 13.5812 15.8905 13.5662C16.0039 13.5512 16.1186 13.582 16.2094 13.6518C16.3001 13.7218 16.3596 13.8253 16.3746 13.9391C16.3895 14.0529 16.3589 14.1681 16.2894 14.2593L14.5412 16.5482C14.5008 16.6009 14.4488 16.6436 14.3893 16.6729C14.3297 16.7023 14.2645 16.7172 14.1982 16.717Z" fill="white"/>
<path id="Vector_28" d="M26.22 24.8603C26.1342 24.6558 25.9906 24.4811 25.8069 24.3577C25.6232 24.2343 25.4076 24.1677 25.1866 24.166H4.55578C4.25924 24.1662 3.97489 24.2845 3.7652 24.495C3.55552 24.7055 3.43765 24.991 3.4375 25.2887V51.4892C3.43765 51.7869 3.55552 52.0724 3.7652 52.2829C3.97489 52.4934 4.25924 52.6117 4.55578 52.6118H25.1866C25.483 52.6114 25.7672 52.493 25.9769 52.2826C26.1865 52.0721 26.3044 51.7868 26.3048 51.4892V25.2887C26.3053 25.1416 26.2765 24.996 26.22 24.8603ZM26.0565 51.4894C26.0561 51.7207 25.9643 51.9425 25.8014 52.106C25.6384 52.2696 25.4176 52.3617 25.1871 52.3622H4.55578C4.32521 52.3622 4.10408 52.2702 3.94104 52.1065C3.778 51.9429 3.68641 51.7209 3.68641 51.4894V25.2887C3.68685 25.0574 3.7786 24.8356 3.94154 24.672C4.10448 24.5085 4.32535 24.4164 4.55578 24.4159H25.1866C25.3604 24.4166 25.5301 24.4694 25.674 24.5674C25.8178 24.6654 25.9293 24.8042 25.9941 24.9661C26.0068 24.9984 26.0177 25.0312 26.0268 25.0646C26.0466 25.1381 26.0567 25.2139 26.0567 25.29L26.0565 51.4894Z" fill="#CCCCCC"/>
<path id="Vector_29" d="M21.9143 30.3537H15.7002C15.5684 30.3537 15.4419 30.3011 15.3487 30.2075C15.2555 30.1139 15.2031 29.9869 15.2031 29.8546C15.2031 29.7222 15.2555 29.5953 15.3487 29.5017C15.4419 29.4081 15.5684 29.3555 15.7002 29.3555H21.9142C22.046 29.3555 22.1725 29.4081 22.2657 29.5017C22.3589 29.5953 22.4113 29.7222 22.4113 29.8546C22.4113 29.9869 22.3589 30.1139 22.2657 30.2075C22.1725 30.3011 22.0461 30.3537 21.9143 30.3537Z" fill="#CCCCCC"/>
<path id="Vector_30" d="M21.9143 32.9728H15.7002C15.5684 32.9728 15.4419 32.9202 15.3487 32.8266C15.2555 32.733 15.2031 32.6061 15.2031 32.4737C15.2031 32.3414 15.2555 32.2144 15.3487 32.1208C15.4419 32.0272 15.5684 31.9746 15.7002 31.9746H21.9142C22.046 31.9746 22.1725 32.0272 22.2657 32.1208C22.3589 32.2144 22.4113 32.3414 22.4113 32.4737C22.4113 32.6061 22.3589 32.733 22.2657 32.8266C22.1725 32.9202 22.0461 32.9728 21.9143 32.9728Z" fill="#CCCCCC"/>
<path id="Vector_31" d="M12.5105 34.4656H7.9694C7.82112 34.4654 7.67897 34.4062 7.57412 34.301C7.46928 34.1957 7.41031 34.053 7.41016 33.9042V28.5244C7.41031 28.3755 7.46928 28.2328 7.57412 28.1275C7.67897 28.0223 7.82112 27.9631 7.9694 27.9629H12.5105C12.6588 27.9631 12.8009 28.0223 12.9057 28.1276C13.0106 28.2328 13.0695 28.3755 13.0697 28.5244V33.9042C13.0696 34.053 13.0106 34.1957 12.9058 34.301C12.8009 34.4062 12.6588 34.4654 12.5105 34.4656Z" fill="#CCCCCC"/>
<path id="Vector_32" d="M21.8708 38.338H7.82723C7.69538 38.338 7.56893 38.2854 7.47569 38.1918C7.38246 38.0982 7.33008 37.9712 7.33008 37.8389C7.33008 37.7065 7.38246 37.5796 7.47569 37.486C7.56893 37.3924 7.69538 37.3398 7.82723 37.3398H21.8708C22.0027 37.3398 22.1291 37.3924 22.2224 37.486C22.3156 37.5796 22.368 37.7065 22.368 37.8389C22.368 37.9712 22.3156 38.0982 22.2224 38.1918C22.1291 38.2854 22.0027 38.338 21.8708 38.338Z" fill="#CCCCCC"/>
<path id="Vector_33" d="M21.8708 40.9591H7.82723C7.69538 40.9591 7.56893 40.9065 7.47569 40.8129C7.38246 40.7193 7.33008 40.5924 7.33008 40.46C7.33008 40.3277 7.38246 40.2007 7.47569 40.1071C7.56893 40.0135 7.69538 39.9609 7.82723 39.9609H21.8708C22.0027 39.9609 22.1291 40.0135 22.2224 40.1071C22.3156 40.2007 22.368 40.3277 22.368 40.46C22.368 40.5924 22.3156 40.7193 22.2224 40.8129C22.1291 40.9065 22.0027 40.9591 21.8708 40.9591Z" fill="#CCCCCC"/>
<path id="Vector_34" d="M21.8708 43.5783H7.82723C7.69538 43.5783 7.56893 43.5257 7.47569 43.4321C7.38246 43.3385 7.33008 43.2116 7.33008 43.0792C7.33008 42.9468 7.38246 42.8199 7.47569 42.7263C7.56893 42.6327 7.69538 42.5801 7.82723 42.5801H21.8708C22.0027 42.5801 22.1291 42.6327 22.2224 42.7263C22.3156 42.8199 22.368 42.9468 22.368 43.0792C22.368 43.2116 22.3156 43.3385 22.2224 43.4321C22.1291 43.5257 22.0027 43.5783 21.8708 43.5783Z" fill="#CCCCCC"/>
<path id="Vector_35" d="M21.8708 46.1994H7.82723C7.69538 46.1994 7.56893 46.1468 7.47569 46.0532C7.38246 45.9596 7.33008 45.8327 7.33008 45.7003C7.33008 45.568 7.38246 45.441 7.47569 45.3474C7.56893 45.2538 7.69538 45.2012 7.82723 45.2012H21.8708C22.0027 45.2012 22.1291 45.2538 22.2224 45.3474C22.3156 45.441 22.368 45.568 22.368 45.7003C22.368 45.8327 22.3156 45.9596 22.2224 46.0532C22.1291 46.1468 22.0027 46.1994 21.8708 46.1994Z" fill="#CCCCCC"/>
<path id="Vector_36" d="M21.8708 48.8185H7.82723C7.69538 48.8185 7.56893 48.7659 7.47569 48.6723C7.38246 48.5787 7.33008 48.4518 7.33008 48.3194C7.33008 48.1871 7.38246 48.0601 7.47569 47.9665C7.56893 47.8729 7.69538 47.8203 7.82723 47.8203H21.8708C22.0027 47.8203 22.1291 47.8729 22.2224 47.9665C22.3156 48.0601 22.368 48.1871 22.368 48.3194C22.368 48.4518 22.3156 48.5787 22.2224 48.6723C22.1291 48.7659 22.0027 48.8185 21.8708 48.8185Z" fill="#CCCCCC"/>
<path id="Vector_37" d="M0.149586 52.7225H29.1477C29.1872 52.7225 29.225 52.7067 29.2529 52.6787C29.2808 52.6507 29.2965 52.6128 29.2965 52.5732C29.2965 52.5336 29.2808 52.4956 29.2529 52.4676C29.225 52.4396 29.1872 52.4238 29.1477 52.4238H0.149586C0.130054 52.4237 0.11069 52.4275 0.0926019 52.4349C0.0745137 52.4423 0.0580554 52.4532 0.0441653 52.467C0.0302752 52.4808 0.0192275 52.4972 0.0116502 52.5152C0.00407285 52.5333 0.000113341 52.5527 2.39925e-06 52.5723C-0.000108542 52.5919 0.00362899 52.6114 0.0110013 52.6295C0.0183736 52.6477 0.0292382 52.6642 0.0429714 52.6781C0.0567046 52.6921 0.0730385 52.7032 0.0910418 52.7108C0.109045 52.7184 0.128364 52.7224 0.147896 52.7225H0.149586Z" fill="#CCCCCC"/>
<path id="Vector_38" d="M93.9853 19.2841C96.2672 19.2841 98.1171 17.427 98.1171 15.1362C98.1171 12.8454 96.2672 10.9883 93.9853 10.9883C91.7033 10.9883 89.8535 12.8454 89.8535 15.1362C89.8535 17.427 91.7033 19.2841 93.9853 19.2841Z" fill="#CCCCCC"/>
<path id="Vector_39" d="M93.5771 16.717C93.4842 16.7172 93.3937 16.687 93.3194 16.6311L93.3148 16.6277L92.3438 15.8813C92.2556 15.8105 92.1985 15.7079 92.1848 15.5954C92.1712 15.4829 92.2019 15.3695 92.2706 15.2795C92.3393 15.1895 92.4403 15.1301 92.5521 15.1141C92.6638 15.098 92.7774 15.1266 92.8684 15.1937L93.4974 15.6779L94.9836 13.732C95.0532 13.6409 95.156 13.5812 95.2694 13.5662C95.3828 13.5512 95.4975 13.582 95.5883 13.6518C95.679 13.7218 95.7386 13.8253 95.7535 13.9391C95.7685 14.0529 95.7379 14.1681 95.6684 14.2593L93.9202 16.5482C93.8797 16.6009 93.8277 16.6436 93.7682 16.6729C93.7087 16.7023 93.6434 16.7172 93.5771 16.717Z" fill="white"/>
<path id="Vector_40" d="M105.597 24.8603C105.511 24.6558 105.368 24.4811 105.184 24.3577C105 24.2343 104.785 24.1677 104.564 24.166H83.9327C83.6362 24.1662 83.3518 24.2845 83.1422 24.495C82.9325 24.7055 82.8146 24.991 82.8145 25.2887V51.4892C82.8146 51.7869 82.9325 52.0724 83.1422 52.2829C83.3518 52.4934 83.6362 52.6117 83.9327 52.6118H104.564C104.86 52.6114 105.144 52.493 105.354 52.2826C105.563 52.0721 105.681 51.7868 105.682 51.4892V25.2887C105.682 25.1416 105.653 24.996 105.597 24.8603ZM105.433 51.4894C105.433 51.7207 105.341 51.9425 105.178 52.106C105.015 52.2696 104.795 52.3617 104.564 52.3622H83.9327C83.8186 52.3622 83.7055 52.3396 83.6 52.2957C83.4946 52.2519 83.3987 52.1876 83.318 52.1065C83.2373 52.0255 83.1732 51.9293 83.1295 51.8234C83.0858 51.7175 83.0634 51.604 83.0634 51.4894V25.2887C83.0638 25.0574 83.1555 24.8356 83.3185 24.672C83.4814 24.5085 83.7023 24.4164 83.9327 24.4159H104.564C104.737 24.4166 104.907 24.4694 105.051 24.5674C105.195 24.6654 105.306 24.8042 105.371 24.9661C105.384 24.9984 105.395 25.0312 105.404 25.0646C105.424 25.1381 105.434 25.2139 105.434 25.29L105.433 51.4894Z" fill="#CCCCCC"/>
<path id="Vector_41" d="M101.291 30.3537H95.0773C94.9454 30.3537 94.819 30.3011 94.7257 30.2075C94.6325 30.1139 94.5801 29.9869 94.5801 29.8546C94.5801 29.7222 94.6325 29.5953 94.7257 29.5017C94.819 29.4081 94.9454 29.3555 95.0773 29.3555H101.291C101.423 29.3555 101.549 29.4081 101.642 29.5017C101.736 29.5953 101.788 29.7222 101.788 29.8546C101.788 29.9869 101.736 30.1139 101.642 30.2075C101.549 30.3011 101.423 30.3537 101.291 30.3537Z" fill="#CCCCCC"/>
<path id="Vector_42" d="M101.291 32.9728H95.0773C94.9454 32.9728 94.819 32.9202 94.7257 32.8266C94.6325 32.733 94.5801 32.6061 94.5801 32.4737C94.5801 32.3414 94.6325 32.2144 94.7257 32.1208C94.819 32.0272 94.9454 31.9746 95.0773 31.9746H101.291C101.423 31.9746 101.549 32.0272 101.642 32.1208C101.736 32.2144 101.788 32.3414 101.788 32.4737C101.788 32.6061 101.736 32.733 101.642 32.8266C101.549 32.9202 101.423 32.9728 101.291 32.9728Z" fill="#CCCCCC"/>
<path id="Vector_43" d="M91.8895 34.4656H87.3483C87.2 34.4654 87.0579 34.4062 86.953 34.301C86.8482 34.1957 86.7892 34.053 86.7891 33.9042V28.5244C86.7892 28.3755 86.8482 28.2328 86.953 28.1275C87.0579 28.0223 87.2 27.9631 87.3483 27.9629H91.8895C92.0377 27.9631 92.1799 28.0223 92.2847 28.1276C92.3895 28.2328 92.4485 28.3755 92.4487 28.5244V33.9042C92.4486 34.053 92.3896 34.1957 92.2847 34.301C92.1799 34.4062 92.0377 34.4654 91.8895 34.4656Z" fill="#CCCCCC"/>
<path id="Vector_44" d="M101.248 38.338H87.2041C87.0722 38.338 86.9458 38.2854 86.8526 38.1918C86.7593 38.0982 86.707 37.9712 86.707 37.8389C86.707 37.7065 86.7593 37.5796 86.8526 37.486C86.9458 37.3924 87.0722 37.3398 87.2041 37.3398H101.248C101.38 37.3398 101.506 37.3924 101.599 37.486C101.693 37.5796 101.745 37.7065 101.745 37.8389C101.745 37.9712 101.693 38.0982 101.599 38.1918C101.506 38.2854 101.38 38.338 101.248 38.338Z" fill="#CCCCCC"/>
<path id="Vector_45" d="M101.248 40.9591H87.2041C87.0722 40.9591 86.9458 40.9065 86.8526 40.8129C86.7593 40.7193 86.707 40.5924 86.707 40.46C86.707 40.3277 86.7593 40.2007 86.8526 40.1071C86.9458 40.0135 87.0722 39.9609 87.2041 39.9609H101.248C101.38 39.9609 101.506 40.0135 101.599 40.1071C101.693 40.2007 101.745 40.3277 101.745 40.46C101.745 40.5924 101.693 40.7193 101.599 40.8129C101.506 40.9065 101.38 40.9591 101.248 40.9591Z" fill="#CCCCCC"/>
<path id="Vector_46" d="M101.248 43.5783H87.2041C87.0722 43.5783 86.9458 43.5257 86.8526 43.4321C86.7593 43.3385 86.707 43.2116 86.707 43.0792C86.707 42.9468 86.7593 42.8199 86.8526 42.7263C86.9458 42.6327 87.0722 42.5801 87.2041 42.5801H101.248C101.38 42.5801 101.506 42.6327 101.599 42.7263C101.693 42.8199 101.745 42.9468 101.745 43.0792C101.745 43.2116 101.693 43.3385 101.599 43.4321C101.506 43.5257 101.38 43.5783 101.248 43.5783Z" fill="#CCCCCC"/>
<path id="Vector_47" d="M101.248 46.1994H87.2041C87.0722 46.1994 86.9458 46.1468 86.8526 46.0532C86.7593 45.9596 86.707 45.8327 86.707 45.7003C86.707 45.568 86.7593 45.441 86.8526 45.3474C86.9458 45.2538 87.0722 45.2012 87.2041 45.2012H101.248C101.38 45.2012 101.506 45.2538 101.599 45.3474C101.693 45.441 101.745 45.568 101.745 45.7003C101.745 45.8327 101.693 45.9596 101.599 46.0532C101.506 46.1468 101.38 46.1994 101.248 46.1994Z" fill="#CCCCCC"/>
<path id="Vector_48" d="M101.248 48.8185H87.2041C87.0722 48.8185 86.9458 48.7659 86.8526 48.6723C86.7593 48.5787 86.707 48.4518 86.707 48.3194C86.707 48.1871 86.7593 48.0601 86.8526 47.9665C86.9458 47.8729 87.0722 47.8203 87.2041 47.8203H101.248C101.38 47.8203 101.506 47.8729 101.599 47.9665C101.693 48.0601 101.745 48.1871 101.745 48.3194C101.745 48.4518 101.693 48.5787 101.599 48.6723C101.506 48.7659 101.38 48.8185 101.248 48.8185Z" fill="#CCCCCC"/>
<path id="Vector_49" d="M79.5265 52.7225H108.524C108.564 52.7225 108.602 52.7067 108.629 52.6787C108.657 52.6507 108.673 52.6128 108.673 52.5732C108.673 52.5336 108.657 52.4956 108.629 52.4676C108.602 52.4396 108.564 52.4238 108.524 52.4238H79.5265C79.507 52.4237 79.4876 52.4275 79.4696 52.4349C79.4515 52.4423 79.435 52.4532 79.4211 52.467C79.4072 52.4808 79.3962 52.4972 79.3886 52.5152C79.381 52.5333 79.3771 52.5527 79.377 52.5723C79.3769 52.5919 79.3806 52.6114 79.388 52.6295C79.3953 52.6477 79.4062 52.6642 79.4199 52.6781C79.4337 52.6921 79.45 52.7032 79.468 52.7108C79.486 52.7184 79.5053 52.7224 79.5249 52.7225H79.5265Z" fill="#CCCCCC"/>
<path id="Vector_50" d="M35.7202 72.4888H72.5742C72.6242 72.4888 72.6723 72.4689 72.7077 72.4333C72.7432 72.3977 72.7632 72.3494 72.7632 72.2991C72.7632 72.2488 72.7432 72.2005 72.7077 72.1649C72.6723 72.1294 72.6242 72.1094 72.5742 72.1094H35.7202C35.6701 72.1094 35.6221 72.1294 35.5867 72.1649C35.5512 72.2005 35.5312 72.2488 35.5312 72.2991C35.5312 72.3494 35.5512 72.3977 35.5867 72.4333C35.6221 72.4689 35.6701 72.4888 35.7202 72.4888Z" fill="#3F3D56"/>
</g>
</g>
</g>
</g>
<defs>
<clipPath id="clip0_39_429">
<rect width="158" height="83" fill="white"/>
</clipPath>
</defs>
</svg>
