<svg width="529" height="308" viewBox="0 0 529 308" fill="none" xmlns="http://www.w3.org/2000/svg">
<g clip-path="url(#clip0_49_137)">
<mask id="mask0_49_137" style="mask-type:luminance" maskUnits="userSpaceOnUse" x="0" y="0" width="529" height="308">
<path d="M529 0H0V308H529V0Z" fill="white"/>
</mask>
<g mask="url(#mask0_49_137)">
<path d="M170.847 300.293C253.834 300.293 321.11 233.069 321.11 150.146C321.11 67.2227 253.834 0 170.847 0C87.859 0 20.5844 67.2227 20.5844 150.146C20.5844 233.069 87.859 300.293 170.847 300.293Z" fill="#F2F2F2"/>
<path d="M529 266.35C528.999 266.715 528.97 267.08 528.913 267.44C525.239 289.941 408.261 308 264.5 308C120.739 308 3.76166 289.941 0.0874799 267.44C0.030043 267.08 0.000795349 266.715 0 266.35C0 266.248 -1.72706e-06 266.139 0.0102901 266.037C0.0102901 265.98 0.0154371 265.929 0.0154371 265.872C0.0196876 265.852 0.0214171 265.831 0.0205841 265.811C0.0411678 265.579 0.0720435 265.358 0.113211 265.131C1.79078 255.933 22.4208 247.48 56.0699 240.708C83.5903 235.17 119.822 230.753 161.525 227.977C193.172 225.868 227.969 224.701 264.5 224.701C293.893 224.701 322.165 225.457 348.574 226.845H348.584C354.111 227.138 359.555 227.459 364.918 227.807C401.623 230.182 434.197 233.818 460.441 238.368C476.584 241.171 490.339 244.322 501.191 247.737H501.196C517.9 252.997 527.75 258.895 528.887 265.131C528.928 265.358 528.959 265.579 528.979 265.811C528.978 265.831 528.98 265.852 528.984 265.872C528.984 265.929 528.99 265.98 528.99 266.037C529 266.139 529 266.248 529 266.35Z" fill="#3F3D56"/>
<path opacity="0.1" d="M257.81 306.457C304.703 306.457 342.718 300.933 342.718 294.117C342.718 287.302 304.703 281.776 257.81 281.776C210.917 281.776 172.903 287.302 172.903 294.117C172.903 300.933 210.917 306.457 257.81 306.457Z" fill="black"/>
<path opacity="0.1" d="M501.191 247.737C498.222 248.585 494.877 249.372 491.209 250.092C476.1 253.064 455.486 254.889 432.787 254.889C407.427 254.889 384.698 252.611 369.296 249.006C356.514 246.014 348.774 242.121 348.774 237.849C348.774 234.095 354.764 230.62 364.918 227.807C401.623 230.182 434.197 233.818 460.441 238.368C476.584 241.171 490.339 244.322 501.191 247.737Z" fill="black"/>
<path opacity="0.1" d="M273.763 242.055C273.763 249.835 224.917 256.144 164.669 256.144C104.421 256.144 55.576 249.835 55.576 242.055C55.5889 241.564 55.7624 241.091 56.07 240.708C83.5903 235.17 119.823 230.753 161.525 227.977C162.57 227.971 163.618 227.969 164.669 227.971C224.917 227.971 273.763 234.275 273.763 242.055Z" fill="black"/>
<path d="M235.764 172.242H214.313V241.444H235.764V172.242Z" fill="#0046EA"/>
<path d="M165.282 139.784H143.831V241.444H165.282V139.784Z" fill="#0046EA"/>
<path d="M95.4133 139.784H73.9625V241.444H95.4133V139.784Z" fill="#0046EA"/>
<path d="M130.348 139.784H108.897V208.986H130.348V139.784Z" fill="#0046EA"/>
<path d="M200.217 139.784H178.765V159.993H200.217V139.784Z" fill="#0046EA"/>
<path d="M200.217 172.242H178.765V241.444H200.217V172.242Z" fill="#8A8B8C"/>
<path d="M270.698 139.784H214.313V159.993H270.698V139.784Z" fill="#0046EA"/>
<path d="M419.424 133.705C434.089 133.705 446.572 138.819 456.873 149.048C461.724 153.858 465.546 159.602 468.107 165.934C473.211 178.886 473.228 193.287 468.156 206.251C465.634 212.508 461.823 218.166 456.969 222.856C451.979 227.823 446.063 231.764 439.555 234.457C433.179 237.116 426.336 238.483 419.427 238.479C412.596 238.499 405.83 237.148 399.532 234.503C386.703 229.045 376.486 218.837 371.024 206.018C365.766 193.235 365.782 178.891 371.07 166.12C373.749 159.689 377.678 153.854 382.632 148.953C392.618 138.79 404.882 133.707 419.424 133.705ZM419.614 143.154C407.631 143.154 397.551 147.333 389.372 155.69C385.34 159.739 382.115 164.516 379.869 169.769C377.676 174.916 376.546 180.452 376.546 186.046C376.546 191.64 377.676 197.177 379.869 202.324C384.392 212.818 392.794 221.164 403.324 225.621C408.498 227.759 414.044 228.856 419.643 228.848C425.243 228.84 430.785 227.728 435.953 225.575C441.27 223.362 446.115 220.155 450.229 216.128C458.405 208.145 462.492 198.135 462.491 186.096C462.521 180.452 461.439 174.858 459.307 169.631C457.178 164.443 454.028 159.735 450.044 155.785C441.613 147.366 431.469 143.155 419.614 143.154ZM418.957 177.395L411.933 181.044C411.366 179.698 410.403 178.556 409.173 177.77C408.256 177.199 407.207 176.877 406.129 176.835C401.449 176.835 399.108 179.922 399.106 186.096C399.106 188.902 399.699 191.146 400.884 192.83C402.07 194.515 403.819 195.357 406.129 195.358C409.187 195.358 411.341 193.86 412.59 190.867L419.049 194.141C417.73 196.642 415.749 198.732 413.322 200.184C410.895 201.637 408.115 202.394 405.286 202.374C400.605 202.374 396.829 200.939 393.957 198.07C391.086 195.202 389.651 191.211 389.651 186.098C389.651 181.108 391.102 177.147 394.004 174.217C396.906 171.287 400.573 169.821 405.006 169.82C411.499 169.816 416.149 172.342 418.957 177.395ZM449.197 177.395L442.268 181.044C441.701 179.698 440.738 178.556 439.506 177.77C438.559 177.191 437.479 176.869 436.37 176.835C431.689 176.835 429.347 179.922 429.346 186.096C429.346 188.902 429.939 191.146 431.125 192.83C432.31 194.515 434.058 195.357 436.37 195.358C439.426 195.358 441.578 193.86 442.826 190.867L449.38 194.141C448.013 196.629 446.011 198.711 443.579 200.175C441.182 201.632 438.426 202.393 435.621 202.374C430.876 202.374 427.085 200.939 424.249 198.07C421.405 195.202 419.983 191.211 419.986 186.098C419.986 181.108 421.437 177.147 424.34 174.217C427.24 171.287 430.907 169.821 435.34 169.82C441.831 169.816 446.449 172.342 449.197 177.395Z" fill="#0046EA"/>
<path opacity="0.1" d="M387.702 262.411C387.702 287.471 352.744 279.72 309.941 279.72C267.138 279.72 232.698 287.471 232.698 262.411C232.698 237.351 267.652 231.9 310.455 231.9C353.258 231.9 387.702 237.351 387.702 262.411Z" fill="black"/>
<path d="M387.702 256.24C387.702 281.301 352.744 273.55 309.941 273.55C267.138 273.55 232.698 281.301 232.698 256.24C232.698 231.18 267.652 225.73 310.455 225.73C353.258 225.73 387.702 231.18 387.702 256.24Z" fill="#3F3D56"/>
<path d="M380.562 211.252L382.329 218.534C382.349 218.616 382.345 218.701 382.32 218.781L374.305 243.808C374.273 243.907 374.208 243.993 374.121 244.049C374.034 244.107 373.931 244.133 373.826 244.122C373.723 244.112 373.626 244.067 373.551 243.994C373.477 243.92 373.431 243.825 373.419 243.72L372.31 233.971C372.303 233.906 372.309 233.84 372.329 233.779L379.686 211.218C379.717 211.124 379.778 211.043 379.859 210.986C379.94 210.929 380.038 210.901 380.137 210.904C380.236 210.908 380.331 210.944 380.408 211.007C380.484 211.07 380.538 211.156 380.562 211.252Z" fill="#2F2E41"/>
<path d="M379.911 211.866L381.543 218.116L374.474 240.936L372.843 233.873L379.911 211.866Z" fill="#F2F2F2"/>
<path d="M344.295 245.826C344.566 246.641 372.571 245.555 372.843 245.283C373.08 244.943 373.28 244.579 373.441 244.197C373.696 243.653 373.931 243.109 373.931 243.109L372.843 234.313L345.11 233.329C345.11 233.329 344.416 240.784 344.276 244.197C344.227 244.739 344.234 245.285 344.295 245.826Z" fill="#2F2E41"/>
<path opacity="0.1" d="M369.309 235.503L369.852 243.109H357.616V235.503H369.309Z" fill="black"/>
<path opacity="0.1" d="M353.539 237.947L353.612 237.933L353.267 241.208H346.47V237.947H353.539Z" fill="black"/>
<path opacity="0.1" d="M344.295 245.826C344.566 246.641 372.571 245.555 372.843 245.283C373.08 244.943 373.28 244.579 373.441 244.197H344.276C344.227 244.739 344.234 245.285 344.295 245.826Z" fill="black"/>
<path d="M301.064 217.301H308.677L327.438 209.965C327.438 209.965 340.76 204.532 339.672 214.855C338.585 225.179 336.681 239.035 336.681 239.035C336.681 239.035 330.7 236.318 327.438 237.133C324.175 237.947 326.35 220.56 326.35 220.56C326.35 220.56 299.705 233.329 297.258 231.699C294.811 230.069 294.267 218.659 294.267 218.659L301.064 217.301Z" fill="#2F2E41"/>
<path opacity="0.1" d="M301.064 217.301H308.677L327.438 209.965C327.438 209.965 340.76 204.532 339.672 214.855C338.585 225.179 336.681 239.035 336.681 239.035C336.681 239.035 330.7 236.318 327.438 237.133C324.175 237.947 326.35 220.56 326.35 220.56C326.35 220.56 299.705 233.329 297.258 231.699C294.811 230.069 294.267 218.659 294.267 218.659L301.064 217.301Z" fill="black"/>
<path d="M313.059 193.478L322.272 206.705L343.751 224.636C343.751 224.636 363.599 229.254 360.88 232.514C358.16 235.775 341.576 229.254 341.576 229.254C341.576 229.254 316.834 211.324 316.019 209.965C315.202 208.607 306.23 195.838 306.23 195.838L313.059 193.478Z" fill="#A0616A"/>
<path opacity="0.1" d="M313.059 193.478L322.272 206.705L343.751 224.636C343.751 224.636 363.599 229.254 360.88 232.514C358.16 235.775 341.576 229.254 341.576 229.254C341.576 229.254 316.834 211.324 316.019 209.965C315.202 208.607 306.23 195.838 306.23 195.838L313.059 193.478Z" fill="black"/>
<path d="M311.668 178.994C318.425 178.994 323.903 173.52 323.903 166.769C323.903 160.017 318.425 154.543 311.668 154.543C304.911 154.543 299.433 160.017 299.433 166.769C299.433 173.52 304.911 178.994 311.668 178.994Z" fill="#A0616A"/>
<path d="M310.852 177.636C310.852 177.636 306.774 184.699 305.959 188.503C305.143 192.306 293.723 180.896 293.723 180.896L292.228 176.957C292.228 176.957 302.968 171.931 302.152 167.855C301.337 163.78 310.852 177.636 310.852 177.636Z" fill="#A0616A"/>
<path d="M307.59 182.797L313.571 194.479C313.571 194.479 312.212 200.185 310.036 200.728C307.861 201.271 298.618 193.665 298.618 193.665L307.59 182.797Z" fill="#D0CDE1"/>
<path d="M313.027 198.826L324.175 213.497L350.819 233.329C350.819 233.329 370.123 237.405 365.774 240.393C361.424 243.382 348.917 237.676 348.917 237.676C348.917 237.676 321.999 223.277 316.29 217.301C310.58 211.324 299.977 201.271 299.977 201.271L313.027 198.826Z" fill="#A0616A"/>
<path d="M298.074 221.648L301.336 226.809L320.808 220.688C322.917 220.007 325.15 219.791 327.35 220.057C329.551 220.321 331.668 221.062 333.555 222.224C336.954 224.364 339.129 227.76 334.235 232.786C324.447 242.838 317.921 237.405 317.921 237.405C317.921 237.405 285.023 252.89 279.585 245.283C274.148 237.676 273.875 233.873 273.875 233.873C273.875 233.873 294.811 220.832 298.074 221.648Z" fill="#2F2E41"/>
<path d="M338.857 239.578C338.857 239.578 347.557 245.283 337.225 248C326.894 250.717 319.281 246.913 319.281 246.913C319.281 246.913 310.309 246.913 310.309 242.294C310.309 237.676 313.3 237.133 313.3 237.133L322.543 238.491C322.543 238.491 333.691 235.503 338.857 239.578Z" fill="#D0CDE1"/>
<path d="M321.705 163.693C322.509 164.126 323.373 164.435 324.269 164.611C324.719 164.692 325.183 164.639 325.603 164.459C326.023 164.279 326.381 163.98 326.634 163.599C326.834 163.147 326.925 162.655 326.902 162.161C326.935 160.669 326.827 159.057 325.881 157.902C325.278 157.167 324.399 156.705 323.776 155.987C323.357 155.45 323.001 154.867 322.713 154.251C321.5 151.976 319.706 149.79 317.212 149.134C316.157 148.907 315.077 148.825 314 148.888L307.72 148.977C306.702 148.944 305.685 149.054 304.697 149.302C302.676 149.913 301.204 151.612 299.856 153.236C298.809 154.42 297.879 155.703 297.079 157.066C295.993 159.089 295.444 161.355 295.484 163.65C295.476 164.238 295.553 164.825 295.71 165.392C295.896 165.911 296.125 166.415 296.396 166.896C297.574 169.208 298.274 172.095 296.946 174.326C299.251 173.385 301.531 172.151 303.051 170.182C303.731 169.301 304.264 168.269 305.171 167.623C306.077 166.976 307.554 166.92 308.135 167.869C308.335 168.253 308.438 168.68 308.435 169.112C308.417 169.827 308.534 170.539 308.779 171.211C308.91 171.544 309.151 171.821 309.462 171.998C309.772 172.175 310.135 172.242 310.488 172.185C311.672 171.852 311.559 170.037 312.47 169.213C313.163 168.586 314.231 168.706 315.121 168.421C315.631 168.228 316.095 167.93 316.483 167.548C316.872 167.166 317.177 166.706 317.378 166.2C317.715 165.445 317.71 163.47 318.347 163.061C319.146 162.548 320.964 163.363 321.705 163.693Z" fill="#2F2E41"/>
<path d="M291.257 175.667C291.807 175.521 292.387 175.523 292.936 175.672C294.682 176.14 298.594 177.38 299.433 179.266C300.52 181.711 304.327 185.514 304.327 185.514C304.327 185.514 309.493 190.676 308.405 194.208C307.318 197.74 303.239 201.815 303.239 201.815C303.239 201.815 304.327 218.659 298.889 223.005C293.452 227.352 291.277 224.364 291.277 228.44C291.277 232.514 274.419 245.283 271.157 237.405C271.157 237.405 272.788 222.734 272.244 217.572C271.709 212.485 272.493 180.744 291.257 175.667Z" fill="#D0CDE1"/>
<path d="M299.977 182.526C299.977 182.526 316.562 194.751 313.571 199.913C313.571 199.913 303.512 204.803 301.337 204.532C299.162 204.26 290.733 194.751 288.557 193.936C286.382 193.121 285.295 178.451 299.977 182.526Z" fill="#D0CDE1"/>
<path d="M254.111 193.481C251.532 194.351 249.195 196.387 248.667 199.056C248.422 200.293 248.572 201.579 248.365 202.824C247.888 205.709 245.621 207.912 243.53 209.959C241.44 212.006 239.28 214.385 239.128 217.306C238.961 220.504 241.282 223.5 240.881 226.677C240.413 230.369 236.512 232.76 235.547 236.354C234.904 238.754 235.692 241.339 236.991 243.458C239.465 247.495 243.695 250.237 248.199 251.706C252.704 253.175 257.501 253.485 262.238 253.534C268.007 253.595 274.271 253.1 278.606 249.295C281.081 247.102 282.636 244.056 282.958 240.766C283.37 236.359 281.53 231.805 282.799 227.564C283.598 224.896 285.602 222.459 285.303 219.69C285.01 216.982 282.643 215.062 281.02 212.875C279.504 210.832 278.584 208.42 277.683 206.042L274.598 197.906C273.991 196.306 273.326 194.623 271.973 193.574C269.443 191.608 265.376 191.995 262.417 192.4C259.672 192.776 256.75 192.591 254.111 193.481Z" fill="#2F2E41"/>
<path d="M255.077 217.182C255.077 217.182 256.444 221.623 246.188 226.748C235.932 231.872 247.214 237.338 247.214 237.338L259.179 240.071C259.179 240.071 271.487 238.363 272.854 236.313C274.222 234.263 276.615 227.431 275.931 226.407C275.42 225.677 274.848 224.991 274.222 224.356C274.222 224.356 266.017 222.99 266.359 219.233C266.701 215.474 255.077 217.182 255.077 217.182Z" fill="#FFB9B9"/>
<path opacity="0.1" d="M255.077 217.182C255.077 217.182 256.444 221.623 246.188 226.748C235.932 231.872 247.214 237.338 247.214 237.338L259.179 240.071C259.179 240.071 271.487 238.363 272.854 236.313C274.222 234.263 276.615 227.431 275.931 226.407C275.42 225.677 274.848 224.991 274.222 224.356C274.222 224.356 266.017 222.99 266.359 219.233C266.701 215.474 255.077 217.182 255.077 217.182Z" fill="black"/>
<path d="M261.743 224.186C267.786 224.186 272.683 219.292 272.683 213.254C272.683 207.217 267.786 202.323 261.743 202.323C255.701 202.323 250.803 207.217 250.803 213.254C250.803 219.292 255.701 224.186 261.743 224.186Z" fill="#FFB9B9"/>
<path d="M260.547 236.313C260.547 236.313 247.371 235.35 247.121 226.267C247.121 226.267 242.427 225.723 241.06 227.089C239.692 228.456 235.248 229.481 235.248 232.897C235.248 236.313 242.769 246.561 242.769 246.561C242.769 246.561 246.871 260.226 245.162 262.617C243.452 265.009 243.111 271.157 243.111 271.157C243.111 271.157 260.205 269.791 262.94 271.157C265.675 272.524 276.615 272.524 277.298 271.157C277.982 269.791 276.615 252.711 276.615 252.711C276.615 252.711 279.692 248.611 279.008 243.829L287.214 234.263C287.214 234.263 284.136 225.04 279.35 225.04C279.35 225.04 272.855 223.332 272.683 224.186C272.512 225.04 275.931 234.605 260.547 236.313Z" fill="#FF6584"/>
<path d="M229.778 266.375C229.778 266.375 232.855 271.157 240.718 272.183C248.581 273.208 249.949 270.475 249.265 269.791C248.581 269.108 240.376 266.034 240.376 266.034L235.59 262.276L229.778 266.375Z" fill="#FFB9B9"/>
<path d="M285.846 262.276L276.957 267.4C276.957 267.4 265.333 266.716 269.777 270.133C274.222 273.549 282.427 272.183 282.427 272.183L290.29 268.424L285.846 262.276Z" fill="#FFB9B9"/>
<path d="M241.401 271.157C241.401 271.157 233.197 291.313 243.111 294.387C253.025 297.462 280.376 296.779 286.53 292.679C292.684 288.58 294.393 283.115 293.368 281.406C292.341 279.698 285.504 274.916 280.717 274.574C275.931 274.232 241.401 271.157 241.401 271.157Z" fill="#2F2E41"/>
<path opacity="0.05" d="M241.401 271.157C241.401 271.157 233.197 291.313 243.111 294.387C253.025 297.462 280.376 296.779 286.53 292.679C292.684 288.58 294.393 283.115 293.368 281.406C292.341 279.698 285.504 274.916 280.717 274.574C275.931 274.232 241.401 271.157 241.401 271.157Z" fill="black"/>
<path d="M280.132 272.41C280.132 272.41 309.093 261.934 308.752 274.574C308.41 287.213 290.29 290.63 290.29 290.63L284.82 291.313L254.735 292.338C254.735 292.338 255.76 286.872 253.368 286.189C253.368 286.189 261.231 284.139 261.573 283.797C261.914 283.456 281.401 276.623 282.769 276.282C284.136 275.94 288.239 273.208 291.316 273.549C291.316 273.549 294.735 270.816 298.495 271.499L287.898 272.183L280.132 272.41Z" fill="#2F2E41"/>
<path opacity="0.1" d="M280.132 272.41C280.132 272.41 309.093 261.934 308.752 274.574C308.41 287.213 290.29 290.63 290.29 290.63L284.82 291.313L254.735 292.338C254.735 292.338 255.76 286.872 253.368 286.189C253.368 286.189 261.231 284.139 261.573 283.797C261.914 283.456 281.401 276.623 282.769 276.282C284.136 275.94 288.239 273.208 291.316 273.549C291.316 273.549 294.735 270.816 298.495 271.499L287.898 272.183L280.132 272.41Z" fill="black"/>
<path d="M275.015 274.106L278.666 282.431L300.889 274.574L302.598 270.133L296.786 269.108L285.102 271.158L280.034 272.524L275.015 274.106Z" fill="#2F2E41"/>
<path opacity="0.1" d="M275.015 274.106L278.666 282.431L300.889 274.574L302.598 270.133L296.786 269.108L285.102 271.158L280.034 272.524L275.015 274.106Z" fill="black"/>
<path d="M227.727 284.139C227.727 284.139 234.222 292.338 241.744 294.387C249.265 296.437 253.368 293.704 253.368 293.704L250.974 284.139L249.949 277.99L245.504 274.916L236.615 270.816L226.017 267.4C226.017 267.4 221.573 266.716 221.573 267.4C221.573 268.083 225.676 278.331 225.676 278.331L227.727 284.139Z" fill="#2F2E41"/>
<path d="M235.59 288.58C235.59 288.58 236.957 298.487 238.666 299.17C240.376 299.853 245.504 298.487 246.871 297.804C248.239 297.12 252.888 293.969 252.888 293.969C252.888 293.969 236.615 287.897 235.59 288.58Z" fill="#F2F2F2"/>
<path d="M266.701 289.605L273.196 290.63L272.512 298.487L263.452 296.288L266.701 289.605Z" fill="#FFB9B9"/>
<path d="M270.771 291.792C270.771 291.792 267.726 295.412 270.803 297.462L272.855 299.17C272.855 299.17 279.692 300.536 280.376 301.22C281.06 301.903 283.795 300.195 283.795 300.195C283.795 300.195 284.136 289.946 283.795 289.264C283.453 288.58 279.35 287.897 279.009 288.58C278.666 289.264 274.564 290.288 272.171 289.605L270.771 291.792Z" fill="#F2F2F2"/>
<path d="M243.453 273.549C243.453 273.549 219.522 259.543 215.761 264.667C212 269.791 207.898 276.965 218.838 282.431C229.778 287.897 263.966 299.17 263.966 299.17C263.966 299.17 269.094 291.313 269.094 289.264C269.094 289.264 250.974 281.064 247.898 280.382C244.82 279.698 232.513 271.841 230.803 271.157C229.094 270.475 226.701 268.425 226.701 268.425L243.453 273.549Z" fill="#2F2E41"/>
<path d="M236.615 231.189L235.248 232.214C235.248 232.214 232.171 240.071 231.829 244.512C231.487 248.953 227.384 262.617 227.727 264.326C228.068 266.034 228.411 267.4 230.462 269.108C230.462 269.108 233.197 262.959 237.983 263.983L243.795 242.804L236.615 231.189Z" fill="#FF6584"/>
<path d="M284.479 231.189L287.214 234.263C287.214 234.263 288.923 238.363 288.923 239.388C288.923 240.412 292.341 255.444 292.684 256.127C293.025 256.81 294.393 265.35 292.684 267.4C290.974 269.449 287.897 270.816 287.897 270.816C287.897 270.816 289.949 263.642 283.452 263.301L284.136 260.568L277.982 240.071L284.479 231.189Z" fill="#FF6584"/>
<path d="M237.299 254.709V272.702C237.299 273.839 237.747 274.929 238.545 275.739C239.343 276.548 240.428 277.011 241.565 277.029L279.225 277.586C280.355 277.603 281.447 277.177 282.268 276.399C283.088 275.623 283.572 274.555 283.616 273.427L284.308 255.43C284.33 254.853 284.237 254.279 284.033 253.739C283.83 253.199 283.521 252.706 283.123 252.287C282.726 251.868 282.249 251.534 281.72 251.302C281.191 251.07 280.622 250.947 280.044 250.938L241.691 250.383C241.117 250.375 240.548 250.481 240.015 250.694C239.483 250.908 238.998 251.225 238.59 251.628C238.181 252.03 237.856 252.509 237.634 253.039C237.414 253.567 237.299 254.135 237.299 254.709Z" fill="#3F3D56"/>
<path d="M262.385 212.904C268.889 212.904 274.161 210.067 274.161 206.567C274.161 203.069 268.889 200.232 262.385 200.232C255.881 200.232 250.609 203.069 250.609 206.567C250.609 210.067 255.881 212.904 262.385 212.904Z" fill="#2F2E41"/>
<path d="M260.376 266.888C261.887 266.888 263.111 265.664 263.111 264.155C263.111 262.645 261.887 261.422 260.376 261.422C258.865 261.422 257.641 262.645 257.641 264.155C257.641 265.664 258.865 266.888 260.376 266.888Z" fill="#F2F2F2"/>
</g>
</g>
<defs>
<clipPath id="clip0_49_137">
<rect width="529" height="308" fill="white"/>
</clipPath>
</defs>
</svg>
