<svg width="722" height="514" viewBox="0 0 722 514" fill="none" xmlns="http://www.w3.org/2000/svg">
<mask id="mask0_39_348" style="mask-type:luminance" maskUnits="userSpaceOnUse" x="253" y="100" width="48" height="48">
<path d="M301 100H253V148H301V100Z" fill="white"/>
</mask>
<g mask="url(#mask0_39_348)">
<path d="M255 142H279V146H255V142ZM263.48 116.14L269.14 110.48L297.42 138.76L291.76 144.42L263.48 116.14ZM277.64 102L288.96 113.32L283.3 118.98L271.98 107.66L277.64 102ZM260.66 118.96L271.98 130.28L266.32 135.94L255 124.62L260.66 118.96Z" fill="#0046EA"/>
</g>
<mask id="mask1_39_348" style="mask-type:luminance" maskUnits="userSpaceOnUse" x="15" y="323" width="48" height="49">
<path d="M63 323.016H15V371.016H63V323.016Z" fill="white"/>
</mask>
<g mask="url(#mask1_39_348)">
<path d="M39 337.016V329.016H19V365.016H59V337.016H39ZM27 361.016H23V357.016H27V361.016ZM27 353.016H23V349.016H27V353.016ZM27 345.016H23V341.016H27V345.016ZM27 337.016H23V333.016H27V337.016ZM35 361.016H31V357.016H35V361.016ZM35 353.016H31V349.016H35V353.016ZM35 345.016H31V341.016H35V345.016ZM35 337.016H31V333.016H35V337.016ZM55 361.016H39V357.016H43V353.016H39V349.016H43V345.016H39V341.016H55V361.016ZM51 345.016H47V349.016H51V345.016ZM51 353.016H47V357.016H51V353.016Z" fill="#0046EA"/>
</g>
<mask id="mask2_39_348" style="mask-type:luminance" maskUnits="userSpaceOnUse" x="76" y="76" width="48" height="49">
<path d="M124 76.0137H76V124.014H124V76.0137Z" fill="white"/>
</mask>
<g mask="url(#mask2_39_348)">
<path d="M112.72 94.0137L113.92 100.014H86.08L87.28 94.0137H112.72ZM116 84.0137H84V88.0137H116V84.0137ZM116 90.0137H84L82 100.014V104.014H84V116.014H104V104.014H112V116.014H116V104.014H118V100.014L116 90.0137ZM88 112.014V104.014H100V112.014H88Z" fill="#0046EA"/>
</g>
<path d="M100.865 127.779H99.0938V222.562H100.865V127.779Z" fill="#3F3D56"/>
<path d="M100.865 250.775H99.0938V334.174H100.865V250.775Z" fill="#3F3D56"/>
<path d="M233.737 347.461H96.4355V349.233H233.737V347.461Z" fill="#3F3D56"/>
<path d="M39.7443 371.379H37.9727V446.673H39.7443V371.379Z" fill="#3F3D56"/>
<path d="M262.083 459.961H53.916V461.733H262.083V459.961Z" fill="#3F3D56"/>
<path d="M435.703 67.543H433.932V157.01H435.703V67.543Z" fill="#3F3D56"/>
<path d="M420.644 171.184H290.398V172.956H420.644V171.184Z" fill="#3F3D56"/>
<path d="M277.143 185.357H275.371V304.942H277.143V185.357Z" fill="#3F3D56"/>
<path d="M99.9788 251.793C97.0005 251.793 94.089 250.91 91.6126 249.255C89.1361 247.601 87.206 245.249 86.0662 242.497C84.9265 239.745 84.6282 236.717 85.2093 233.796C85.7903 230.875 87.2246 228.192 89.3306 226.086C91.4366 223.98 94.1198 222.546 97.041 221.965C99.9621 221.384 102.99 221.682 105.742 222.822C108.493 223.961 110.845 225.892 112.5 228.368C114.155 230.844 115.038 233.756 115.038 236.734C115.033 240.727 113.445 244.554 110.622 247.378C107.799 250.201 103.971 251.789 99.9788 251.793ZM99.9788 223.447C97.3509 223.447 94.7819 224.226 92.5968 225.686C90.4117 227.146 88.7087 229.221 87.703 231.649C86.6973 234.077 86.4342 236.749 86.9469 239.326C87.4596 241.904 88.725 244.271 90.5833 246.13C92.4416 247.988 94.8091 249.253 97.3866 249.766C99.9641 250.279 102.636 250.016 105.064 249.01C107.492 248.004 109.567 246.301 111.027 244.116C112.487 241.931 113.266 239.362 113.266 236.734C113.262 233.211 111.861 229.834 109.37 227.343C106.879 224.852 103.502 223.451 99.9788 223.447Z" fill="#3F3D56"/>
<path d="M39.7445 475.905C36.7661 475.905 33.8546 475.022 31.3782 473.367C28.9018 471.712 26.9716 469.36 25.8319 466.609C24.6921 463.857 24.3939 460.829 24.9749 457.908C25.556 454.987 26.9902 452.304 29.0962 450.198C31.2023 448.092 33.8855 446.658 36.8066 446.076C39.7277 445.495 42.7556 445.794 45.5073 446.933C48.2589 448.073 50.6108 450.003 52.2655 452.48C53.9202 454.956 54.8034 457.868 54.8034 460.846C54.7989 464.838 53.2109 468.666 50.3878 471.489C47.5647 474.312 43.737 475.9 39.7445 475.905ZM39.7445 447.559C37.1165 447.559 34.5475 448.338 32.3625 449.798C30.1774 451.258 28.4743 453.333 27.4686 455.761C26.4629 458.189 26.1998 460.861 26.7125 463.438C27.2252 466.016 28.4907 468.383 30.3489 470.242C32.2072 472.1 34.5748 473.365 37.1522 473.878C39.7297 474.391 42.4013 474.128 44.8293 473.122C47.2572 472.116 49.3324 470.413 50.7924 468.228C52.2524 466.043 53.0317 463.474 53.0317 460.846C53.0278 457.323 51.6266 453.946 49.1356 451.455C46.6447 448.964 43.2673 447.563 39.7445 447.559Z" fill="#3F3D56"/>
<path d="M100.864 362.52C108.692 362.52 115.038 356.175 115.038 348.347C115.038 340.52 108.692 334.174 100.864 334.174C93.0369 334.174 86.6914 340.52 86.6914 348.347C86.6914 356.175 93.0369 362.52 100.864 362.52Z" fill="#0046EA"/>
<path d="M613.752 235.85H466.707V237.621H613.752V235.85Z" fill="#3F3D56"/>
<path d="M453.42 250.775H451.648V334.174H453.42V250.775Z" fill="#3F3D56"/>
<path d="M437.476 347.461H319.662V349.233H437.476V347.461Z" fill="#3F3D56"/>
<path d="M649.186 355.434H526.943V357.206H649.186V355.434Z" fill="#3F3D56"/>
<path d="M514.542 371.379H512.77V446.673H514.542V371.379Z" fill="#3F3D56"/>
<path d="M498.597 459.961H290.43V461.733H498.597V459.961Z" fill="#3F3D56"/>
<path d="M277.143 391.752H275.371V446.673H277.143V391.752Z" fill="#3F3D56"/>
<path d="M452.532 250.909C460.36 250.909 466.705 244.563 466.705 236.736C466.705 228.908 460.36 222.562 452.532 222.562C444.705 222.562 438.359 228.908 438.359 236.736C438.359 244.563 444.705 250.909 452.532 250.909Z" fill="#0046EA"/>
<path d="M434.817 186.242C431.838 186.242 428.927 185.359 426.45 183.704C423.974 182.05 422.044 179.698 420.904 176.946C419.764 174.195 419.466 171.167 420.047 168.246C420.628 165.324 422.062 162.641 424.168 160.535C426.274 158.429 428.958 156.995 431.879 156.414C434.8 155.833 437.828 156.131 440.579 157.271C443.331 158.411 445.683 160.341 447.338 162.817C448.992 165.294 449.876 168.205 449.876 171.183C449.871 175.176 448.283 179.004 445.46 181.827C442.637 184.65 438.809 186.238 434.817 186.242ZM434.817 157.896C432.189 157.896 429.62 158.675 427.435 160.135C425.25 161.595 423.547 163.671 422.541 166.099C421.535 168.527 421.272 171.198 421.785 173.776C422.297 176.353 423.563 178.721 425.421 180.579C427.279 182.437 429.647 183.703 432.224 184.215C434.802 184.728 437.474 184.465 439.902 183.459C442.329 182.454 444.405 180.75 445.865 178.565C447.325 176.38 448.104 173.811 448.104 171.183C448.1 167.661 446.699 164.283 444.208 161.792C441.717 159.301 438.339 157.9 434.817 157.896Z" fill="#3F3D56"/>
<path d="M276.258 186.242C273.28 186.242 270.368 185.359 267.892 183.704C265.415 182.05 263.485 179.698 262.346 176.946C261.206 174.195 260.908 171.167 261.489 168.246C262.07 165.324 263.504 162.641 265.61 160.535C267.716 158.429 270.399 156.995 273.32 156.414C276.241 155.833 279.269 156.131 282.021 157.271C284.773 158.411 287.124 160.341 288.779 162.817C290.434 165.294 291.317 168.205 291.317 171.183C291.313 175.176 289.725 179.004 286.901 181.827C284.078 184.65 280.251 186.238 276.258 186.242ZM276.258 157.896C273.63 157.896 271.061 158.675 268.876 160.135C266.691 161.595 264.988 163.671 263.982 166.099C262.977 168.527 262.713 171.198 263.226 173.776C263.739 176.353 265.004 178.721 266.863 180.579C268.721 182.437 271.088 183.703 273.666 184.215C276.243 184.728 278.915 184.465 281.343 183.459C283.771 182.454 285.846 180.75 287.306 178.565C288.766 176.38 289.545 173.811 289.545 171.183C289.541 167.661 288.14 164.283 285.649 161.792C283.158 159.301 279.781 157.9 276.258 157.896Z" fill="#3F3D56"/>
<path d="M512.77 372.265C509.791 372.265 506.88 371.382 504.404 369.727C501.927 368.072 499.997 365.72 498.857 362.969C497.717 360.217 497.419 357.189 498 354.268C498.581 351.347 500.016 348.664 502.122 346.558C504.228 344.452 506.911 343.017 509.832 342.436C512.753 341.855 515.781 342.154 518.533 343.293C521.284 344.433 523.636 346.363 525.291 348.84C526.946 351.316 527.829 354.227 527.829 357.206C527.824 361.198 526.236 365.026 523.413 367.849C520.59 370.672 516.762 372.26 512.77 372.265ZM512.77 343.919C510.142 343.919 507.573 344.698 505.388 346.158C503.203 347.618 501.5 349.693 500.494 352.121C499.488 354.549 499.225 357.221 499.738 359.798C500.251 362.376 501.516 364.743 503.374 366.601C505.233 368.46 507.6 369.725 510.178 370.238C512.755 370.75 515.427 370.487 517.855 369.482C520.283 368.476 522.358 366.773 523.818 364.588C525.278 362.403 526.057 359.834 526.057 357.206C526.053 353.683 524.652 350.306 522.161 347.815C519.67 345.324 516.293 343.923 512.77 343.919Z" fill="#3F3D56"/>
<path d="M512.769 475.02C520.597 475.02 526.942 468.674 526.942 460.847C526.942 453.019 520.597 446.674 512.769 446.674C504.942 446.674 498.596 453.019 498.596 460.847C498.596 468.674 504.942 475.02 512.769 475.02Z" fill="#0046EA"/>
<path d="M276.258 475.905C273.28 475.905 270.368 475.022 267.892 473.367C265.415 471.712 263.485 469.36 262.346 466.609C261.206 463.857 260.908 460.829 261.489 457.908C262.07 454.987 263.504 452.304 265.61 450.198C267.716 448.092 270.399 446.658 273.32 446.076C276.241 445.495 279.269 445.794 282.021 446.933C284.773 448.073 287.124 450.003 288.779 452.48C290.434 454.956 291.317 457.868 291.317 460.846C291.313 464.838 289.725 468.666 286.901 471.489C284.078 474.312 280.251 475.9 276.258 475.905ZM276.258 447.559C273.63 447.559 271.061 448.338 268.876 449.798C266.691 451.258 264.988 453.333 263.982 455.761C262.977 458.189 262.713 460.861 263.226 463.438C263.739 466.016 265.004 468.383 266.863 470.242C268.721 472.1 271.088 473.365 273.666 473.878C276.243 474.391 278.915 474.128 281.343 473.122C283.771 472.116 285.846 470.413 287.306 468.228C288.766 466.043 289.545 463.474 289.545 460.846C289.541 457.323 288.14 453.946 285.649 451.455C283.158 448.964 279.781 447.563 276.258 447.559Z" fill="#3F3D56"/>
<path d="M451.648 363.406C448.67 363.406 445.758 362.523 443.282 360.868C440.806 359.214 438.875 356.862 437.736 354.11C436.596 351.359 436.298 348.331 436.879 345.41C437.46 342.488 438.894 339.805 441 337.699C443.106 335.593 445.789 334.159 448.71 333.578C451.632 332.997 454.659 333.295 457.411 334.435C460.163 335.575 462.515 337.505 464.169 339.981C465.824 342.458 466.707 345.369 466.707 348.347C466.703 352.34 465.115 356.168 462.292 358.991C459.468 361.814 455.641 363.402 451.648 363.406ZM451.648 335.06C449.02 335.06 446.451 335.84 444.266 337.3C442.081 338.76 440.378 340.835 439.372 343.263C438.367 345.691 438.104 348.362 438.616 350.94C439.129 353.517 440.395 355.885 442.253 357.743C444.111 359.601 446.479 360.867 449.056 361.379C451.634 361.892 454.305 361.629 456.733 360.623C459.161 359.618 461.236 357.915 462.696 355.729C464.156 353.544 464.935 350.975 464.935 348.347C464.932 344.825 463.53 341.447 461.039 338.956C458.548 336.465 455.171 335.064 451.648 335.06Z" fill="#3F3D56"/>
<path d="M151.227 340V325.455H152.989V331.932H160.744V325.455H162.506V340H160.744V333.494H152.989V340H151.227ZM177.736 330H175.975C175.871 329.493 175.689 329.048 175.428 328.665C175.173 328.281 174.86 327.959 174.491 327.699C174.126 327.434 173.721 327.235 173.276 327.102C172.831 326.97 172.367 326.903 171.884 326.903C171.003 326.903 170.206 327.126 169.491 327.571C168.78 328.016 168.215 328.672 167.793 329.538C167.377 330.405 167.168 331.468 167.168 332.727C167.168 333.987 167.377 335.05 167.793 335.916C168.215 336.783 168.78 337.438 169.491 337.884C170.206 338.329 171.003 338.551 171.884 338.551C172.367 338.551 172.831 338.485 173.276 338.352C173.721 338.22 174.126 338.023 174.491 337.763C174.86 337.498 175.173 337.173 175.428 336.79C175.689 336.402 175.871 335.956 175.975 335.455H177.736C177.604 336.198 177.362 336.863 177.012 337.45C176.662 338.037 176.226 338.537 175.705 338.949C175.184 339.356 174.6 339.666 173.951 339.879C173.307 340.092 172.618 340.199 171.884 340.199C170.644 340.199 169.54 339.896 168.575 339.29C167.609 338.684 166.849 337.822 166.295 336.705C165.741 335.587 165.464 334.261 165.464 332.727C165.464 331.193 165.741 329.867 166.295 328.75C166.849 327.633 167.609 326.771 168.575 326.165C169.54 325.559 170.644 325.256 171.884 325.256C172.618 325.256 173.307 325.362 173.951 325.575C174.6 325.788 175.184 326.101 175.705 326.513C176.226 326.92 176.662 327.417 177.012 328.004C177.362 328.587 177.604 329.252 177.736 330ZM181.318 325.455L185.068 331.506H185.181L188.931 325.455H191.005L186.431 332.727L191.005 340H188.931L185.181 334.062H185.068L181.318 340H179.244L183.931 332.727L179.244 325.455H181.318Z" fill="black"/>
<path d="M91 198.788H76.4545V197.027H82.9318V189.271H76.4545V187.51H91V189.271H84.4943V197.027H91V198.788ZM81 172.279V174.041C80.4934 174.145 80.0483 174.327 79.6648 174.587C79.2812 174.843 78.9593 175.156 78.6989 175.525C78.4337 175.89 78.2348 176.294 78.1023 176.739C77.9697 177.185 77.9034 177.649 77.9034 178.131C77.9034 179.012 78.1259 179.81 78.571 180.525C79.0161 181.235 79.6719 181.801 80.5384 182.222C81.4048 182.639 82.4678 182.847 83.7273 182.847C84.9867 182.847 86.0497 182.639 86.9162 182.222C87.7827 181.801 88.4384 181.235 88.8835 180.525C89.3286 179.81 89.5511 179.012 89.5511 178.131C89.5511 177.649 89.4848 177.185 89.3523 176.739C89.2197 176.294 89.0232 175.89 88.7628 175.525C88.4976 175.156 88.1733 174.843 87.7898 174.587C87.4015 174.327 86.9564 174.145 86.4545 174.041V172.279C87.1979 172.412 87.8632 172.653 88.4503 173.004C89.0374 173.354 89.5369 173.79 89.9489 174.31C90.3561 174.831 90.6662 175.416 90.8793 176.065C91.0923 176.709 91.1989 177.398 91.1989 178.131C91.1989 179.372 90.8958 180.475 90.2898 181.441C89.6837 182.407 88.822 183.167 87.7045 183.721C86.5871 184.275 85.2614 184.552 83.7273 184.552C82.1932 184.552 80.8674 184.275 79.75 183.721C78.6326 183.167 77.7708 182.407 77.1648 181.441C76.5587 180.475 76.2557 179.372 76.2557 178.131C76.2557 177.398 76.3622 176.709 76.5753 176.065C76.7884 175.416 77.1009 174.831 77.5128 174.31C77.92 173.79 78.4171 173.354 79.0043 173.004C79.5866 172.653 80.2519 172.412 81 172.279ZM76.4545 168.698L82.5057 164.948V164.834L76.4545 161.084V159.01L83.7273 163.584L91 159.01V161.084L85.0625 164.834V164.948L91 168.698V170.772L83.7273 166.084L76.4545 170.772V168.698Z" fill="black"/>
<path d="M366.227 451V436.455H367.989V442.932H375.744V436.455H377.506V451H375.744V444.494H367.989V451H366.227ZM392.736 441H390.975C390.871 440.493 390.689 440.048 390.428 439.665C390.173 439.281 389.86 438.959 389.491 438.699C389.126 438.434 388.721 438.235 388.276 438.102C387.831 437.97 387.367 437.903 386.884 437.903C386.003 437.903 385.206 438.126 384.491 438.571C383.78 439.016 383.215 439.672 382.793 440.538C382.377 441.405 382.168 442.468 382.168 443.727C382.168 444.987 382.377 446.05 382.793 446.916C383.215 447.783 383.78 448.438 384.491 448.884C385.206 449.329 386.003 449.551 386.884 449.551C387.367 449.551 387.831 449.485 388.276 449.352C388.721 449.22 389.126 449.023 389.491 448.763C389.86 448.498 390.173 448.173 390.428 447.79C390.689 447.402 390.871 446.956 390.975 446.455H392.736C392.604 447.198 392.362 447.863 392.012 448.45C391.662 449.037 391.226 449.537 390.705 449.949C390.184 450.356 389.6 450.666 388.951 450.879C388.307 451.092 387.618 451.199 386.884 451.199C385.644 451.199 384.54 450.896 383.575 450.29C382.609 449.684 381.849 448.822 381.295 447.705C380.741 446.587 380.464 445.261 380.464 443.727C380.464 442.193 380.741 440.867 381.295 439.75C381.849 438.633 382.609 437.771 383.575 437.165C384.54 436.559 385.644 436.256 386.884 436.256C387.618 436.256 388.307 436.362 388.951 436.575C389.6 436.788 390.184 437.101 390.705 437.513C391.226 437.92 391.662 438.417 392.012 439.004C392.362 439.587 392.604 440.252 392.736 441ZM396.318 436.455L400.068 442.506H400.181L403.931 436.455H406.005L401.431 443.727L406.005 451H403.931L400.181 445.062H400.068L396.318 451H394.244L398.931 443.727L394.244 436.455H396.318Z" fill="black"/>
<path d="M360.227 340V325.455H361.989V331.932H369.744V325.455H371.506V340H369.744V333.494H361.989V340H360.227ZM386.736 330H384.975C384.871 329.493 384.689 329.048 384.428 328.665C384.173 328.281 383.86 327.959 383.491 327.699C383.126 327.434 382.721 327.235 382.276 327.102C381.831 326.97 381.367 326.903 380.884 326.903C380.003 326.903 379.206 327.126 378.491 327.571C377.78 328.016 377.215 328.672 376.793 329.538C376.377 330.405 376.168 331.468 376.168 332.727C376.168 333.987 376.377 335.05 376.793 335.916C377.215 336.783 377.78 337.438 378.491 337.884C379.206 338.329 380.003 338.551 380.884 338.551C381.367 338.551 381.831 338.485 382.276 338.352C382.721 338.22 383.126 338.023 383.491 337.763C383.86 337.498 384.173 337.173 384.428 336.79C384.689 336.402 384.871 335.956 384.975 335.455H386.736C386.604 336.198 386.362 336.863 386.012 337.45C385.662 338.037 385.226 338.537 384.705 338.949C384.184 339.356 383.6 339.666 382.951 339.879C382.307 340.092 381.618 340.199 380.884 340.199C379.644 340.199 378.54 339.896 377.575 339.29C376.609 338.684 375.849 337.822 375.295 336.705C374.741 335.587 374.464 334.261 374.464 332.727C374.464 331.193 374.741 329.867 375.295 328.75C375.849 327.633 376.609 326.771 377.575 326.165C378.54 325.559 379.644 325.256 380.884 325.256C381.618 325.256 382.307 325.362 382.951 325.575C383.6 325.788 384.184 326.101 384.705 326.513C385.226 326.92 385.662 327.417 386.012 328.004C386.362 328.587 386.604 329.252 386.736 330ZM390.318 325.455L394.068 331.506H394.181L397.931 325.455H400.005L395.431 332.727L400.005 340H397.931L394.181 334.062H394.068L390.318 340H388.244L392.931 332.727L388.244 325.455H390.318Z" fill="black"/>
<path d="M336.227 163V148.455H337.989V154.932H345.744V148.455H347.506V163H345.744V156.494H337.989V163H336.227ZM362.736 153H360.975C360.871 152.493 360.689 152.048 360.428 151.665C360.173 151.281 359.86 150.959 359.491 150.699C359.126 150.434 358.721 150.235 358.276 150.102C357.831 149.97 357.367 149.903 356.884 149.903C356.003 149.903 355.206 150.126 354.491 150.571C353.78 151.016 353.215 151.672 352.793 152.538C352.377 153.405 352.168 154.468 352.168 155.727C352.168 156.987 352.377 158.05 352.793 158.916C353.215 159.783 353.78 160.438 354.491 160.884C355.206 161.329 356.003 161.551 356.884 161.551C357.367 161.551 357.831 161.485 358.276 161.352C358.721 161.22 359.126 161.023 359.491 160.763C359.86 160.498 360.173 160.173 360.428 159.79C360.689 159.402 360.871 158.956 360.975 158.455H362.736C362.604 159.198 362.362 159.863 362.012 160.45C361.662 161.037 361.226 161.537 360.705 161.949C360.184 162.356 359.6 162.666 358.951 162.879C358.307 163.092 357.618 163.199 356.884 163.199C355.644 163.199 354.54 162.896 353.575 162.29C352.609 161.684 351.849 160.822 351.295 159.705C350.741 158.587 350.464 157.261 350.464 155.727C350.464 154.193 350.741 152.867 351.295 151.75C351.849 150.633 352.609 149.771 353.575 149.165C354.54 148.559 355.644 148.256 356.884 148.256C357.618 148.256 358.307 148.362 358.951 148.575C359.6 148.788 360.184 149.101 360.705 149.513C361.226 149.92 361.662 150.417 362.012 151.004C362.362 151.587 362.604 152.252 362.736 153ZM366.318 148.455L370.068 154.506H370.181L373.931 148.455H376.005L371.431 155.727L376.005 163H373.931L370.181 157.062H370.068L366.318 163H364.244L368.931 155.727L364.244 148.455H366.318Z" fill="black"/>
<path d="M160.227 451V436.455H161.989V442.932H169.744V436.455H171.506V451H169.744V444.494H161.989V451H160.227ZM186.736 441H184.975C184.871 440.493 184.689 440.048 184.428 439.665C184.173 439.281 183.86 438.959 183.491 438.699C183.126 438.434 182.721 438.235 182.276 438.102C181.831 437.97 181.367 437.903 180.884 437.903C180.003 437.903 179.206 438.126 178.491 438.571C177.78 439.016 177.215 439.672 176.793 440.538C176.377 441.405 176.168 442.468 176.168 443.727C176.168 444.987 176.377 446.05 176.793 446.916C177.215 447.783 177.78 448.438 178.491 448.884C179.206 449.329 180.003 449.551 180.884 449.551C181.367 449.551 181.831 449.485 182.276 449.352C182.721 449.22 183.126 449.023 183.491 448.763C183.86 448.498 184.173 448.173 184.428 447.79C184.689 447.402 184.871 446.956 184.975 446.455H186.736C186.604 447.198 186.362 447.863 186.012 448.45C185.662 449.037 185.226 449.537 184.705 449.949C184.184 450.356 183.6 450.666 182.951 450.879C182.307 451.092 181.618 451.199 180.884 451.199C179.644 451.199 178.54 450.896 177.575 450.29C176.609 449.684 175.849 448.822 175.295 447.705C174.741 446.587 174.464 445.261 174.464 443.727C174.464 442.193 174.741 440.867 175.295 439.75C175.849 438.633 176.609 437.771 177.575 437.165C178.54 436.559 179.644 436.256 180.884 436.256C181.618 436.256 182.307 436.362 182.951 436.575C183.6 436.788 184.184 437.101 184.705 437.513C185.226 437.92 185.662 438.417 186.012 439.004C186.362 439.587 186.604 440.252 186.736 441ZM190.318 436.455L194.068 442.506H194.181L197.931 436.455H200.005L195.431 443.727L200.005 451H197.931L194.181 445.062H194.068L190.318 451H188.244L192.931 443.727L188.244 436.455H190.318Z" fill="black"/>
<path d="M579.227 346V331.455H580.989V337.932H588.744V331.455H590.506V346H588.744V339.494H580.989V346H579.227ZM605.736 336H603.975C603.871 335.493 603.689 335.048 603.428 334.665C603.173 334.281 602.86 333.959 602.491 333.699C602.126 333.434 601.721 333.235 601.276 333.102C600.831 332.97 600.367 332.903 599.884 332.903C599.003 332.903 598.206 333.126 597.491 333.571C596.78 334.016 596.215 334.672 595.793 335.538C595.377 336.405 595.168 337.468 595.168 338.727C595.168 339.987 595.377 341.05 595.793 341.916C596.215 342.783 596.78 343.438 597.491 343.884C598.206 344.329 599.003 344.551 599.884 344.551C600.367 344.551 600.831 344.485 601.276 344.352C601.721 344.22 602.126 344.023 602.491 343.763C602.86 343.498 603.173 343.173 603.428 342.79C603.689 342.402 603.871 341.956 603.975 341.455H605.736C605.604 342.198 605.362 342.863 605.012 343.45C604.662 344.037 604.226 344.537 603.705 344.949C603.184 345.356 602.6 345.666 601.951 345.879C601.307 346.092 600.618 346.199 599.884 346.199C598.644 346.199 597.54 345.896 596.575 345.29C595.609 344.684 594.849 343.822 594.295 342.705C593.741 341.587 593.464 340.261 593.464 338.727C593.464 337.193 593.741 335.867 594.295 334.75C594.849 333.633 595.609 332.771 596.575 332.165C597.54 331.559 598.644 331.256 599.884 331.256C600.618 331.256 601.307 331.362 601.951 331.575C602.6 331.788 603.184 332.101 603.705 332.513C604.226 332.92 604.662 333.417 605.012 334.004C605.362 334.587 605.604 335.252 605.736 336ZM609.318 331.455L613.068 337.506H613.181L616.931 331.455H619.005L614.431 338.727L619.005 346H616.931L613.181 340.062H613.068L609.318 346H607.244L611.931 338.727L607.244 331.455H609.318Z" fill="black"/>
<path d="M529.227 228V213.455H530.989V219.932H538.744V213.455H540.506V228H538.744V221.494H530.989V228H529.227ZM555.736 218H553.975C553.871 217.493 553.689 217.048 553.428 216.665C553.173 216.281 552.86 215.959 552.491 215.699C552.126 215.434 551.721 215.235 551.276 215.102C550.831 214.97 550.367 214.903 549.884 214.903C549.003 214.903 548.206 215.126 547.491 215.571C546.78 216.016 546.215 216.672 545.793 217.538C545.377 218.405 545.168 219.468 545.168 220.727C545.168 221.987 545.377 223.05 545.793 223.916C546.215 224.783 546.78 225.438 547.491 225.884C548.206 226.329 549.003 226.551 549.884 226.551C550.367 226.551 550.831 226.485 551.276 226.352C551.721 226.22 552.126 226.023 552.491 225.763C552.86 225.498 553.173 225.173 553.428 224.79C553.689 224.402 553.871 223.956 553.975 223.455H555.736C555.604 224.198 555.362 224.863 555.012 225.45C554.662 226.037 554.226 226.537 553.705 226.949C553.184 227.356 552.6 227.666 551.951 227.879C551.307 228.092 550.618 228.199 549.884 228.199C548.644 228.199 547.54 227.896 546.575 227.29C545.609 226.684 544.849 225.822 544.295 224.705C543.741 223.587 543.464 222.261 543.464 220.727C543.464 219.193 543.741 217.867 544.295 216.75C544.849 215.633 545.609 214.771 546.575 214.165C547.54 213.559 548.644 213.256 549.884 213.256C550.618 213.256 551.307 213.362 551.951 213.575C552.6 213.788 553.184 214.101 553.705 214.513C554.226 214.92 554.662 215.417 555.012 216.004C555.362 216.587 555.604 217.252 555.736 218ZM559.318 213.455L563.068 219.506H563.181L566.931 213.455H569.005L564.431 220.727L569.005 228H566.931L563.181 222.062H563.068L559.318 228H557.244L561.931 220.727L557.244 213.455H559.318Z" fill="black"/>
<mask id="mask3_39_348" style="mask-type:luminance" maskUnits="userSpaceOnUse" x="649" y="324" width="48" height="49">
<path d="M697 324.016H649V372.016H697V324.016Z" fill="white"/>
</mask>
<g mask="url(#mask3_39_348)">
<path d="M663 344.016H659V358.016H663V344.016Z" fill="#0046EA"/>
<path d="M675 344.016H671V358.016H675V344.016Z" fill="#0046EA"/>
<path d="M693 336.016L673 326.016L653 336.016V340.016H693V336.016ZM661.94 336.016L673 330.496L684.06 336.016H661.94Z" fill="#0046EA"/>
<path d="M653 362.016V366.016H677.8C677.38 364.736 677.16 363.396 677.08 362.016H653Z" fill="#0046EA"/>
<path d="M687 348.536V344.016H683V350.536L687 348.536Z" fill="#0046EA"/>
<path d="M689 352.016L681 356.016V361.116C681 366.156 684.42 370.876 689 372.016C693.58 370.876 697 366.156 697 361.116V356.016L689 352.016ZM687.56 366.016L683.5 361.956L685.62 359.836L687.56 361.776L692.38 357.016L694.5 359.136L687.56 366.016Z" fill="#0046EA"/>
</g>
<mask id="mask4_39_348" style="mask-type:luminance" maskUnits="userSpaceOnUse" x="618" y="212" width="48" height="49">
<path d="M666 212.016H618V260.016H666V212.016Z" fill="white"/>
</mask>
<g mask="url(#mask4_39_348)">
<path d="M632 232.016H628V246.016H632V232.016Z" fill="#0046EA"/>
<path d="M644 232.016H640V246.016H644V232.016Z" fill="#0046EA"/>
<path d="M662 224.016L642 214.016L622 224.016V228.016H662V224.016ZM630.94 224.016L642 218.496L653.06 224.016H630.94Z" fill="#0046EA"/>
<path d="M622 250.016V254.016H646.8C646.38 252.736 646.16 251.396 646.08 250.016H622Z" fill="#0046EA"/>
<path d="M656 236.536V232.016H652V238.536L656 236.536Z" fill="#0046EA"/>
<path d="M658 240.016L650 244.016V249.116C650 254.156 653.42 258.876 658 260.016C662.58 258.876 666 254.156 666 249.116V244.016L658 240.016ZM656.56 254.016L652.5 249.956L654.62 247.836L656.56 249.776L661.38 245.016L663.5 247.136L656.56 254.016Z" fill="#0046EA"/>
</g>
<mask id="mask5_39_348" style="mask-type:luminance" maskUnits="userSpaceOnUse" x="413" y="14" width="48" height="48">
<path d="M461 14H413V62H461V14Z" fill="white"/>
</mask>
<g mask="url(#mask5_39_348)">
<path d="M444 16H428C425.24 16 423 18.24 423 21V55C423 57.76 425.24 60 428 60H444C446.76 60 449 57.76 449 55V21C449 18.24 446.76 16 444 16ZM436 58C434.34 58 433 56.66 433 55C433 53.34 434.34 52 436 52C437.66 52 439 53.34 439 55C439 56.66 437.66 58 436 58ZM445 50H427V22H445V50Z" fill="#0046EA"/>
</g>
<mask id="mask6_39_348" style="mask-type:luminance" maskUnits="userSpaceOnUse" x="253" y="323" width="48" height="48">
<path d="M301 323H253V371H301V323Z" fill="white"/>
</mask>
<g mask="url(#mask6_39_348)">
<path d="M295 333L277 325L259 333V345C259 356.1 266.68 366.48 277 369C281.6 367.88 285.66 365.2 288.76 361.58L282.52 355.34C278.64 357.92 273.36 357.48 269.94 354.06C266.04 350.16 266.04 343.82 269.94 339.92C273.84 336.02 280.18 336.02 284.08 339.92C287.5 343.34 287.92 348.62 285.36 352.5L291.16 358.3C293.58 354.38 295 349.76 295 345V333Z" fill="#0046EA"/>
<path d="M277 353C280.314 353 283 350.314 283 347C283 343.686 280.314 341 277 341C273.686 341 271 343.686 271 347C271 350.314 273.686 353 277 353Z" fill="#0046EA"/>
</g>
</svg>
