<svg width="110" height="122" viewBox="0 0 110 122" fill="none" xmlns="http://www.w3.org/2000/svg">
<g clip-path="url(#clip0_39_2)">
<mask id="mask0_39_2" style="mask-type:luminance" maskUnits="userSpaceOnUse" x="0" y="0" width="110" height="122">
<path d="M110 0H0V122H110V0Z" fill="white"/>
</mask>
<g mask="url(#mask0_39_2)">
<path d="M81.218 18.7593L67.7181 18.8911C67.0836 15.7624 64.9516 7.55317 66.8716 5.31402C66.9591 4.47127 67.3678 3.69479 68.0125 3.14623C68.6573 2.59767 69.4885 2.31929 70.333 2.36905C72.4254 -0.91133 75.9106 -0.418804 78.2661 1.62994C80.6368 2.4492 81.5305 3.90467 81.218 5.87981C82.9736 7.41896 83.2975 9.29154 82.5094 11.4231L81.218 18.7593Z" fill="#2F2E41"/>
<path d="M79.9182 27.088L70.1784 25.7373L68.2305 22.8859C70.9138 21.1032 71.8634 18.6133 70.628 15.2321L77.3709 15.082C77.0549 18.093 78.0491 20.4244 80.8173 21.8354L79.9182 27.088Z" fill="#FFB9B9"/>
<path d="M67.8768 115.075L67.5043 120.174C67.4875 120.405 67.5201 120.637 67.6 120.854C67.6799 121.071 67.8052 121.268 67.9676 121.433C68.13 121.598 68.3256 121.726 68.5414 121.808C68.7572 121.891 68.9882 121.927 69.2188 121.913L71.834 121.754C71.9551 121.747 72.0732 121.713 72.1798 121.654C72.2863 121.596 72.3788 121.515 72.4506 121.417C72.5223 121.319 72.5717 121.206 72.5951 121.087C72.6184 120.968 72.6153 120.845 72.5859 120.727L71.1342 114.912L67.8768 115.075Z" fill="#E6E6E6"/>
<path d="M76.3415 114.912L74.8899 120.727C74.8605 120.845 74.8573 120.968 74.8807 121.087C74.9041 121.206 74.9534 121.319 75.0252 121.417C75.097 121.515 75.1894 121.596 75.296 121.654C75.4025 121.713 75.5206 121.747 75.6418 121.754L78.2569 121.913C78.4876 121.927 78.7185 121.891 78.9343 121.808C79.1501 121.726 79.3458 121.598 79.5082 121.433C79.6705 121.268 79.7959 121.071 79.8758 120.854C79.9557 120.637 79.9883 120.405 79.9714 120.174L79.599 115.075L76.3415 114.912Z" fill="#E6E6E6"/>
<path d="M79.7694 115.782L76.2402 115.427L72.7269 77.8133L71.399 115.306L67.9317 115.181L62.0879 63.2559H84.4144L79.7694 115.782Z" fill="#0046EA"/>
<path d="M74.3738 17.6337C78.0978 17.6337 81.1167 14.6101 81.1167 10.8803C81.1167 7.15053 78.0978 4.12695 74.3738 4.12695C70.6498 4.12695 67.6309 7.15053 67.6309 10.8803C67.6309 14.6101 70.6498 17.6337 74.3738 17.6337Z" fill="#FFB9B9"/>
<path d="M87.7108 64.4566L60.4395 64.7567C64.4867 49.3256 66.9077 34.9914 62.6871 25.137L69.43 21.8354C72.6812 25.2318 76.3022 24.8816 80.2187 21.5352L86.662 23.186C85.5584 36.1085 86.0529 49.9486 87.7108 64.4566Z" fill="#0046EA"/>
<path d="M52.9473 48.549L69.8796 55.3023L73.6652 56.4175C73.8345 56.4674 74.0122 56.4824 74.1875 56.4618C74.3628 56.4412 74.5321 56.3853 74.6853 56.2975C74.8384 56.2097 74.9723 56.0918 75.0788 55.9508C75.1854 55.8099 75.2623 55.6488 75.3052 55.4773C75.3802 55.1766 75.3465 54.859 75.21 54.5808C75.0736 54.3026 74.8431 54.0818 74.5596 53.9576L70.6288 52.7511L58.7912 45.8476L61.2636 39.3194L56.094 36.543L52.9473 48.549Z" fill="#FFB9B9"/>
<path d="M53.0957 36.2422C56.3172 37.501 58.8795 39.6492 60.8875 42.5454L67.1809 33.3908L62.6857 25.1367L53.0957 36.2422Z" fill="#0046EA"/>
<path d="M81.9745 9.78639C79.2377 9.08015 76.547 8.98318 73.9314 9.87898C72.2653 10.6872 70.2644 10.6128 68.0391 9.94681V3.20898L80.0524 3.52983L81.9745 9.78639Z" fill="#2F2E41"/>
<path d="M95.3937 47.3009L80.635 53.1868L79.5215 53.6308C79.486 53.6446 79.4506 53.6565 79.4131 53.6683L75.6825 54.7677C75.2056 54.9078 74.5454 54.2644 74.1592 53.8203C73.9679 53.6063 73.8596 53.3308 73.8538 53.0436C73.848 52.7565 73.9452 52.4767 74.1276 52.2551C74.1792 52.1956 74.2359 52.1407 74.2971 52.0913C74.4409 51.9792 74.6102 51.9046 74.7898 51.8743L78.5165 51.1399C78.6501 51.1136 78.7786 51.0656 78.8968 50.9979L80.635 49.9834L89.6589 44.7213C89.9099 44.5752 90.1009 44.3446 90.198 44.0706C90.2951 43.7967 90.2919 43.497 90.189 43.2251L88.4666 38.6756C88.361 38.3973 88.3601 38.0898 88.4642 37.8109C88.5683 37.5319 88.7702 37.3006 89.0322 37.1598L91.8858 35.6281C92.0489 35.5405 92.2297 35.491 92.4146 35.4835C92.5995 35.4759 92.7837 35.5105 92.9533 35.5846C93.123 35.6588 93.2736 35.7704 93.3938 35.9112C93.5141 36.0521 93.6009 36.2185 93.6476 36.3978L96.1248 45.8482C96.201 46.138 96.1687 46.4458 96.034 46.7134C95.8993 46.981 95.6716 47.1899 95.3937 47.3009Z" fill="#FFB9B9"/>
<path d="M96.2512 34.5912C93.0297 35.8499 90.4674 37.9982 88.4594 40.8943L82.166 31.7398L86.6613 23.1855L96.2512 34.5912Z" fill="#0046EA"/>
<path d="M78.8609 16.8908C75.911 18.1197 72.818 18.0698 69.5985 16.8908C70.5353 15.2893 69.135 14.035 68.416 12.4183L80.4374 12.0605C79.5181 13.465 78.1617 15.1243 78.8609 16.8908Z" fill="white"/>
<path d="M80.3114 12.3282L80.1719 12.1887L80.3689 11.9913L81.5462 10.6152L81.696 10.7435L80.5136 12.1251L80.3114 12.3282Z" fill="white"/>
<path d="M67.593 11.4922L67.4668 11.6439L68.6492 12.6308L68.7755 12.4791L67.593 11.4922Z" fill="white"/>
<path d="M80.6498 13.4883L78.5801 16.7447L78.7464 16.8507L80.8161 13.5943L80.6498 13.4883Z" fill="white"/>
<path d="M67.8108 13.4883L67.6445 13.5943L69.7138 16.851L69.8801 16.745L67.8108 13.4883Z" fill="white"/>
<path d="M68.9427 39.6238C69.336 39.6238 69.6548 39.3045 69.6548 38.9105C69.6548 38.5166 69.336 38.1973 68.9427 38.1973C68.5493 38.1973 68.2305 38.5166 68.2305 38.9105C68.2305 39.3045 68.5493 39.6238 68.9427 39.6238Z" fill="#3F3D56"/>
<path d="M63.2454 39.6238C63.6387 39.6238 63.9576 39.3045 63.9576 38.9105C63.9576 38.5166 63.6387 38.1973 63.2454 38.1973C62.8521 38.1973 62.5332 38.5166 62.5332 38.9105C62.5332 39.3045 62.8521 39.6238 63.2454 39.6238Z" fill="#3F3D56"/>
<path d="M1.80664 121.408H43.1918V71.1327C43.1918 68.4705 40.5737 66.3047 37.3557 66.3047H7.64279C4.42468 66.3047 1.80664 68.4705 1.80664 71.1327V121.408Z" fill="#E6E6E6"/>
<path d="M4.95898 119.33H40.0378V76.7153C40.0378 74.4588 37.8186 72.623 35.091 72.623H9.90581C7.17808 72.623 4.95898 74.4588 4.95898 76.7153V119.33Z" fill="white"/>
<path d="M1.49382 62.3926C0.470936 62.3926 -0.361328 63.0811 -0.361328 63.9273V68.3572C-0.361328 69.2033 0.470936 69.8918 1.49382 69.8918H43.5043C44.5272 69.8918 45.3594 69.2033 45.3594 68.3572V63.9273C45.3594 63.0811 44.5272 62.3926 43.5043 62.3926H1.49382Z" fill="#3F3D56"/>
<path d="M10.119 113.865C9.63879 113.866 9.17862 114.058 8.83903 114.398C8.49945 114.738 8.30804 115.199 8.30664 115.68C8.30804 116.161 8.49944 116.622 8.83902 116.962C9.17861 117.302 9.63879 117.494 10.119 117.495H13.5115V113.865H10.119Z" fill="#3F3D56"/>
<path d="M16.6257 113.865H13.3262V117.495H16.6257C17.1059 117.494 17.5661 117.302 17.9057 116.962C18.2453 116.622 18.4367 116.161 18.4381 115.68C18.4367 115.199 18.2453 114.738 17.9057 114.398C17.5661 114.058 17.1059 113.866 16.6257 113.865Z" fill="#0046EA"/>
<path opacity="0.2" d="M17.8083 114.309C18.0941 114.637 18.2518 115.058 18.2522 115.494C18.2508 115.975 18.0594 116.436 17.7198 116.776C17.3802 117.116 16.92 117.307 16.4398 117.309H13.3262V117.495H16.6257C17.1059 117.494 17.5661 117.302 17.9057 116.962C18.2453 116.622 18.4367 116.161 18.4381 115.68C18.4376 115.419 18.3812 115.162 18.2725 114.926C18.1638 114.689 18.0055 114.479 17.8083 114.309Z" fill="black"/>
<path d="M25.4278 86.523C25.0974 86.174 24.6425 85.9701 24.1624 85.9559C23.6824 85.9417 23.2162 86.1184 22.8658 86.4473C22.5173 86.7782 22.3137 87.2339 22.2996 87.7146C22.2854 88.1954 22.4618 88.6623 22.7902 89.0133L25.1172 91.4857L27.7548 88.9954L25.4278 86.523Z" fill="#3F3D56"/>
<path d="M29.8911 91.264L27.6279 88.8594L24.9902 91.3496L27.2534 93.7543C27.5839 94.1033 28.0388 94.3072 28.5188 94.3214C28.9989 94.3356 29.465 94.1589 29.8154 93.83C30.1639 93.4991 30.3675 93.0434 30.3817 92.5627C30.3959 92.0819 30.2195 91.615 29.8911 91.264Z" fill="#0046EA"/>
<path opacity="0.2" d="M30.3793 92.4316C30.3369 92.8651 30.1394 93.2686 29.8232 93.5676C29.4728 93.8965 29.0067 94.0731 28.5266 94.059C28.0466 94.0448 27.5916 93.8409 27.2612 93.4918L25.1255 91.2227L24.9902 91.3504L27.2534 93.755C27.5839 94.1041 28.0388 94.3079 28.5188 94.3221C28.9989 94.3363 29.465 94.1597 29.8154 93.8308C30.0043 93.6519 30.1525 93.4343 30.2498 93.1928C30.3471 92.9514 30.3913 92.6917 30.3793 92.4316Z" fill="black"/>
<path d="M15.7716 92.2476C15.4412 91.8985 14.9863 91.6947 14.5062 91.6805C14.0262 91.6663 13.56 91.8429 13.2096 92.1718C12.8611 92.5028 12.6576 92.9584 12.6434 93.4392C12.6292 93.92 12.8056 94.3868 13.134 94.7378L15.461 97.2102L18.0986 94.72L15.7716 92.2476Z" fill="#3F3D56"/>
<path d="M20.2349 96.9887L17.9717 94.584L15.334 97.0742L17.5972 99.4789C17.9277 99.8279 18.3826 100.031 18.8626 100.046C19.3427 100.06 19.8088 99.8836 20.1593 99.5547C20.5078 99.2237 20.7113 98.7681 20.7255 98.2873C20.7397 97.8065 20.5633 97.3396 20.2349 96.9887Z" fill="#0046EA"/>
<path opacity="0.2" d="M20.7231 98.1543C20.6807 98.5877 20.4832 98.9912 20.167 99.2902C19.8166 99.6191 19.3505 99.7958 18.8704 99.7816C18.3904 99.7674 17.9355 99.5635 17.605 99.2145L15.4693 96.9453L15.334 97.073L17.5972 99.4777C17.9277 99.8267 18.3826 100.03 18.8626 100.045C19.3427 100.059 19.8088 99.8823 20.1593 99.5534C20.3481 99.3745 20.4963 99.1569 20.5936 98.9155C20.6909 98.674 20.7351 98.4144 20.7231 98.1543Z" fill="black"/>
<path d="M25.4277 97.5757C25.0973 97.2267 24.6424 97.0228 24.1623 97.0086C23.6823 96.9944 23.2161 97.1711 22.8657 97.5C22.5172 97.8309 22.3136 98.2866 22.2995 98.7674C22.2853 99.2481 22.4617 99.715 22.7901 100.066L25.1171 102.538L27.7547 100.048L25.4277 97.5757Z" fill="#3F3D56"/>
<path d="M29.8911 102.316L27.6279 99.9121L24.9902 102.402L27.2534 104.807C27.5839 105.156 28.0388 105.36 28.5188 105.374C28.9989 105.388 29.465 105.211 29.8154 104.882C30.1639 104.551 30.3675 104.096 30.3817 103.615C30.3959 103.134 30.2195 102.667 29.8911 102.316Z" fill="#0046EA"/>
<path opacity="0.2" d="M30.3793 103.484C30.3369 103.918 30.1394 104.321 29.8232 104.62C29.4728 104.949 29.0067 105.126 28.5266 105.112C28.0466 105.097 27.5916 104.894 27.2612 104.544L25.1255 102.275L24.9902 102.403L27.2534 104.808C27.5839 105.157 28.0388 105.361 28.5188 105.375C28.9989 105.389 29.465 105.212 29.8154 104.883C30.0043 104.705 30.1525 104.487 30.2498 104.245C30.3471 104.004 30.3913 103.744 30.3793 103.484Z" fill="black"/>
<path d="M31.3196 108.918C31.6641 108.582 31.8621 108.124 31.8704 107.643C31.8788 107.163 31.6967 106.698 31.3641 106.351C31.0295 106.006 30.5721 105.808 30.0919 105.799C29.6117 105.791 29.1478 105.973 28.8014 106.306L26.3613 108.667L28.8795 111.278L31.3196 108.918Z" fill="#3F3D56"/>
<path d="M26.6396 113.444L29.0129 111.149L26.4946 108.537L24.1214 110.833C23.7769 111.168 23.5789 111.626 23.5706 112.107C23.5622 112.588 23.7443 113.053 24.0769 113.4C24.4115 113.745 24.8689 113.943 25.3491 113.952C25.8293 113.96 26.2932 113.778 26.6396 113.444Z" fill="#0046EA"/>
<path opacity="0.2" d="M25.4806 113.948C25.0473 113.91 24.6421 113.717 24.3397 113.404C24.0071 113.058 23.8251 112.593 23.8334 112.112C23.8418 111.631 24.0398 111.173 24.3842 110.838L26.6238 108.671L26.4946 108.537L24.1214 110.833C23.7769 111.168 23.5789 111.626 23.5706 112.107C23.5622 112.588 23.7443 113.053 24.0769 113.4C24.2578 113.587 24.4769 113.733 24.7191 113.827C24.9613 113.922 25.2211 113.963 25.4806 113.948Z" fill="black"/>
<path d="M18.3119 103.195C18.6563 102.859 18.8544 102.401 18.8627 101.92C18.871 101.44 18.689 100.975 18.3564 100.628C18.0217 100.283 17.5644 100.085 17.0842 100.076C16.604 100.068 16.14 100.25 15.7936 100.583L13.3535 102.944L15.8718 105.555L18.3119 103.195Z" fill="#3F3D56"/>
<path d="M13.6319 107.722L16.0052 105.426L13.4869 102.814L11.1137 105.11C10.7692 105.445 10.5712 105.903 10.5628 106.384C10.5545 106.865 10.7365 107.33 11.0692 107.677C11.4038 108.022 11.8612 108.22 12.3413 108.229C12.8215 108.237 13.2855 108.055 13.6319 107.722Z" fill="#0046EA"/>
<path opacity="0.2" d="M12.4729 108.225C12.0396 108.187 11.6344 107.995 11.332 107.682C10.9994 107.335 10.8173 106.87 10.8257 106.389C10.834 105.908 11.0321 105.45 11.3765 105.115L13.616 102.948L13.4869 102.814L11.1137 105.11C10.7692 105.445 10.5712 105.903 10.5628 106.384C10.5545 106.865 10.7365 107.33 11.0692 107.677C11.2501 107.864 11.4691 108.01 11.7114 108.104C11.9536 108.199 12.2133 108.24 12.4729 108.225Z" fill="black"/>
<path d="M36.8373 96.2866C37.1817 95.9514 37.3797 95.4933 37.3881 95.0124C37.3964 94.5315 37.2144 94.0669 36.8818 93.72C36.5471 93.375 36.0897 93.1766 35.6096 93.1682C35.1294 93.1598 34.6654 93.3421 34.319 93.6753L31.8789 96.0358L34.3971 98.647L36.8373 96.2866Z" fill="#3F3D56"/>
<path d="M32.1571 100.813L34.5303 98.5176L32.0121 95.9062L29.6388 98.2021C29.2944 98.5373 29.0964 98.9953 29.088 99.4762C29.0797 99.9571 29.2617 100.422 29.5943 100.769C29.929 101.114 30.3864 101.312 30.8665 101.32C31.3467 101.329 31.8107 101.146 32.1571 100.813Z" fill="#0046EA"/>
<path opacity="0.2" d="M30.9981 101.316C30.5648 101.279 30.1596 101.086 29.8572 100.773C29.5246 100.426 29.3425 99.9618 29.3509 99.4809C29.3592 99 29.5572 98.5418 29.9017 98.2066L32.1412 96.0403L32.0121 95.9062L29.6388 98.2021C29.2944 98.5373 29.0964 98.9953 29.088 99.4762C29.0797 99.9571 29.2617 100.422 29.5943 100.769C29.7753 100.956 29.9943 101.101 30.2365 101.196C30.4788 101.29 30.7385 101.332 30.9981 101.316Z" fill="black"/>
<path d="M32.7189 110.603C32.3884 110.254 31.9335 110.05 31.4535 110.036C30.9734 110.021 30.5073 110.198 30.1569 110.527C29.8084 110.858 29.6048 111.314 29.5906 111.794C29.5765 112.275 29.7528 112.742 30.0812 113.093L32.4082 115.565L35.0459 113.075L32.7189 110.603Z" fill="#3F3D56"/>
<path d="M37.1822 115.343L34.9189 112.939L32.2812 115.429L34.5446 117.834C34.875 118.183 35.3299 118.386 35.81 118.401C36.29 118.415 36.756 118.238 37.1065 117.909C37.455 117.578 37.6585 117.123 37.6727 116.642C37.6869 116.161 37.5106 115.694 37.1822 115.343Z" fill="#0046EA"/>
<path opacity="0.2" d="M37.6704 116.512C37.6279 116.946 37.4304 117.349 37.1143 117.648C36.7639 117.977 36.2977 118.154 35.8176 118.14C35.3376 118.125 34.8828 117.921 34.5522 117.572L32.4165 115.303L32.2812 115.431L34.5446 117.836C34.875 118.185 35.3299 118.389 35.81 118.403C36.29 118.417 36.756 118.24 37.1065 117.911C37.2954 117.732 37.4436 117.515 37.5409 117.273C37.6382 117.032 37.6823 116.772 37.6704 116.512Z" fill="black"/>
<path d="M19.9103 110.406C19.5798 110.057 19.1249 109.853 18.6449 109.839C18.1648 109.825 17.6987 110.002 17.3483 110.331C16.9998 110.662 16.7962 111.117 16.782 111.598C16.7679 112.079 16.9442 112.546 17.2726 112.897L19.5996 115.369L22.2373 112.879L19.9103 110.406Z" fill="#3F3D56"/>
<path d="M24.3735 115.147L22.1103 112.742L19.4727 115.233L21.7359 117.637C22.0663 117.986 22.5213 118.19 23.0013 118.204C23.4813 118.218 23.9475 118.042 24.2979 117.713C24.6464 117.382 24.85 116.926 24.8641 116.446C24.8783 115.965 24.7019 115.498 24.3735 115.147Z" fill="#0046EA"/>
<path opacity="0.2" d="M24.8618 116.314C24.8193 116.747 24.6218 117.151 24.3057 117.45C23.9552 117.779 23.4891 117.955 23.0091 117.941C22.529 117.927 22.0741 117.723 21.7437 117.374L19.6079 115.105L19.4727 115.233L21.7359 117.637C22.0663 117.986 22.5213 118.19 23.0013 118.204C23.4813 118.219 23.9475 118.042 24.2979 117.713C24.4868 117.534 24.6349 117.316 24.7322 117.075C24.8295 116.834 24.8737 116.574 24.8618 116.314Z" fill="black"/>
<path d="M23.5147 103.893C23.5148 104.497 23.3068 105.082 22.9257 105.549C22.5447 106.017 22.0141 106.338 21.4237 106.459C21.0787 106.529 20.7232 106.529 20.3782 106.459C19.7878 106.338 19.2573 106.017 18.8763 105.549C18.4952 105.082 18.2871 104.497 18.2871 103.893C18.2871 103.29 18.4952 102.705 18.8763 102.237C19.2573 101.77 19.7878 101.449 20.3782 101.328C20.7232 101.258 21.0787 101.258 21.4237 101.328C22.0141 101.448 22.5447 101.77 22.9257 102.237C23.3068 102.705 23.5148 103.29 23.5147 103.893Z" fill="#0046EA"/>
<path opacity="0.2" d="M21.4244 101.328V106.459C21.0794 106.529 20.7239 106.529 20.3789 106.459V101.328C20.7239 101.258 21.0794 101.258 21.4244 101.328Z" fill="black"/>
<path d="M24.6983 93.4323C24.6984 94.0358 24.4904 94.6208 24.1093 95.0883C23.7283 95.5558 23.1977 95.8771 22.6073 95.9978C22.2622 96.0676 21.9068 96.0676 21.5618 95.9978C20.9714 95.877 20.4409 95.5557 20.0598 95.0882C19.6788 94.6207 19.4707 94.0358 19.4707 93.4323C19.4707 92.8289 19.6788 92.2439 20.0598 91.7764C20.4409 91.309 20.9714 90.9877 21.5618 90.8668C21.9068 90.797 22.2622 90.797 22.6073 90.8668C23.1977 90.9875 23.7283 91.3088 24.1093 91.7763C24.4904 92.2438 24.6984 92.8288 24.6983 93.4323Z" fill="#0046EA"/>
<path opacity="0.2" d="M22.606 90.8668V95.9978C22.261 96.0676 21.9055 96.0676 21.5605 95.9978V90.8668C21.9055 90.797 22.261 90.797 22.606 90.8668Z" fill="black"/>
<path d="M24.6983 108.432C24.6984 109.035 24.4904 109.62 24.1093 110.088C23.7283 110.555 23.1977 110.877 22.6073 110.997C22.2622 111.067 21.9068 111.067 21.5618 110.997C20.9714 110.877 20.4409 110.555 20.0598 110.088C19.6788 109.62 19.4707 109.035 19.4707 108.432C19.4707 107.828 19.6788 107.243 20.0598 106.776C20.4409 106.309 20.9714 105.987 21.5618 105.866C21.9068 105.797 22.2622 105.797 22.6073 105.866C23.1977 105.987 23.7283 106.308 24.1093 106.776C24.4904 107.243 24.6984 107.828 24.6983 108.432Z" fill="#0046EA"/>
<path opacity="0.2" d="M22.606 105.866V110.997C22.261 111.067 21.9055 111.067 21.5605 110.997V105.866C21.9055 105.797 22.261 105.797 22.606 105.866Z" fill="black"/>
<path d="M31.2022 115.737C31.2023 116.34 30.9943 116.925 30.6132 117.393C30.2322 117.86 29.7016 118.182 29.1112 118.302C28.7662 118.372 28.4107 118.372 28.0657 118.302C27.4753 118.182 26.9448 117.86 26.5638 117.393C26.1827 116.925 25.9746 116.34 25.9746 115.737C25.9746 115.133 26.1827 114.548 26.5638 114.081C26.9448 113.614 27.4753 113.292 28.0657 113.171C28.4107 113.102 28.7662 113.102 29.1112 113.171C29.7016 113.292 30.2322 113.613 30.6132 114.081C30.9943 114.548 31.2024 115.133 31.2022 115.737Z" fill="#0046EA"/>
<path opacity="0.2" d="M29.11 113.171V118.302C28.765 118.372 28.4095 118.372 28.0645 118.302V113.171C28.4095 113.102 28.765 113.102 29.11 113.171Z" fill="black"/>
<path d="M36.9455 102.299C37.3794 102.718 37.6556 103.274 37.7272 103.873C37.7989 104.472 37.6616 105.078 37.3387 105.588C37.1494 105.885 36.9027 106.141 36.6131 106.341C36.1166 106.683 35.5174 106.843 34.9169 106.793C34.3164 106.744 33.7515 106.488 33.3177 106.069C32.8839 105.65 32.6078 105.094 32.5361 104.495C32.4645 103.896 32.6017 103.29 32.9245 102.781C33.1138 102.483 33.3605 102.227 33.6501 102.027C34.1466 101.685 34.7458 101.525 35.3463 101.575C35.9468 101.624 36.5118 101.88 36.9455 102.299Z" fill="#0046EA"/>
<path opacity="0.2" d="M33.6513 102.027L37.3399 105.587C37.1507 105.885 36.904 106.141 36.6144 106.341L32.9258 102.781C33.115 102.483 33.3617 102.227 33.6513 102.027Z" fill="black"/>
<path d="M37.7345 108.022C38.1685 108.441 38.4446 108.997 38.5163 109.596C38.5879 110.195 38.4507 110.801 38.1277 111.31C37.9385 111.608 37.6918 111.864 37.4021 112.064C36.9056 112.406 36.3064 112.566 35.7059 112.516C35.1055 112.467 34.5405 112.211 34.1067 111.792C33.6729 111.373 33.3968 110.817 33.3252 110.218C33.2535 109.619 33.3907 109.013 33.7135 108.504C33.9028 108.206 34.1495 107.95 34.4391 107.75C34.9356 107.408 35.5348 107.248 36.1353 107.298C36.7358 107.347 37.3008 107.603 37.7345 108.022Z" fill="#0046EA"/>
<path opacity="0.2" d="M34.4385 107.752L38.1271 111.312C37.9378 111.61 37.6911 111.866 37.4015 112.066L33.7129 108.506C33.9022 108.208 34.1489 107.952 34.4385 107.752Z" fill="black"/>
<path d="M14.2834 109.406C14.7173 109.825 14.9935 110.381 15.0651 110.98C15.1368 111.579 14.9995 112.185 14.6766 112.694C14.4873 112.991 14.2406 113.248 13.951 113.448C13.4545 113.79 12.8553 113.95 12.2548 113.9C11.6543 113.85 11.0894 113.594 10.6556 113.176C10.2218 112.757 9.94566 112.201 9.87402 111.602C9.80238 111.002 9.93957 110.397 10.2624 109.887C10.4517 109.59 10.6984 109.334 10.988 109.133C11.4845 108.791 12.0837 108.632 12.6842 108.681C13.2847 108.731 13.8497 108.987 14.2834 109.406Z" fill="#0046EA"/>
<path opacity="0.2" d="M10.9873 109.133L14.6759 112.694C14.4867 112.991 14.24 113.248 13.9503 113.448L10.2617 109.887C10.451 109.59 10.6977 109.334 10.9873 109.133Z" fill="black"/>
<path opacity="0.2" d="M5.84669 62.3926H4.86133V69.6955H5.84669V62.3926Z" fill="black"/>
<path opacity="0.2" d="M11.5616 62.3926H10.5762V69.6955H11.5616V62.3926Z" fill="black"/>
<path opacity="0.2" d="M17.2764 62.3926H16.291V69.6955H17.2764V62.3926Z" fill="black"/>
<path opacity="0.2" d="M22.9913 62.3926H22.0059V69.6955H22.9913V62.3926Z" fill="black"/>
<path opacity="0.2" d="M28.7061 62.3926H27.7207V69.6955H28.7061V62.3926Z" fill="black"/>
<path opacity="0.2" d="M34.4229 62.3926H33.4375V69.6955H34.4229V62.3926Z" fill="black"/>
<path opacity="0.2" d="M40.1376 62.3926H39.1523V69.6955H40.1376V62.3926Z" fill="black"/>
</g>
</g>
<defs>
<clipPath id="clip0_39_2">
<rect width="110" height="122" fill="white"/>
</clipPath>
</defs>
</svg>
