<svg width="140" height="101" viewBox="0 0 140 101" fill="none" xmlns="http://www.w3.org/2000/svg">
<g id="img" clip-path="url(#clip0_39_286)">
<g id="Clip path group">
<mask id="mask0_39_286" style="mask-type:luminance" maskUnits="userSpaceOnUse" x="0" y="0" width="140" height="101">
<g id="clip0_15_1663">
<path id="Vector" d="M140 0H0V101H140V0Z" fill="white"/>
</g>
</mask>
<g mask="url(#mask0_39_286)">
<g id="Group">
<path id="Vector_2" d="M6.47104 20.5646C7.70309 20.5646 8.70186 19.5554 8.70186 18.3106C8.70186 17.0657 7.70309 16.0566 6.47104 16.0566C5.239 16.0566 4.24023 17.0657 4.24023 18.3106C4.24023 19.5554 5.239 20.5646 6.47104 20.5646Z" fill="#E6E6E6"/>
<path id="Vector_3" d="M13.1624 20.5646C14.3945 20.5646 15.3933 19.5554 15.3933 18.3106C15.3933 17.0657 14.3945 16.0566 13.1624 16.0566C11.9304 16.0566 10.9316 17.0657 10.9316 18.3106C10.9316 19.5554 11.9304 20.5646 13.1624 20.5646Z" fill="#E6E6E6"/>
<path id="Vector_4" d="M19.8558 20.5646C21.0879 20.5646 22.0867 19.5554 22.0867 18.3106C22.0867 17.0657 21.0879 16.0566 19.8558 16.0566C18.6238 16.0566 17.625 17.0657 17.625 18.3106C17.625 19.5554 18.6238 20.5646 19.8558 20.5646Z" fill="#E6E6E6"/>
<path id="Vector_5" d="M26.5472 20.5646C27.7793 20.5646 28.778 19.5554 28.778 18.3106C28.778 17.0657 27.7793 16.0566 26.5472 16.0566C25.3152 16.0566 24.3164 17.0657 24.3164 18.3106C24.3164 19.5554 25.3152 20.5646 26.5472 20.5646Z" fill="#E6E6E6"/>
<path id="Vector_6" d="M33.2406 20.5646C34.4727 20.5646 35.4715 19.5554 35.4715 18.3106C35.4715 17.0657 34.4727 16.0566 33.2406 16.0566C32.0086 16.0566 31.0098 17.0657 31.0098 18.3106C31.0098 19.5554 32.0086 20.5646 33.2406 20.5646Z" fill="#E6E6E6"/>
<path id="Vector_7" d="M39.932 20.5646C41.1641 20.5646 42.1628 19.5554 42.1628 18.3106C42.1628 17.0657 41.1641 16.0566 39.932 16.0566C38.7 16.0566 37.7012 17.0657 37.7012 18.3106C37.7012 19.5554 38.7 20.5646 39.932 20.5646Z" fill="#E6E6E6"/>
<path id="Vector_8" d="M46.6253 20.5646C47.8574 20.5646 48.8561 19.5554 48.8561 18.3106C48.8561 17.0657 47.8574 16.0566 46.6253 16.0566C45.3933 16.0566 44.3945 17.0657 44.3945 18.3106C44.3945 19.5554 45.3933 20.5646 46.6253 20.5646Z" fill="#E6E6E6"/>
<path id="Vector_9" d="M51.7806 21.0542H1.31603C1.07535 21.0539 0.844598 20.9572 0.674409 20.7852C0.50422 20.6133 0.408486 20.3801 0.408203 20.1369V16.4818C0.408485 16.2386 0.50422 16.0054 0.674409 15.8335C0.844598 15.6615 1.07534 15.5648 1.31603 15.5645H51.7806C52.0213 15.5648 52.2521 15.6615 52.4223 15.8335C52.5925 16.0054 52.6882 16.2386 52.6885 16.4818V20.1369C52.6882 20.3801 52.5925 20.6133 52.4223 20.7852C52.2521 20.9572 52.0213 21.0539 51.7806 21.0542ZM1.31603 15.9314C1.17161 15.9316 1.03316 15.9896 0.931044 16.0928C0.828928 16.196 0.771489 16.3359 0.771332 16.4818V20.1369C0.77149 20.2828 0.828928 20.4227 0.931044 20.5259C1.03316 20.6291 1.17161 20.6871 1.31603 20.6873H51.7806C51.9251 20.6871 52.0635 20.6291 52.1656 20.5259C52.2677 20.4227 52.3252 20.2828 52.3253 20.1369V16.4818C52.3252 16.3359 52.2677 16.196 52.1656 16.0928C52.0635 15.9896 51.9251 15.9316 51.7806 15.9314H1.31603Z" fill="#E6E6E6"/>
<path id="Vector_10" d="M12.1153 0.527021C12.2536 0.52718 12.3862 0.582757 12.484 0.681557C12.5817 0.780357 12.6367 0.91431 12.6369 1.05403V12.4745C12.6367 12.6142 12.5817 12.7482 12.484 12.847C12.3862 12.9458 12.2536 13.0013 12.1153 13.0015H1.0432C0.904918 13.0013 0.77234 12.9458 0.674556 12.847C0.576773 12.7482 0.521768 12.6142 0.52161 12.4745V1.05404C0.521768 0.91432 0.576773 0.780364 0.674556 0.681565C0.77234 0.582765 0.904918 0.527188 1.0432 0.527028L12.1153 0.527021ZM12.1153 7.56974e-06H1.0432C0.76653 7.56974e-06 0.501187 0.111058 0.305549 0.308729C0.109911 0.506401 0 0.774502 0 1.05405V12.4745C0 12.754 0.109911 13.0221 0.305549 13.2198C0.501187 13.4175 0.76653 13.5285 1.0432 13.5285H12.1153C12.392 13.5285 12.6573 13.4175 12.853 13.2198C13.0486 13.0221 13.1585 12.754 13.1585 12.4745V1.05404C13.1585 0.774494 13.0486 0.506393 12.853 0.308722C12.6573 0.11105 12.392 8.00831e-06 12.1153 7.56974e-06Z" fill="#E6E6E6"/>
<path id="Vector_11" d="M10.3879 3.52897H3.00068C2.9663 3.52918 2.93221 3.52253 2.90038 3.50938C2.86856 3.49623 2.83962 3.47686 2.81523 3.45237C2.79084 3.42788 2.77149 3.39876 2.75828 3.36668C2.74508 3.3346 2.73828 3.30021 2.73828 3.26547C2.73828 3.23073 2.74508 3.19633 2.75828 3.16425C2.77149 3.13217 2.79084 3.10305 2.81523 3.07856C2.83962 3.05407 2.86856 3.0347 2.90038 3.02155C2.93221 3.0084 2.9663 3.00174 3.00068 3.00196H10.3879C10.4223 3.00174 10.4563 3.0084 10.4882 3.02155C10.52 3.0347 10.5489 3.05407 10.5733 3.07856C10.5977 3.10305 10.6171 3.13217 10.6303 3.16425C10.6435 3.19633 10.6503 3.23073 10.6503 3.26547C10.6503 3.30021 10.6435 3.3346 10.6303 3.36668C10.6171 3.39876 10.5977 3.42788 10.5733 3.45237C10.5489 3.47686 10.52 3.49623 10.4882 3.50938C10.4563 3.52253 10.4223 3.52918 10.3879 3.52897Z" fill="#0046EA"/>
<path id="Vector_12" d="M10.3879 5.3942H3.00068C2.9663 5.39441 2.93221 5.38775 2.90038 5.37461C2.86856 5.36146 2.83962 5.34208 2.81523 5.31759C2.79084 5.2931 2.77149 5.26398 2.75828 5.23191C2.74508 5.19983 2.73828 5.16543 2.73828 5.13069C2.73828 5.09595 2.74508 5.06155 2.75828 5.02948C2.77149 4.9974 2.79084 4.96828 2.81523 4.94379C2.83962 4.9193 2.86856 4.89993 2.90038 4.88678C2.93221 4.87363 2.9663 4.86697 3.00068 4.86719H10.3879C10.4223 4.86697 10.4563 4.87363 10.4882 4.88678C10.52 4.89993 10.5489 4.9193 10.5733 4.94379C10.5977 4.96828 10.6171 4.9974 10.6303 5.02948C10.6435 5.06155 10.6503 5.09595 10.6503 5.13069C10.6503 5.16543 10.6435 5.19983 10.6303 5.23191C10.6171 5.26398 10.5977 5.2931 10.5733 5.31759C10.5489 5.34208 10.52 5.36146 10.4882 5.37461C10.4563 5.38775 10.4223 5.39441 10.3879 5.3942Z" fill="#0046EA"/>
<path id="Vector_13" d="M10.3879 7.26139H3.00068C2.9663 7.26161 2.93221 7.25495 2.90038 7.2418C2.86856 7.22865 2.83962 7.20928 2.81523 7.18479C2.79084 7.1603 2.77149 7.13118 2.75828 7.0991C2.74508 7.06703 2.73828 7.03263 2.73828 6.99789C2.73828 6.96315 2.74508 6.92875 2.75828 6.89667C2.77149 6.8646 2.79084 6.83548 2.81523 6.81098C2.83962 6.78649 2.86856 6.76712 2.90038 6.75397C2.93221 6.74083 2.9663 6.73417 3.00068 6.73438H10.3879C10.4223 6.73417 10.4563 6.74083 10.4882 6.75397C10.52 6.76712 10.5489 6.78649 10.5733 6.81098C10.5977 6.83548 10.6171 6.8646 10.6303 6.89667C10.6435 6.92875 10.6503 6.96315 10.6503 6.99789C10.6503 7.03263 10.6435 7.06703 10.6303 7.0991C10.6171 7.13118 10.5977 7.1603 10.5733 7.18479C10.5489 7.20928 10.52 7.22865 10.4882 7.2418C10.4563 7.25495 10.4223 7.26161 10.3879 7.26139Z" fill="#0046EA"/>
<path id="Vector_14" d="M10.3879 9.12662H3.00068C2.9663 9.12684 2.93221 9.12018 2.90038 9.10703C2.86856 9.09388 2.83962 9.07451 2.81523 9.05002C2.79084 9.02553 2.77149 8.99641 2.75828 8.96433C2.74508 8.93225 2.73828 8.89786 2.73828 8.86312C2.73828 8.82837 2.74508 8.79398 2.75828 8.7619C2.77149 8.72982 2.79084 8.7007 2.81523 8.67621C2.83962 8.65172 2.86856 8.63235 2.90038 8.6192C2.93221 8.60605 2.9663 8.5994 3.00068 8.59961H10.3879C10.4223 8.5994 10.4563 8.60605 10.4882 8.6192C10.52 8.63235 10.5489 8.65172 10.5733 8.67621C10.5977 8.7007 10.6171 8.72982 10.6303 8.7619C10.6435 8.79398 10.6503 8.82837 10.6503 8.86312C10.6503 8.89786 10.6435 8.93225 10.6303 8.96433C10.6171 8.99641 10.5977 9.02553 10.5733 9.05002C10.5489 9.07451 10.52 9.09388 10.4882 9.10703C10.4563 9.12018 10.4223 9.12684 10.3879 9.12662Z" fill="#0046EA"/>
<path id="Vector_15" d="M10.3883 10.9938H3.00103C2.93187 10.9938 2.86553 10.966 2.81662 10.9166C2.76771 10.8672 2.74023 10.8002 2.74023 10.7303C2.74023 10.6604 2.76771 10.5934 2.81662 10.5439C2.86553 10.4945 2.93187 10.4668 3.00103 10.4668H10.3883C10.4574 10.4668 10.5238 10.4945 10.5727 10.5439C10.6216 10.5934 10.6491 10.6604 10.6491 10.7303C10.6491 10.8002 10.6216 10.8672 10.5727 10.9166C10.5238 10.966 10.4574 10.9938 10.3883 10.9938Z" fill="#0046EA"/>
<path id="Vector_16" d="M49.9317 0.527021C50.07 0.52718 50.2026 0.582757 50.3004 0.681557C50.3982 0.780357 50.4532 0.91431 50.4533 1.05403V12.4745C50.4532 12.6142 50.3982 12.7482 50.3004 12.847C50.2026 12.9458 50.07 13.0013 49.9317 13.0015H38.8596C38.7214 13.0013 38.5888 12.9458 38.491 12.847C38.3932 12.7482 38.3382 12.6142 38.338 12.4745V1.05404C38.3382 0.91432 38.3932 0.780364 38.491 0.681565C38.5888 0.582765 38.7214 0.527188 38.8596 0.527028L49.9317 0.527021ZM49.9317 7.56974e-06H38.8596C38.583 7.56974e-06 38.3176 0.111058 38.122 0.308729C37.9264 0.506401 37.8164 0.774502 37.8164 1.05405V12.4745C37.8164 12.754 37.9264 13.0221 38.122 13.2198C38.3176 13.4175 38.583 13.5285 38.8596 13.5285H49.9317C50.2084 13.5285 50.4738 13.4175 50.6694 13.2198C50.865 13.0221 50.9749 12.754 50.9749 12.4745V1.05404C50.9749 0.774494 50.865 0.506393 50.6694 0.308722C50.4738 0.11105 50.2084 7.56974e-06 49.9317 7.56974e-06Z" fill="#E6E6E6"/>
<path id="Vector_17" d="M48.2044 3.52897H40.8172C40.7828 3.52918 40.7487 3.52253 40.7169 3.50938C40.6851 3.49623 40.6561 3.47686 40.6318 3.45237C40.6074 3.42788 40.588 3.39876 40.5748 3.36668C40.5616 3.3346 40.5548 3.30021 40.5548 3.26547C40.5548 3.23073 40.5616 3.19633 40.5748 3.16425C40.588 3.13217 40.6074 3.10305 40.6318 3.07856C40.6561 3.05407 40.6851 3.0347 40.7169 3.02155C40.7487 3.0084 40.7828 3.00174 40.8172 3.00196H48.2044C48.2733 3.00239 48.3393 3.03034 48.3878 3.07971C48.4364 3.12908 48.4636 3.19586 48.4636 3.26547C48.4636 3.33507 48.4364 3.40185 48.3878 3.45122C48.3393 3.50059 48.2733 3.52854 48.2044 3.52897Z" fill="#0046EA"/>
<path id="Vector_18" d="M48.2043 5.3942H40.8171C40.7827 5.39441 40.7486 5.38775 40.7168 5.37461C40.685 5.36146 40.656 5.34208 40.6317 5.31759C40.6073 5.2931 40.5879 5.26398 40.5747 5.23191C40.5615 5.19983 40.5547 5.16543 40.5547 5.13069C40.5547 5.09595 40.5615 5.06155 40.5747 5.02948C40.5879 4.9974 40.6073 4.96828 40.6317 4.94379C40.656 4.9193 40.685 4.89993 40.7168 4.88678C40.7486 4.87363 40.7827 4.86697 40.8171 4.86719H48.2043C48.2732 4.86761 48.3392 4.89556 48.3877 4.94493C48.4363 4.99431 48.4635 5.06108 48.4635 5.13069C48.4635 5.2003 48.4363 5.26708 48.3877 5.31645C48.3392 5.36582 48.2732 5.39377 48.2043 5.3942Z" fill="#0046EA"/>
<path id="Vector_19" d="M48.2043 7.26139H40.8171C40.7827 7.26161 40.7486 7.25495 40.7168 7.2418C40.685 7.22865 40.656 7.20928 40.6317 7.18479C40.6073 7.1603 40.5879 7.13118 40.5747 7.0991C40.5615 7.06703 40.5547 7.03263 40.5547 6.99789C40.5547 6.96315 40.5615 6.92875 40.5747 6.89667C40.5879 6.8646 40.6073 6.83548 40.6317 6.81098C40.656 6.78649 40.685 6.76712 40.7168 6.75397C40.7486 6.74083 40.7827 6.73417 40.8171 6.73438H48.2043C48.2732 6.73481 48.3392 6.76276 48.3877 6.81213C48.4363 6.8615 48.4635 6.92828 48.4635 6.99789C48.4635 7.06749 48.4363 7.13428 48.3877 7.18365C48.3392 7.23302 48.2732 7.26097 48.2043 7.26139Z" fill="#0046EA"/>
<path id="Vector_20" d="M48.2043 9.12662H40.8171C40.7827 9.12684 40.7486 9.12018 40.7168 9.10703C40.685 9.09388 40.656 9.07451 40.6317 9.05002C40.6073 9.02553 40.5879 8.99641 40.5747 8.96433C40.5615 8.93225 40.5547 8.89786 40.5547 8.86312C40.5547 8.82837 40.5615 8.79398 40.5747 8.7619C40.5879 8.72982 40.6073 8.7007 40.6317 8.67621C40.656 8.65172 40.685 8.63235 40.7168 8.6192C40.7486 8.60605 40.7827 8.5994 40.8171 8.59961H48.2043C48.2732 8.60004 48.3392 8.62799 48.3877 8.67736C48.4363 8.72673 48.4635 8.79351 48.4635 8.86312C48.4635 8.93272 48.4363 8.9995 48.3877 9.04887C48.3392 9.09825 48.2732 9.1262 48.2043 9.12662Z" fill="#0046EA"/>
<path id="Vector_21" d="M48.2046 10.9938H40.8174C40.7482 10.9938 40.6819 10.966 40.633 10.9166C40.5841 10.8672 40.5566 10.8002 40.5566 10.7303C40.5566 10.6604 40.5841 10.5934 40.633 10.5439C40.6819 10.4945 40.7482 10.4668 40.8174 10.4668H48.2046C48.2738 10.4668 48.3401 10.4945 48.389 10.5439C48.438 10.5934 48.4654 10.6604 48.4654 10.7303C48.4654 10.8002 48.438 10.8672 48.389 10.9166C48.3401 10.966 48.2738 10.9938 48.2046 10.9938Z" fill="#0046EA"/>
<path id="Vector_22" d="M87.5645 22.486C87.7028 22.4861 87.8354 22.5417 87.9331 22.6405C88.0309 22.7393 88.0859 22.8733 88.0861 23.013V34.4334C88.0859 34.5732 88.0309 34.7071 87.9331 34.8059C87.8354 34.9047 87.7028 34.9603 87.5645 34.9604H76.4924C76.3541 34.9603 76.2215 34.9047 76.1237 34.8059C76.026 34.7071 75.971 34.5732 75.9708 34.4334V23.013C75.971 22.8733 76.026 22.7393 76.1237 22.6405C76.2215 22.5417 76.3541 22.4862 76.4924 22.486H87.5645ZM87.5645 21.959H76.4924C76.2157 21.959 75.9504 22.07 75.7547 22.2677C75.5591 22.4654 75.4492 22.7335 75.4492 23.013V34.4335C75.4492 34.713 75.5591 34.9811 75.7547 35.1788C75.9504 35.3764 76.2157 35.4875 76.4924 35.4875H87.5645C87.8412 35.4875 88.1065 35.3764 88.3021 35.1788C88.4978 34.9811 88.6077 34.713 88.6077 34.4335V23.013C88.6077 22.7335 88.4978 22.4654 88.3021 22.2677C88.1065 22.07 87.8412 21.959 87.5645 21.959Z" fill="#0046EA"/>
<path id="Vector_23" d="M85.8372 25.4879H78.4499C78.4156 25.4881 78.3815 25.4815 78.3496 25.4683C78.3178 25.4552 78.2889 25.4358 78.2645 25.4113C78.2401 25.3868 78.2207 25.3577 78.2075 25.3256C78.1943 25.2936 78.1875 25.2592 78.1875 25.2244C78.1875 25.1897 78.1943 25.1553 78.2075 25.1232C78.2207 25.0911 78.2401 25.062 78.2645 25.0375C78.2889 25.013 78.3178 24.9937 78.3496 24.9805C78.3815 24.9674 78.4156 24.9607 78.4499 24.9609H85.8372C85.9061 24.9613 85.972 24.9893 86.0205 25.0387C86.0691 25.088 86.0964 25.1548 86.0964 25.2244C86.0964 25.294 86.0691 25.3608 86.0205 25.4102C85.972 25.4596 85.9061 25.4875 85.8372 25.4879Z" fill="#0046EA"/>
<path id="Vector_24" d="M85.8376 27.3532H78.4503C78.3812 27.3532 78.3148 27.3255 78.2659 27.276C78.217 27.2266 78.1895 27.1596 78.1895 27.0897C78.1895 27.0198 78.217 26.9528 78.2659 26.9034C78.3148 26.854 78.3812 26.8262 78.4503 26.8262H85.8376C85.9067 26.8262 85.9731 26.854 86.022 26.9034C86.0709 26.9528 86.0983 27.0198 86.0983 27.0897C86.0983 27.1596 86.0709 27.2266 86.022 27.276C85.9731 27.3255 85.9067 27.3532 85.8376 27.3532Z" fill="#0046EA"/>
<path id="Vector_25" d="M85.8368 29.2204H78.4496C78.4153 29.2205 78.3812 29.2139 78.3494 29.2007C78.3176 29.1875 78.2887 29.1681 78.2644 29.1437C78.24 29.1192 78.2207 29.0901 78.2075 29.058C78.1943 29.0259 78.1875 28.9916 78.1875 28.9569C78.1875 28.9221 78.1943 28.8878 78.2075 28.8557C78.2207 28.8237 78.24 28.7945 78.2644 28.7701C78.2887 28.7456 78.3176 28.7262 78.3494 28.713C78.3812 28.6999 78.4153 28.6932 78.4496 28.6934H85.8368C85.9057 28.6938 85.9717 28.7217 86.0202 28.7711C86.0688 28.8205 86.096 28.8872 86.096 28.9569C86.096 29.0265 86.0688 29.0932 86.0202 29.1426C85.9717 29.192 85.9057 29.2199 85.8368 29.2204Z" fill="#0046EA"/>
<path id="Vector_26" d="M85.8372 31.0857H78.4499C78.4156 31.0859 78.3815 31.0792 78.3496 31.0661C78.3178 31.0529 78.2889 31.0335 78.2645 31.009C78.2401 30.9846 78.2207 30.9554 78.2075 30.9234C78.1943 30.8913 78.1875 30.8569 78.1875 30.8221C78.1875 30.7874 78.1943 30.753 78.2075 30.7209C78.2207 30.6889 78.2401 30.6597 78.2645 30.6352C78.2889 30.6108 78.3178 30.5914 78.3496 30.5782C78.3815 30.5651 78.4156 30.5584 78.4499 30.5586H85.8372C85.9061 30.5591 85.972 30.587 86.0205 30.6364C86.0691 30.6858 86.0964 30.7525 86.0964 30.8221C86.0964 30.8918 86.0691 30.9585 86.0205 31.0079C85.972 31.0573 85.9061 31.0852 85.8372 31.0857Z" fill="#0046EA"/>
<path id="Vector_27" d="M85.8372 32.9528H78.4499C78.4156 32.9531 78.3815 32.9464 78.3496 32.9333C78.3178 32.9201 78.2889 32.9007 78.2645 32.8762C78.2401 32.8518 78.2207 32.8226 78.2075 32.7906C78.1943 32.7585 78.1875 32.7241 78.1875 32.6893C78.1875 32.6546 78.1943 32.6202 78.2075 32.5881C78.2207 32.556 78.2401 32.5269 78.2645 32.5024C78.2889 32.4779 78.3178 32.4586 78.3496 32.4454C78.3815 32.4323 78.4156 32.4256 78.4499 32.4258H85.8372C85.9061 32.4263 85.972 32.4542 86.0205 32.5036C86.0691 32.5529 86.0964 32.6197 86.0964 32.6893C86.0964 32.7589 86.0691 32.8257 86.0205 32.8751C85.972 32.9245 85.9061 32.9524 85.8372 32.9528Z" fill="#0046EA"/>
<path id="Vector_28" d="M31.1675 13.5294H19.8055C19.4982 13.5291 19.2036 13.4056 18.9864 13.186C18.7691 12.9665 18.6469 12.6689 18.6465 12.3584V4.14379C18.6469 3.83331 18.7691 3.53565 18.9863 3.31609C19.2036 3.09654 19.4982 2.97303 19.8055 2.97266H31.1675C31.4748 2.973 31.7694 3.0965 31.9867 3.31605C32.204 3.53561 32.3262 3.83329 32.3266 4.14379V12.3584C32.3262 12.6689 32.204 12.9666 31.9867 13.1861C31.7694 13.4056 31.4748 13.5291 31.1675 13.5294ZM19.8055 3.49968C19.6365 3.49989 19.4745 3.56783 19.355 3.68858C19.2355 3.80933 19.1683 3.97304 19.1681 4.14379V12.3584C19.1683 12.5292 19.2355 12.6929 19.355 12.8136C19.4745 12.9343 19.6365 13.0022 19.8055 13.0024H31.1675C31.3365 13.0022 31.4985 12.9343 31.618 12.8136C31.7375 12.6929 31.8048 12.5292 31.805 12.3584V4.14379C31.8048 3.97303 31.7375 3.80932 31.618 3.68857C31.4985 3.56782 31.3365 3.49989 31.1675 3.49968H19.8055Z" fill="#E6E6E6"/>
<path id="Vector_29" d="M29.1817 6.64811H21.7944C21.7255 6.64769 21.6596 6.61974 21.611 6.57037C21.5625 6.521 21.5352 6.45422 21.5352 6.38461C21.5352 6.315 21.5625 6.24822 21.611 6.19885C21.6596 6.14948 21.7255 6.12153 21.7944 6.1211H29.1817C29.216 6.12089 29.2501 6.12755 29.282 6.14069C29.3138 6.15384 29.3427 6.17322 29.3671 6.19771C29.3915 6.2222 29.4108 6.25132 29.4241 6.28339C29.4373 6.31547 29.4441 6.34987 29.4441 6.38461C29.4441 6.41935 29.4373 6.45375 29.4241 6.48582C29.4108 6.5179 29.3915 6.54702 29.3671 6.57151C29.3427 6.596 29.3138 6.61538 29.282 6.62852C29.2501 6.64167 29.216 6.64833 29.1817 6.64811Z" fill="#0046EA"/>
<path id="Vector_30" d="M29.1817 8.51334H21.7944C21.7255 8.51292 21.6596 8.48496 21.611 8.43559C21.5625 8.38622 21.5352 8.31944 21.5352 8.24984C21.5352 8.18023 21.5625 8.11345 21.611 8.06408C21.6596 8.01471 21.7255 7.98676 21.7944 7.98633H29.1817C29.216 7.98612 29.2501 7.99278 29.282 8.00592C29.3138 8.01907 29.3427 8.03845 29.3671 8.06294C29.3915 8.08743 29.4108 8.11655 29.4241 8.14862C29.4373 8.1807 29.4441 8.2151 29.4441 8.24984C29.4441 8.28458 29.4373 8.31898 29.4241 8.35105C29.4108 8.38313 29.3915 8.41225 29.3671 8.43674C29.3427 8.46123 29.3138 8.48061 29.282 8.49375C29.2501 8.5069 29.216 8.51356 29.1817 8.51334Z" fill="#0046EA"/>
<path id="Vector_31" d="M29.1817 10.3806H21.7944C21.7255 10.3802 21.6596 10.3522 21.611 10.3028C21.5625 10.2535 21.5352 10.1867 21.5352 10.1171C21.5352 10.0475 21.5625 9.98064 21.611 9.93126C21.6596 9.88189 21.7255 9.85394 21.7944 9.85352H29.1817C29.216 9.8533 29.2501 9.85996 29.282 9.87311C29.3138 9.88625 29.3427 9.90563 29.3671 9.93012C29.3915 9.95461 29.4108 9.98373 29.4241 10.0159C29.4373 10.0479 29.4441 10.0823 29.4441 10.1171C29.4441 10.1518 29.4373 10.1862 29.4241 10.2183C29.4108 10.2504 29.3915 10.2795 29.3671 10.304C29.3427 10.3285 29.3138 10.3478 29.282 10.361C29.2501 10.3741 29.216 10.3808 29.1817 10.3806Z" fill="#0046EA"/>
<path id="Vector_32" d="M68.8693 18.0798L57.9569 14.8823C57.6619 14.7955 57.413 14.594 57.2649 14.322C57.1167 14.0501 57.0814 13.7298 57.1666 13.4315L59.4311 5.54191C59.517 5.24381 59.7164 4.99231 59.9856 4.84259C60.2548 4.69287 60.5718 4.65716 60.867 4.74327L71.7794 7.94077C72.0744 8.02758 72.3234 8.2291 72.4715 8.50112C72.6197 8.77314 72.655 9.09344 72.5698 9.39175L70.3053 17.2814C70.2194 17.5795 70.0199 17.8309 69.7507 17.9806C69.4815 18.1303 69.1645 18.166 68.8693 18.0798ZM60.7217 5.24944C60.5593 5.20208 60.385 5.22174 60.237 5.30409C60.0889 5.38643 59.9793 5.52475 59.932 5.6887L57.6676 13.5783C57.6207 13.7423 57.6401 13.9185 57.7216 14.0681C57.8031 14.2176 57.9399 14.3284 58.1022 14.3762L69.0146 17.5737C69.177 17.6211 69.3513 17.6014 69.4993 17.5191C69.6474 17.4368 69.7571 17.2985 69.8044 17.1346L72.0688 9.24496C72.1157 9.08089 72.0963 8.90474 72.0148 8.75514C71.9333 8.60553 71.7964 8.4947 71.6341 8.44693L60.7217 5.24944Z" fill="#E6E6E6"/>
<path id="Vector_33" d="M68.8568 10.9117L61.7619 8.83285C61.6956 8.81328 61.6397 8.76793 61.6064 8.70675C61.5732 8.64556 61.5653 8.57355 61.5845 8.50652C61.6038 8.43948 61.6486 8.3829 61.7091 8.34918C61.7695 8.31547 61.8408 8.30738 61.9072 8.32668L69.0021 10.4056C69.0685 10.425 69.1246 10.4704 69.1579 10.5316C69.1913 10.5928 69.1992 10.6649 69.1799 10.732C69.1607 10.7992 69.1158 10.8558 69.0552 10.8895C68.9946 10.9232 68.9232 10.9312 68.8568 10.9117Z" fill="#0046EA"/>
<path id="Vector_34" d="M68.3436 12.7049L61.2487 10.626C61.2158 10.6163 61.1851 10.6002 61.1584 10.5786C61.1316 10.557 61.1094 10.5303 61.0929 10.4999C61.0763 10.4696 61.0659 10.4363 61.0621 10.4019C61.0584 10.3675 61.0613 10.3327 61.0709 10.2995C61.0804 10.2663 61.0963 10.2352 61.1177 10.2082C61.1391 10.1812 61.1656 10.1587 61.1956 10.142C61.2256 10.1253 61.2586 10.1148 61.2926 10.111C61.3266 10.1072 61.3611 10.1102 61.394 10.1198L68.4889 12.1987C68.5552 12.2183 68.6111 12.2636 68.6444 12.3248C68.6776 12.386 68.6855 12.458 68.6662 12.525C68.647 12.5921 68.6022 12.6487 68.5417 12.6824C68.4812 12.7161 68.41 12.7242 68.3436 12.7049Z" fill="#0046EA"/>
<path id="Vector_35" d="M67.8295 14.4977L60.7346 12.4188C60.6683 12.3992 60.6124 12.3538 60.5791 12.2927C60.5459 12.2315 60.538 12.1595 60.5572 12.0924C60.5765 12.0254 60.6213 11.9688 60.6817 11.9351C60.7422 11.9014 60.8135 11.8933 60.8799 11.9126L67.9748 13.9915C68.0412 14.011 68.0973 14.0563 68.1306 14.1175C68.164 14.1788 68.1719 14.2509 68.1526 14.318C68.1334 14.3851 68.0885 14.4417 68.0279 14.4754C67.9673 14.5091 67.8959 14.5171 67.8295 14.4977Z" fill="#0046EA"/>
<path id="Vector_36" d="M140 100.504H25.5487V101H140V100.504Z" fill="#E6E6E6"/>
<path id="Vector_37" d="M92.0021 99.7281H73.3906L74.0215 91.4414H91.3712L92.0021 99.7281Z" fill="#E6E6E6"/>
<path id="Vector_38" d="M93.2629 98.7715H72.4434V100.684H93.2629V98.7715Z" fill="#E6E6E6"/>
<path id="Vector_39" d="M118.341 38.0547H47.2072C46.7052 38.0547 46.2238 38.2562 45.8689 38.6148C45.5139 38.9735 45.3145 39.4599 45.3145 39.9671V83.792H120.234V39.9671C120.234 39.7159 120.185 39.4673 120.09 39.2352C119.995 39.0032 119.855 38.7924 119.679 38.6148C119.504 38.4373 119.295 38.2964 119.065 38.2003C118.836 38.1042 118.59 38.0547 118.341 38.0547Z" fill="#3F3D56"/>
<path id="Vector_40" d="M45.3145 83.793V90.9644C45.3145 91.2155 45.3635 91.4642 45.4586 91.6962C45.5537 91.9282 45.6931 92.139 45.8689 92.3166C46.0446 92.4942 46.2533 92.6351 46.4829 92.7312C46.7125 92.8273 46.9587 92.8767 47.2072 92.8767H118.341C118.843 92.8767 119.324 92.6753 119.679 92.3166C120.034 91.958 120.234 91.4716 120.234 90.9644V83.793H45.3145Z" fill="#E6E6E6"/>
<path id="Vector_41" d="M116.605 42.0391H49.0996V80.2863H116.605V42.0391Z" fill="#E6E6E6"/>
<path id="Vector_42" d="M82.8536 90.1665C83.8989 90.1665 84.7463 89.3103 84.7463 88.2542C84.7463 87.198 83.8989 86.3418 82.8536 86.3418C81.8083 86.3418 80.9609 87.198 80.9609 88.2542C80.9609 89.3103 81.8083 90.1665 82.8536 90.1665Z" fill="#3F3D56"/>
<path id="Vector_43" d="M51.2049 43.6535C51.4033 43.6535 51.5641 43.491 51.5641 43.2906C51.5641 43.0902 51.4033 42.9277 51.2049 42.9277C51.0066 42.9277 50.8457 43.0902 50.8457 43.2906C50.8457 43.491 51.0066 43.6535 51.2049 43.6535Z" fill="white"/>
<path id="Vector_44" d="M52.5682 43.6535C52.7666 43.6535 52.9274 43.491 52.9274 43.2906C52.9274 43.0902 52.7666 42.9277 52.5682 42.9277C52.3698 42.9277 52.209 43.0902 52.209 43.2906C52.209 43.491 52.3698 43.6535 52.5682 43.6535Z" fill="white"/>
<path id="Vector_45" d="M53.9315 43.6535C54.1299 43.6535 54.2907 43.491 54.2907 43.2906C54.2907 43.0902 54.1299 42.9277 53.9315 42.9277C53.7331 42.9277 53.5723 43.0902 53.5723 43.2906C53.5723 43.491 53.7331 43.6535 53.9315 43.6535Z" fill="white"/>
<path id="Vector_46" d="M114.661 44.5254H50.8457V76.6467H114.661V44.5254Z" fill="white"/>
<path id="Vector_47" d="M55.0869 49.4102C55.0271 49.4103 54.9697 49.4343 54.9274 49.477C54.8851 49.5198 54.8614 49.5777 54.8613 49.6381V61.16C54.8614 61.2204 54.8851 61.2784 54.9274 61.3211C54.9697 61.3638 55.0271 61.3879 55.0869 61.3879H68.2559C68.3157 61.3879 68.3731 61.3638 68.4154 61.3211C68.4576 61.2784 68.4814 61.2204 68.4815 61.16V49.6381C68.4814 49.5777 68.4576 49.5198 68.4154 49.477C68.3731 49.4343 68.3157 49.4103 68.2559 49.4102H55.0869Z" fill="#E6E6E6"/>
<path id="Vector_48" d="M76.2316 49.4473C76.1718 49.4474 76.1144 49.4714 76.0721 49.5141C76.0298 49.5569 76.006 49.6148 76.0059 49.6752V61.16C76.006 61.2205 76.0298 61.2784 76.0721 61.3212C76.1144 61.3639 76.1718 61.3879 76.2316 61.388H89.3586C89.4184 61.3879 89.4758 61.3638 89.518 61.3211C89.5603 61.2784 89.5841 61.2205 89.5842 61.16V49.6752C89.5841 49.6148 89.5603 49.5569 89.518 49.5142C89.4758 49.4714 89.4184 49.4474 89.3586 49.4473H76.2316Z" fill="#E6E6E6"/>
<path id="Vector_49" d="M97.1552 49.3262C97.0954 49.3263 97.0381 49.3504 96.9958 49.3931C96.9535 49.4358 96.9297 49.4938 96.9297 49.5542V61.1594C96.9297 61.2198 96.9535 61.2777 96.9958 61.3204C97.0381 61.3632 97.0954 61.3872 97.1552 61.3873H110.419C110.479 61.3872 110.536 61.3632 110.578 61.3204C110.62 61.2777 110.644 61.2198 110.644 61.1594V49.5542C110.644 49.4938 110.62 49.4358 110.578 49.3931C110.536 49.3504 110.479 49.3263 110.419 49.3262H97.1552Z" fill="#E6E6E6"/>
<path id="Vector_50" d="M55.3288 67.0918C55.2053 67.0921 55.0868 67.1418 54.9996 67.2302C54.9123 67.3185 54.8633 67.4383 54.8633 67.5631C54.8633 67.6879 54.9123 67.8077 54.9996 67.896C55.0868 67.9844 55.2053 68.0341 55.3288 68.0344H67.7103C67.8338 68.0341 67.9522 67.9844 68.0395 67.896C68.1268 67.8077 68.1758 67.6879 68.1758 67.5631C68.1758 67.4383 68.1268 67.3185 68.0395 67.2302C67.9522 67.1418 67.8338 67.0921 67.7103 67.0918H55.3288Z" fill="#E6E6E6"/>
<path id="Vector_51" d="M55.3289 69.332C55.2054 69.3322 55.0869 69.382 54.9996 69.4704C54.9124 69.5587 54.8633 69.6785 54.8633 69.8033C54.8633 69.9282 54.9124 70.0479 54.9996 70.1363C55.0869 70.2246 55.2054 70.2744 55.3289 70.2746H60.9036C61.0272 70.2744 61.1456 70.2246 61.2329 70.1363C61.3201 70.0479 61.3692 69.9282 61.3692 69.8033C61.3692 69.6785 61.3201 69.5587 61.2329 69.4704C61.1456 69.382 61.0272 69.3322 60.9036 69.332H55.3289Z" fill="#0046EA"/>
<path id="Vector_52" d="M76.6999 67.0918C76.5764 67.0921 76.4579 67.1418 76.3707 67.2302C76.2834 67.3185 76.2344 67.4383 76.2344 67.5631C76.2344 67.6879 76.2834 67.8077 76.3707 67.896C76.4579 67.9844 76.5764 68.0341 76.6999 68.0344H89.0814C89.2049 68.0341 89.3233 67.9844 89.4106 67.896C89.4979 67.8077 89.5469 67.6879 89.5469 67.5631C89.5469 67.4383 89.4979 67.3185 89.4106 67.2302C89.3233 67.1418 89.2049 67.0921 89.0814 67.0918H76.6999Z" fill="#E6E6E6"/>
<path id="Vector_53" d="M76.7 69.332C76.5765 69.3322 76.458 69.382 76.3708 69.4704C76.2835 69.5587 76.2344 69.6785 76.2344 69.8033C76.2344 69.9282 76.2835 70.0479 76.3708 70.1363C76.458 70.2246 76.5765 70.2744 76.7 70.2746H82.2748C82.3983 70.2744 82.5168 70.2246 82.604 70.1363C82.6913 70.0479 82.7404 69.9282 82.7404 69.8033C82.7404 69.6785 82.6913 69.5587 82.604 69.4704C82.5168 69.382 82.3983 69.3322 82.2748 69.332H76.7Z" fill="#0046EA"/>
<path id="Vector_54" d="M97.5378 67.0918C97.4143 67.0921 97.2959 67.1418 97.2086 67.2302C97.1213 67.3185 97.0723 67.4383 97.0723 67.5631C97.0723 67.6879 97.1213 67.8077 97.2086 67.896C97.2959 67.9844 97.4143 68.0341 97.5378 68.0344H109.919C110.043 68.0341 110.161 67.9844 110.249 67.896C110.336 67.8077 110.385 67.6879 110.385 67.5631C110.385 67.4383 110.336 67.3185 110.249 67.2302C110.161 67.1418 110.043 67.0921 109.919 67.0918H97.5378Z" fill="#E6E6E6"/>
<path id="Vector_55" d="M55.3288 64.7773C55.2053 64.7775 55.0868 64.8273 54.9996 64.9156C54.9123 65.004 54.8633 65.1237 54.8633 65.2485C54.8633 65.3734 54.9123 65.4931 54.9996 65.5814C55.0868 65.6698 55.2053 65.7196 55.3288 65.7198H67.7103C67.8338 65.7196 67.9522 65.6698 68.0395 65.5814C68.1268 65.4931 68.1758 65.3734 68.1758 65.2485C68.1758 65.1237 68.1268 65.004 68.0395 64.9156C67.9522 64.8273 67.8338 64.7775 67.7103 64.7773H55.3288Z" fill="#E6E6E6"/>
<path id="Vector_56" d="M76.6999 64.7773C76.5764 64.7775 76.4579 64.8273 76.3707 64.9156C76.2834 65.004 76.2344 65.1237 76.2344 65.2485C76.2344 65.3734 76.2834 65.4931 76.3707 65.5814C76.4579 65.6698 76.5764 65.7196 76.6999 65.7198H89.0814C89.2049 65.7196 89.3233 65.6698 89.4106 65.5814C89.4979 65.4931 89.5469 65.3734 89.5469 65.2485C89.5469 65.1237 89.4979 65.004 89.4106 64.9156C89.3233 64.8273 89.2049 64.7775 89.0814 64.7773H76.6999Z" fill="#E6E6E6"/>
<path id="Vector_57" d="M97.5378 64.7773C97.4143 64.7775 97.2959 64.8273 97.2086 64.9156C97.1213 65.004 97.0723 65.1237 97.0723 65.2485C97.0723 65.3734 97.1213 65.4931 97.2086 65.5814C97.2959 65.6698 97.4143 65.7196 97.5378 65.7198H109.919C110.043 65.7196 110.161 65.6698 110.249 65.5814C110.336 65.4931 110.385 65.3734 110.385 65.2485C110.385 65.1237 110.336 65.004 110.249 64.9156C110.161 64.8273 110.043 64.7775 109.919 64.7773H97.5378Z" fill="#E6E6E6"/>
<path id="Vector_58" d="M97.5379 69.332C97.4143 69.3322 97.2959 69.382 97.2086 69.4704C97.1213 69.5587 97.0723 69.6785 97.0723 69.8033C97.0723 69.9282 97.1213 70.0479 97.2086 70.1363C97.2959 70.2246 97.4143 70.2744 97.5379 70.2746H103.113C103.236 70.2744 103.355 70.2246 103.442 70.1363C103.529 70.0479 103.578 69.9282 103.578 69.8033C103.578 69.6785 103.529 69.5587 103.442 69.4704C103.355 69.382 103.236 69.3322 103.113 69.332H97.5379Z" fill="#0046EA"/>
</g>
</g>
</g>
</g>
<defs>
<clipPath id="clip0_39_286">
<rect width="140" height="101" fill="white"/>
</clipPath>
</defs>
</svg>
