<?xml version="1.0" standalone="no"?>
<!DOCTYPE svg PUBLIC "-//W3C//DTD SVG 20010904//EN"
 "http://www.w3.org/TR/2001/REC-SVG-20010904/DTD/svg10.dtd">
<svg version="1.0" xmlns="http://www.w3.org/2000/svg"
 width="1034.000000pt" height="550.000000pt" viewBox="0 0 1034.000000 550.000000"
 preserveAspectRatio="xMidYMid meet">
<metadata>
Created by potrace 1.16, written by Peter Selinger 2001-2019
</metadata>
<g transform="translate(0.000000,550.000000) scale(0.100000,-0.100000)"
fill="#000000" stroke="none">
<path d="M6750 3367 l0 -47 -197 -1 c-109 -1 -202 -2 -208 -4 -5 -1 -64 -3
-130 -4 l-120 -2 -80 -110 c-44 -61 -108 -149 -141 -196 -34 -47 -66 -89 -72
-95 -7 -7 -33 25 -81 96 l-71 106 -94 0 c-66 0 -97 -4 -105 -13 -8 -11 16 -54
104 -190 l115 -177 -61 -93 c-34 -50 -120 -174 -192 -274 l-129 -183 -259 0
-259 0 0 57 0 58 -90 -90 -90 -90 87 -88 88 -88 3 44 3 44 76 7 c42 3 187 6
322 6 l246 0 115 156 c63 86 148 201 187 257 40 55 74 102 76 104 2 2 36 -44
76 -102 40 -58 81 -109 91 -115 29 -16 185 -13 199 4 9 11 -14 52 -114 200
l-126 186 52 77 c28 43 97 142 153 220 l101 143 263 0 262 0 0 -52 0 -53 87
88 88 87 -88 87 -87 88 0 -48z"/>
<path d="M5065 3098 c-4 -17 -13 -23 -33 -23 -30 -1 -47 15 -29 27 7 4 -2 6
-19 5 -25 -2 -30 -6 -26 -23 3 -16 -3 -24 -25 -33 l-28 -11 30 5 30 5 -25 -16
-25 -15 25 6 c43 11 80 13 75 4 -3 -4 5 -11 17 -14 l21 -7 -24 -19 c-31 -24
-51 -24 -23 0 l22 18 -21 12 c-17 11 -19 11 -14 -3 8 -19 -30 -57 -52 -54 -10
2 -15 -4 -15 -14 1 -10 -4 -14 -13 -11 -9 4 -14 0 -13 -8 4 -27 0 -40 -10 -34
-5 3 -10 1 -10 -4 0 -14 6 -14 31 0 11 5 16 15 13 21 -5 7 -2 9 9 5 9 -3 16
-3 16 1 -3 18 2 33 9 28 5 -3 23 4 41 15 18 11 36 17 40 14 5 -2 25 -7 45 -9
21 -3 44 -10 52 -17 12 -10 13 -9 8 5 -3 9 -1 16 6 16 6 0 9 4 6 9 -9 13 19
32 38 25 9 -3 16 -10 16 -14 0 -5 8 -7 17 -6 10 2 24 -3 31 -11 11 -11 17 -11
28 -2 12 10 13 9 8 -6 -6 -14 -4 -16 7 -10 8 4 11 5 7 0 -4 -4 0 -22 9 -39 16
-31 16 -31 26 -8 6 12 14 22 19 22 10 0 11 37 0 44 -11 6 -28 -5 -35 -24 -4
-11 -6 -9 -6 6 -1 32 -22 47 -37 26 -12 -16 -13 -15 -14 5 0 25 -16 38 -45 38
-12 0 -19 6 -17 15 3 10 -3 9 -19 -5 -12 -11 -19 -14 -15 -7 4 6 2 12 -3 12
-6 0 -11 -5 -11 -10 0 -19 -24 -37 -42 -32 -10 2 -18 8 -18 12 0 5 9 6 20 3
12 -3 20 0 20 7 0 7 -7 10 -15 7 -8 -4 -17 -1 -21 5 -4 7 -10 5 -16 -6 -5 -9
-14 -16 -21 -16 -8 0 -7 3 2 9 7 5 10 14 7 20 -4 6 -12 8 -18 5 -7 -4 -8 -2
-4 4 10 16 63 15 69 0 4 -9 8 -10 14 -2 4 6 25 11 46 12 52 1 51 0 37 17 -9
11 -25 14 -52 12 -25 -3 -38 0 -38 8 0 14 -30 16 -48 2 -9 -7 -11 -6 -6 7 3 9
3 16 0 16 -3 0 -8 -10 -11 -22z"/>
<path d="M4930 3080 c0 -6 -16 -10 -35 -8 -19 1 -37 -1 -41 -5 -4 -4 0 -7 10
-7 9 0 15 -4 12 -9 -4 -5 0 -12 6 -14 10 -4 10 -6 0 -6 -8 -1 -10 -6 -6 -13 4
-8 3 -10 -2 -5 -5 5 -9 14 -9 20 0 5 -10 11 -22 12 -18 1 -20 -1 -11 -12 9
-11 7 -12 -8 -6 -17 6 -17 5 -6 -10 12 -14 11 -16 -6 -12 -15 3 -20 -1 -19
-16 1 -11 7 -17 14 -15 7 3 13 1 13 -4 0 -6 -6 -10 -14 -10 -9 0 -13 -9 -12
-25 2 -14 -2 -29 -9 -35 -7 -6 -10 -21 -7 -35 4 -23 -5 -31 -31 -26 -5 1 -5
-3 -2 -9 4 -6 14 -9 22 -6 9 4 13 1 11 -6 -3 -7 -11 -13 -19 -14 -31 -2 -33
-5 -9 -17 23 -11 25 -19 28 -86 2 -61 7 -77 25 -92 14 -12 17 -18 8 -19 -11 0
-11 -3 0 -16 11 -13 10 -17 -4 -26 -10 -5 -15 -13 -12 -18 3 -5 1 -11 -5 -15
-12 -8 -13 15 -1 34 10 16 -21 51 -46 51 -20 0 -15 -16 10 -29 l22 -11 -22 6
c-26 6 -27 5 -13 -31 5 -14 14 -24 19 -21 5 3 11 -1 15 -9 3 -8 12 -12 21 -9
13 6 20 -6 16 -28 0 -5 7 -8 18 -8 15 0 20 11 27 58 4 31 8 61 8 66 1 5 7 11
14 14 14 4 13 -40 -1 -54 -11 -11 -8 -26 3 -19 6 3 10 1 10 -5 0 -6 5 -8 10
-5 6 4 7 11 4 17 -4 6 1 6 14 -1 23 -12 38 -31 25 -31 -5 0 -14 5 -21 12 -8 8
-12 8 -12 1 0 -6 6 -16 14 -22 10 -8 16 -8 25 2 8 11 6 18 -9 32 -11 10 -20
28 -21 39 0 21 -1 21 -9 1 -9 -20 -9 -20 -9 1 -1 11 3 24 8 30 8 8 -10 145
-24 182 -3 7 0 10 5 7 6 -3 10 -13 10 -22 0 -9 3 -14 6 -10 4 3 0 24 -9 45 -9
22 -12 44 -7 52 6 10 9 9 11 -3 3 -13 7 -11 15 7 10 22 9 24 -9 20 -27 -5 -52
24 -51 59 1 26 -6 34 -19 20 -4 -3 -1 -13 6 -22 11 -14 10 -14 -6 -2 -13 10
-15 17 -6 27 6 7 8 18 4 24 -4 6 -3 9 2 8 14 -4 53 13 53 23 0 6 5 7 10 4 13
-8 13 18 -1 32 -7 7 -1 12 20 16 28 6 45 27 21 27 -5 0 -10 -5 -10 -10z"/>
<path d="M5273 2553 c-9 -3 -10 -10 -4 -21 7 -12 3 -25 -14 -44 -13 -15 -26
-24 -31 -20 -4 4 -5 0 -1 -9 4 -12 -1 -16 -21 -15 -15 1 -33 -3 -39 -7 -8 -6
-15 -4 -19 6 -3 9 -12 13 -20 10 -8 -3 -14 0 -14 5 0 6 9 9 20 7 13 -2 23 2
27 11 3 9 15 20 27 24 21 9 21 9 -1 9 -13 1 -23 -3 -23 -8 0 -5 -7 -12 -16
-15 -15 -6 -15 -4 -3 11 8 9 -4 4 -25 -12 -22 -17 -37 -25 -33 -19 4 7 -5 11
-24 11 -19 0 -25 -3 -17 -9 9 -5 7 -8 -7 -8 -35 0 -68 12 -55 20 7 4 8 10 4
13 -5 3 -20 -4 -34 -16 -17 -14 -19 -18 -7 -14 11 4 17 3 15 -4 -2 -6 -8 -11
-13 -12 -12 -1 -39 -35 -49 -61 -7 -21 -21 -14 -21 12 0 24 -29 21 -33 -3 l-3
-20 16 20 c12 14 16 16 15 5 -4 -29 0 -40 15 -40 8 0 15 5 15 11 0 6 7 9 15 5
16 -6 67 38 56 50 -3 4 0 4 7 0 7 -4 10 -13 6 -19 -3 -7 4 -1 16 13 13 15 20
18 17 9 -5 -14 0 -15 31 -8 25 5 39 4 44 -4 4 -7 8 -7 8 -2 0 7 3 7 8 0 20
-27 108 -60 118 -44 3 6 13 8 21 4 13 -4 14 -3 3 10 -17 20 -30 19 -31 -2 0
-10 -3 -13 -5 -6 -7 16 25 63 41 63 8 0 17 9 20 20 7 23 25 27 25 6 0 -21 42
-15 48 6 2 10 8 15 13 12 5 -3 6 3 2 12 -4 12 -3 15 5 10 8 -5 11 0 8 16 -3
13 -5 26 -5 31 -1 8 -79 8 -98 0z"/>
</g>
</svg>
